Cafeteria-Bold.ufo
<glyph name="exclam" format="1">
  <advance width="173"/>
  <unicode hex="0021"/>
  <outline>
    <contour>
      <point x="141" y="699" type="curve"/>
      <point x="134" y="578"/>
      <point x="137" y="273"/>
      <point x="131" y="184" type="curve"/>
      <point x="96" y="196"/>
      <point x="75" y="200"/>
      <point x="41" y="204" type="curve"/>
      <point x="39" y="307"/>
      <point x="32" y="522"/>
      <point x="21" y="659" type="curve"/>
      <point x="53" y="668"/>
      <point x="88" y="677"/>
    </contour>
    <contour>
      <point x="155" y="55" type="curve" smooth="yes"/>
      <point x="155" y="23"/>
      <point x="132" y="-6"/>
      <point x="92" y="-6" type="curve" smooth="yes"/>
      <point x="56" y="-6"/>
      <point x="22" y="20"/>
      <point x="22" y="56" type="curve" smooth="yes"/>
      <point x="22" y="93"/>
      <point x="52" y="116"/>
      <point x="91" y="116" type="curve" smooth="yes"/>
      <point x="127" y="116"/>
      <point x="155" y="91"/>
    </contour>
  </outline>
</glyph>
<glyph name="quotedbl" format="1">
  <advance width="338"/>
  <unicode hex="0022"/>
  <outline>
    <contour>
      <point x="304" y="687" type="curve"/>
      <point x="302" y="647"/>
      <point x="304" y="606"/>
      <point x="303" y="575" type="curve" smooth="yes"/>
      <point x="302" y="519"/>
      <point x="295" y="455"/>
      <point x="291" y="393" type="curve"/>
      <point x="257" y="403"/>
      <point x="243" y="404"/>
      <point x="219" y="406" type="curve"/>
      <point x="209" y="465"/>
      <point x="201" y="507"/>
      <point x="189" y="545" type="curve"/>
      <point x="194" y="582"/>
      <point x="190" y="625"/>
      <point x="189" y="665" type="curve"/>
      <point x="228" y="670"/>
      <point x="254" y="674"/>
    </contour>
    <contour>
      <point x="142" y="592" type="curve" smooth="yes"/>
      <point x="141" y="528"/>
      <point x="138" y="455"/>
      <point x="129" y="394" type="curve"/>
      <point x="96" y="403"/>
      <point x="79" y="404"/>
      <point x="58" y="406" type="curve"/>
      <point x="49" y="458"/>
      <point x="36" y="512"/>
      <point x="29" y="562" type="curve"/>
      <point x="33" y="593"/>
      <point x="30" y="626"/>
      <point x="29" y="664" type="curve"/>
      <point x="66" y="668"/>
      <point x="95" y="673"/>
      <point x="141" y="687" type="curve"/>
      <point x="145" y="646"/>
      <point x="143" y="624"/>
    </contour>
  </outline>
</glyph>
<glyph name="numbersign" format="1">
  <advance width="487"/>
  <unicode hex="0023"/>
  <outline>
    <contour>
      <point x="478" y="441" type="curve"/>
      <point x="468" y="414"/>
      <point x="457" y="382"/>
      <point x="451" y="357" type="curve"/>
      <point x="424" y="363"/>
      <point x="398" y="366"/>
      <point x="367" y="372" type="curve"/>
      <point x="361" y="336"/>
      <point x="353" y="290"/>
      <point x="348" y="256" type="curve"/>
      <point x="385" y="246"/>
      <point x="418" y="238"/>
      <point x="441" y="235" type="curve"/>
      <point x="429" y="207"/>
      <point x="417" y="171"/>
      <point x="410" y="148" type="curve"/>
      <point x="390" y="154"/>
      <point x="365" y="158"/>
      <point x="335" y="167" type="curve"/>
      <point x="323" y="95"/>
      <point x="313" y="37"/>
      <point x="309" y="-8" type="curve"/>
      <point x="280" y="-4"/>
      <point x="251" y="-2"/>
      <point x="217" y="-2" type="curve"/>
      <point x="230" y="56"/>
      <point x="239" y="118"/>
      <point x="250" y="189" type="curve"/>
      <point x="228" y="195"/>
      <point x="198" y="202"/>
      <point x="176" y="209" type="curve"/>
      <point x="167" y="130"/>
      <point x="159" y="68"/>
      <point x="156" y="25" type="curve"/>
      <point x="128" y="31"/>
      <point x="99" y="33"/>
      <point x="74" y="34" type="curve"/>
      <point x="80" y="79"/>
      <point x="84" y="146"/>
      <point x="91" y="231" type="curve"/>
      <point x="60" y="239"/>
      <point x="35" y="247"/>
      <point x="16" y="252" type="curve"/>
      <point x="20" y="273"/>
      <point x="25" y="306"/>
      <point x="26" y="333" type="curve"/>
      <point x="52" y="326"/>
      <point x="72" y="322"/>
      <point x="98" y="315" type="curve"/>
      <point x="100" y="346"/>
      <point x="104" y="386"/>
      <point x="106" y="415" type="curve"/>
      <point x="79" y="420"/>
      <point x="54" y="425"/>
      <point x="29" y="428" type="curve"/>
      <point x="34" y="450"/>
      <point x="38" y="475"/>
      <point x="40" y="499" type="curve"/>
      <point x="65" y="493"/>
      <point x="85" y="491"/>
      <point x="111" y="489" type="curve"/>
      <point x="118" y="571"/>
      <point x="123" y="640"/>
      <point x="126" y="684" type="curve"/>
      <point x="163" y="677"/>
      <point x="196" y="675"/>
      <point x="228" y="672" type="curve"/>
      <point x="222" y="629"/>
      <point x="214" y="561"/>
      <point x="204" y="476" type="curve"/>
      <point x="229" y="472"/>
      <point x="264" y="468"/>
      <point x="291" y="465" type="curve"/>
      <point x="300" y="528"/>
      <point x="308" y="578"/>
      <point x="314" y="624" type="curve"/>
      <point x="340" y="618"/>
      <point x="377" y="614"/>
      <point x="406" y="614" type="curve"/>
      <point x="397" y="571"/>
      <point x="390" y="520"/>
      <point x="378" y="454" type="curve"/>
      <point x="415" y="449"/>
      <point x="446" y="444"/>
    </contour>
    <contour>
      <point x="282" y="389" type="curve"/>
      <point x="256" y="393"/>
      <point x="221" y="399"/>
      <point x="195" y="403" type="curve"/>
      <point x="191" y="368"/>
      <point x="186" y="325"/>
      <point x="183" y="292" type="curve"/>
      <point x="206" y="285"/>
      <point x="239" y="279"/>
      <point x="264" y="273" type="curve"/>
      <point x="269" y="309"/>
      <point x="276" y="354"/>
    </contour>
  </outline>
</glyph>
<glyph name="dollar" format="1">
  <advance width="304"/>
  <unicode hex="0024"/>
  <outline>
    <contour>
      <point x="276" y="173" type="curve" smooth="yes"/>
      <point x="276" y="98"/>
      <point x="246" y="40"/>
      <point x="180" y="13" type="curve"/>
      <point x="186" y="-90" type="line"/>
      <point x="91" y="-105" type="line"/>
      <point x="86" y="-17" type="line"/>
      <point x="69" y="-19"/>
      <point x="48" y="-22"/>
      <point x="23" y="-26" type="curve"/>
      <point x="26" y="17"/>
      <point x="25" y="39"/>
      <point x="22" y="80" type="curve"/>
      <point x="120" y="80"/>
      <point x="174" y="112"/>
      <point x="174" y="159" type="curve" smooth="yes"/>
      <point x="174" y="212"/>
      <point x="135" y="262"/>
      <point x="96" y="315" type="curve" smooth="yes"/>
      <point x="52" y="374"/>
      <point x="9" y="437"/>
      <point x="9" y="506" type="curve" smooth="yes"/>
      <point x="9" y="566"/>
      <point x="45" y="618"/>
      <point x="106" y="646" type="curve"/>
      <point x="101" y="756" type="line"/>
      <point x="209" y="758" type="line"/>
      <point x="210" y="676" type="line"/>
      <point x="228" y="678"/>
      <point x="248" y="678"/>
      <point x="272" y="677" type="curve"/>
      <point x="270" y="646"/>
      <point x="267" y="615"/>
      <point x="271" y="581" type="curve"/>
      <point x="174" y="579"/>
      <point x="116" y="563"/>
      <point x="116" y="517" type="curve" smooth="yes"/>
      <point x="116" y="471"/>
      <point x="152" y="423"/>
      <point x="188" y="372" type="curve" smooth="yes"/>
      <point x="231" y="310"/>
      <point x="276" y="243"/>
    </contour>
  </outline>
</glyph>
<glyph name="percent" format="1">
  <advance width="708"/>
  <unicode hex="0025"/>
  <outline>
    <contour>
      <point x="689" y="217" type="curve" smooth="yes"/>
      <point x="689" y="59"/>
      <point x="607" y="1"/>
      <point x="543" y="1" type="curve" smooth="yes"/>
      <point x="463" y="1"/>
      <point x="401" y="62"/>
      <point x="401" y="194" type="curve" smooth="yes"/>
      <point x="401" y="293"/>
      <point x="461" y="421"/>
      <point x="554" y="421" type="curve" smooth="yes"/>
      <point x="638" y="421"/>
      <point x="689" y="358"/>
    </contour>
    <contour>
      <point x="484" y="629" type="curve"/>
      <point x="456" y="548"/>
      <point x="301" y="55"/>
      <point x="282" y="-18" type="curve"/>
      <point x="261" y="-8"/>
      <point x="228" y="4"/>
      <point x="203" y="9" type="curve"/>
      <point x="234" y="98"/>
      <point x="345" y="448"/>
      <point x="378" y="569" type="curve"/>
      <point x="359" y="565"/>
      <point x="325" y="555"/>
      <point x="301" y="549" type="curve"/>
      <point x="303" y="537"/>
      <point x="304" y="523"/>
      <point x="304" y="509" type="curve" smooth="yes"/>
      <point x="304" y="351"/>
      <point x="221" y="263"/>
      <point x="158" y="263" type="curve" smooth="yes"/>
      <point x="70" y="263"/>
      <point x="15" y="317"/>
      <point x="15" y="485" type="curve" smooth="yes"/>
      <point x="15" y="562"/>
      <point x="54" y="683"/>
      <point x="164" y="683" type="curve" smooth="yes"/>
      <point x="219" y="683"/>
      <point x="256" y="660"/>
      <point x="278" y="621" type="curve"/>
      <point x="327" y="633"/>
      <point x="385" y="649"/>
      <point x="441" y="666" type="curve"/>
      <point x="454" y="652"/>
      <point x="466" y="641"/>
    </contour>
    <contour>
      <point x="593" y="213" type="curve" smooth="yes"/>
      <point x="593" y="310"/>
      <point x="581" y="338"/>
      <point x="552" y="338" type="curve" smooth="yes"/>
      <point x="511" y="338"/>
      <point x="496" y="265"/>
      <point x="496" y="198" type="curve" smooth="yes"/>
      <point x="496" y="122"/>
      <point x="506" y="83"/>
      <point x="535" y="83" type="curve" smooth="yes"/>
      <point x="579" y="83"/>
      <point x="593" y="120"/>
    </contour>
    <contour>
      <point x="212" y="494" type="curve" smooth="yes"/>
      <point x="212" y="570"/>
      <point x="202" y="596"/>
      <point x="156" y="596" type="curve" smooth="yes"/>
      <point x="125" y="596"/>
      <point x="106" y="563"/>
      <point x="106" y="489" type="curve" smooth="yes"/>
      <point x="106" y="374"/>
      <point x="119" y="347"/>
      <point x="149" y="347" type="curve" smooth="yes"/>
      <point x="190" y="347"/>
      <point x="212" y="418"/>
    </contour>
  </outline>
</glyph>
<glyph name="ampersand" format="1">
  <advance width="476"/>
  <unicode hex="0026"/>
  <outline>
    <contour>
      <point x="459" y="325" type="curve"/>
      <point x="432" y="244"/>
      <point x="406" y="191"/>
      <point x="375" y="140" type="curve"/>
      <point x="393" y="109"/>
      <point x="418" y="73"/>
      <point x="443" y="33" type="curve"/>
      <point x="414" y="15"/>
      <point x="391" y="4"/>
      <point x="361" y="-30" type="curve"/>
      <point x="339" y="12"/>
      <point x="321" y="40"/>
      <point x="306" y="64" type="curve"/>
      <point x="269" y="34"/>
      <point x="221" y="7"/>
      <point x="165" y="7" type="curve" smooth="yes"/>
      <point x="84" y="7"/>
      <point x="16" y="119"/>
      <point x="16" y="216" type="curve" smooth="yes"/>
      <point x="16" y="284"/>
      <point x="73" y="337"/>
      <point x="126" y="378" type="curve"/>
      <point x="107" y="429"/>
      <point x="81" y="482"/>
      <point x="81" y="534" type="curve" smooth="yes"/>
      <point x="81" y="617"/>
      <point x="166" y="688"/>
      <point x="252" y="688" type="curve" smooth="yes"/>
      <point x="319" y="688"/>
      <point x="367" y="621"/>
      <point x="367" y="557" type="curve" smooth="yes"/>
      <point x="367" y="470"/>
      <point x="303" y="406"/>
      <point x="245" y="354" type="curve"/>
      <point x="263" y="314"/>
      <point x="297" y="259"/>
      <point x="321" y="218" type="curve"/>
      <point x="339" y="256"/>
      <point x="357" y="305"/>
      <point x="371" y="354" type="curve"/>
      <point x="402" y="343"/>
      <point x="422" y="334"/>
    </contour>
    <contour>
      <point x="267" y="543" type="curve" smooth="yes"/>
      <point x="267" y="571"/>
      <point x="253" y="599"/>
      <point x="231" y="599" type="curve" smooth="yes"/>
      <point x="204" y="599"/>
      <point x="181" y="567"/>
      <point x="181" y="542" type="curve" smooth="yes"/>
      <point x="181" y="505"/>
      <point x="191" y="471"/>
      <point x="206" y="436" type="curve"/>
      <point x="245" y="471"/>
      <point x="267" y="507"/>
    </contour>
    <contour>
      <point x="258" y="136" type="curve"/>
      <point x="229" y="184"/>
      <point x="193" y="244"/>
      <point x="167" y="293" type="curve"/>
      <point x="145" y="276"/>
      <point x="122" y="251"/>
      <point x="122" y="226" type="curve" smooth="yes"/>
      <point x="122" y="174"/>
      <point x="141" y="103"/>
      <point x="195" y="103" type="curve" smooth="yes"/>
      <point x="215" y="103"/>
      <point x="242" y="118"/>
    </contour>
  </outline>
</glyph>
<glyph name="quotesingle" format="1">
  <advance width="185"/>
  <unicode hex="0027"/>
  <outline>
    <contour>
      <point x="145" y="592" type="curve" smooth="yes"/>
      <point x="143" y="537"/>
      <point x="135" y="453"/>
      <point x="134" y="393" type="curve"/>
      <point x="97" y="401"/>
      <point x="88" y="402"/>
      <point x="61" y="406" type="curve"/>
      <point x="52" y="454"/>
      <point x="41" y="514"/>
      <point x="31" y="561" type="curve"/>
      <point x="31" y="600"/>
      <point x="34" y="621"/>
      <point x="29" y="666" type="curve"/>
      <point x="76" y="666"/>
      <point x="97" y="669"/>
      <point x="145" y="677" type="curve"/>
      <point x="146" y="641"/>
      <point x="146" y="624"/>
    </contour>
  </outline>
</glyph>
<glyph name="parenleft" format="1">
  <advance width="288"/>
  <unicode hex="0028"/>
  <outline>
    <contour>
      <point x="291" y="-115" type="curve"/>
      <point x="267" y="-131"/>
      <point x="238" y="-152"/>
      <point x="215" y="-170" type="curve"/>
      <point x="94" y="19"/>
      <point x="28" y="207"/>
      <point x="28" y="374" type="curve" smooth="yes"/>
      <point x="28" y="525"/>
      <point x="91" y="659"/>
      <point x="225" y="760" type="curve"/>
      <point x="245" y="741"/>
      <point x="260" y="728"/>
      <point x="286" y="709" type="curve"/>
      <point x="186" y="605"/>
      <point x="137" y="498"/>
      <point x="137" y="378" type="curve" smooth="yes"/>
      <point x="137" y="238"/>
      <point x="190" y="80"/>
    </contour>
  </outline>
</glyph>
<glyph name="parenright" format="1">
  <advance width="288"/>
  <unicode hex="0029"/>
  <outline>
    <contour>
      <point x="264" y="350" type="curve" smooth="yes"/>
      <point x="264" y="202"/>
      <point x="210" y="26"/>
      <point x="87" y="-171" type="curve"/>
      <point x="57" y="-149"/>
      <point x="33" y="-137"/>
      <point x="6" y="-125" type="curve"/>
      <point x="96" y="34"/>
      <point x="156" y="192"/>
      <point x="155" y="338" type="curve" smooth="yes"/>
      <point x="155" y="472"/>
      <point x="104" y="595"/>
      <point x="-21" y="700" type="curve"/>
      <point x="15" y="718"/>
      <point x="32" y="730"/>
      <point x="57" y="753" type="curve"/>
      <point x="187" y="663"/>
      <point x="264" y="526"/>
    </contour>
  </outline>
</glyph>
<glyph name="asterisk" format="1">
  <advance width="379"/>
  <unicode hex="002A"/>
  <outline>
    <contour>
      <point x="376" y="494" type="line"/>
      <point x="346" y="402" type="line"/>
      <point x="230" y="458" type="line"/>
      <point x="277" y="335" type="line"/>
      <point x="146" y="345" type="line"/>
      <point x="154" y="439" type="line"/>
      <point x="31" y="391" type="line"/>
      <point x="12" y="477" type="line"/>
      <point x="131" y="493" type="line"/>
      <point x="10" y="580" type="line"/>
      <point x="73" y="663" type="line"/>
      <point x="183" y="552" type="line"/>
      <point x="195" y="644" type="line"/>
      <point x="306" y="639" type="line"/>
      <point x="254" y="534" type="line"/>
    </contour>
  </outline>
</glyph>
<glyph name="plus" format="1">
  <advance width="393"/>
  <unicode hex="002B"/>
  <outline>
    <contour>
      <point x="377" y="365" type="curve"/>
      <point x="370" y="329"/>
      <point x="372" y="299"/>
      <point x="372" y="263" type="curve"/>
      <point x="346" y="266"/>
      <point x="298" y="266"/>
      <point x="247" y="267" type="curve"/>
      <point x="248" y="219"/>
      <point x="247" y="157"/>
      <point x="249" y="132" type="curve"/>
      <point x="207" y="132"/>
      <point x="179" y="134"/>
      <point x="137" y="127" type="curve"/>
      <point x="143" y="160"/>
      <point x="143" y="223"/>
      <point x="144" y="271" type="curve"/>
      <point x="97" y="271"/>
      <point x="47" y="269"/>
      <point x="19" y="270" type="curve"/>
      <point x="19" y="295"/>
      <point x="14" y="325"/>
      <point x="10" y="361" type="curve"/>
      <point x="44" y="359"/>
      <point x="87" y="357"/>
      <point x="145" y="357" type="curve"/>
      <point x="145" y="407"/>
      <point x="141" y="467"/>
      <point x="139" y="494" type="curve"/>
      <point x="181" y="491"/>
      <point x="212" y="486"/>
      <point x="242" y="486" type="curve"/>
      <point x="242" y="459"/>
      <point x="245" y="401"/>
      <point x="245" y="362" type="curve"/>
      <point x="296" y="363"/>
      <point x="345" y="362"/>
    </contour>
  </outline>
</glyph>
<glyph name="hyphen" format="1">
  <advance width="238"/>
  <unicode hex="002D"/>
  <unicode hex="2010"/>
  <unicode hex="2011"/>
  <outline>
    <contour>
      <point x="218" y="193" type="curve"/>
      <point x="178" y="197"/>
      <point x="75" y="198"/>
      <point x="19" y="199" type="curve"/>
      <point x="19" y="221"/>
      <point x="16" y="263"/>
      <point x="12" y="294" type="curve"/>
      <point x="67" y="291"/>
      <point x="168" y="290"/>
      <point x="218" y="293" type="curve"/>
      <point x="215" y="263"/>
      <point x="218" y="225"/>
    </contour>
  </outline>
</glyph>
<glyph name="period" format="1">
  <advance width="176"/>
  <unicode hex="002E"/>
  <outline>
    <contour>
      <point x="154" y="54" type="curve" smooth="yes"/>
      <point x="154" y="17"/>
      <point x="132" y="-7"/>
      <point x="99" y="-7" type="curve" smooth="yes"/>
      <point x="59" y="-7"/>
      <point x="21" y="16"/>
      <point x="21" y="55" type="curve" smooth="yes"/>
      <point x="21" y="85"/>
      <point x="42" y="114"/>
      <point x="98" y="114" type="curve" smooth="yes"/>
      <point x="134" y="114"/>
      <point x="154" y="96"/>
    </contour>
  </outline>
</glyph>
<glyph name="slash" format="1">
  <advance width="339"/>
  <unicode hex="002F"/>
  <outline>
    <contour>
      <point x="330" y="650" type="curve"/>
      <point x="268" y="485"/>
      <point x="166" y="174"/>
      <point x="109" y="-14" type="curve"/>
      <point x="70" y="0"/>
      <point x="45" y="6"/>
      <point x="8" y="10" type="curve"/>
      <point x="72" y="190"/>
      <point x="182" y="517"/>
      <point x="225" y="675" type="curve"/>
      <point x="262" y="661"/>
      <point x="287" y="655"/>
    </contour>
  </outline>
</glyph>
<glyph name="zero" format="1">
  <advance width="427"/>
  <unicode hex="0030"/>
  <outline>
    <contour>
      <point x="399" y="361" type="curve" smooth="yes"/>
      <point x="399" y="53"/>
      <point x="285" y="-10"/>
      <point x="211" y="-10" type="curve" smooth="yes"/>
      <point x="110" y="-10"/>
      <point x="27" y="90"/>
      <point x="27" y="371" type="curve" smooth="yes"/>
      <point x="27" y="562"/>
      <point x="89" y="683"/>
      <point x="218" y="683" type="curve" smooth="yes"/>
      <point x="360" y="683"/>
      <point x="399" y="579"/>
    </contour>
    <contour>
      <point x="289" y="354" type="curve" smooth="yes"/>
      <point x="289" y="532"/>
      <point x="259" y="590"/>
      <point x="209" y="590" type="curve" smooth="yes"/>
      <point x="163" y="590"/>
      <point x="138" y="518"/>
      <point x="138" y="377" type="curve" smooth="yes"/>
      <point x="138" y="190"/>
      <point x="161" y="87"/>
      <point x="217" y="87" type="curve" smooth="yes"/>
      <point x="267" y="87"/>
      <point x="289" y="205"/>
    </contour>
  </outline>
</glyph>
<glyph name="one" format="1">
  <advance width="245"/>
  <unicode hex="0031"/>
  <outline>
    <contour>
      <point x="213" y="675" type="curve"/>
      <point x="210" y="651"/>
      <point x="199" y="555"/>
      <point x="199" y="487" type="curve" smooth="yes"/>
      <point x="199" y="352"/>
      <point x="196" y="133"/>
      <point x="201" y="0" type="curve"/>
      <point x="161" y="5"/>
      <point x="114" y="5"/>
      <point x="76" y="8" type="curve"/>
      <point x="90" y="97"/>
      <point x="92" y="159"/>
      <point x="94" y="246" type="curve" smooth="yes"/>
      <point x="98" y="383"/>
      <point x="96" y="546"/>
      <point x="94" y="592" type="curve"/>
      <point x="73" y="589"/>
      <point x="37" y="585"/>
      <point x="16" y="581" type="curve"/>
      <point x="15" y="610"/>
      <point x="11" y="651"/>
      <point x="6" y="676" type="curve"/>
      <point x="42" y="677"/>
      <point x="127" y="686"/>
      <point x="152" y="691" type="curve"/>
      <point x="162" y="687"/>
      <point x="188" y="679"/>
    </contour>
  </outline>
</glyph>
<glyph name="two" format="1">
  <advance width="369"/>
  <unicode hex="0032"/>
  <outline>
    <contour>
      <point x="347" y="101" type="curve"/>
      <point x="337" y="65"/>
      <point x="332" y="31"/>
      <point x="327" y="-5" type="curve"/>
      <point x="293" y="0"/>
      <point x="222" y="1"/>
      <point x="168" y="-1" type="curve" smooth="yes"/>
      <point x="121" y="-3"/>
      <point x="70" y="-5"/>
      <point x="43" y="-8" type="curve"/>
      <point x="37" y="12"/>
      <point x="28" y="35"/>
      <point x="21" y="51" type="curve"/>
      <point x="167" y="282"/>
      <point x="208" y="408"/>
      <point x="208" y="505" type="curve" smooth="yes"/>
      <point x="208" y="571"/>
      <point x="185" y="583"/>
      <point x="142" y="583" type="curve" smooth="yes"/>
      <point x="122" y="583"/>
      <point x="85" y="567"/>
      <point x="60" y="551" type="curve"/>
      <point x="44" y="583"/>
      <point x="30" y="608"/>
      <point x="6" y="637" type="curve"/>
      <point x="42" y="661"/>
      <point x="92" y="682"/>
      <point x="160" y="682" type="curve" smooth="yes"/>
      <point x="283" y="682"/>
      <point x="321" y="642"/>
      <point x="321" y="533" type="curve" smooth="yes"/>
      <point x="321" y="430"/>
      <point x="277" y="298"/>
      <point x="164" y="103" type="curve"/>
      <point x="171" y="102"/>
      <point x="187" y="101"/>
      <point x="187" y="101" type="curve" smooth="yes"/>
      <point x="211" y="99"/>
      <point x="284" y="100"/>
    </contour>
  </outline>
</glyph>
<glyph name="three" format="1">
  <advance width="362"/>
  <unicode hex="0033"/>
  <outline>
    <contour>
      <point x="341" y="291" type="curve" smooth="yes"/>
      <point x="341" y="116"/>
      <point x="245" y="-10"/>
      <point x="132" y="-10" type="curve" smooth="yes"/>
      <point x="111" y="-10"/>
      <point x="64" y="0"/>
      <point x="8" y="17" type="curve"/>
      <point x="19" y="46"/>
      <point x="27" y="77"/>
      <point x="33" y="107" type="curve"/>
      <point x="58" y="94"/>
      <point x="106" y="84"/>
      <point x="130" y="84" type="curve" smooth="yes"/>
      <point x="187" y="84"/>
      <point x="233" y="170"/>
      <point x="233" y="279" type="curve" smooth="yes"/>
      <point x="233" y="332"/>
      <point x="160" y="348"/>
      <point x="97" y="350" type="curve"/>
      <point x="88" y="373"/>
      <point x="80" y="392"/>
      <point x="71" y="406" type="curve"/>
      <point x="126" y="477"/>
      <point x="178" y="538"/>
      <point x="201" y="584" type="curve"/>
      <point x="177" y="583"/>
      <point x="63" y="577"/>
      <point x="36" y="569" type="curve"/>
      <point x="32" y="606"/>
      <point x="26" y="632"/>
      <point x="20" y="664" type="curve"/>
      <point x="56" y="666"/>
      <point x="210" y="681"/>
      <point x="283" y="688" type="curve"/>
      <point x="300" y="673"/>
      <point x="314" y="660"/>
      <point x="333" y="643" type="curve"/>
      <point x="296" y="553"/>
      <point x="258" y="500"/>
      <point x="199" y="422" type="curve"/>
      <point x="272" y="410"/>
      <point x="341" y="370"/>
    </contour>
  </outline>
</glyph>
<glyph name="four" format="1">
  <advance width="392"/>
  <unicode hex="0034"/>
  <outline>
    <contour>
      <point x="373" y="143" type="curve"/>
      <point x="349" y="143"/>
      <point x="334" y="144"/>
      <point x="327" y="144" type="curve"/>
      <point x="325" y="109"/>
      <point x="323" y="58"/>
      <point x="326" y="-11" type="curve"/>
      <point x="288" y="-6"/>
      <point x="244" y="-2"/>
      <point x="210" y="-1" type="curve"/>
      <point x="216" y="38"/>
      <point x="220" y="115"/>
      <point x="220" y="145" type="curve"/>
      <point x="33" y="148" type="line"/>
      <point x="20" y="180"/>
      <point x="12" y="192"/>
      <point x="4" y="214" type="curve"/>
      <point x="32" y="269"/>
      <point x="113" y="531"/>
      <point x="171" y="691" type="curve"/>
      <point x="195" y="680"/>
      <point x="222" y="671"/>
      <point x="262" y="667" type="curve"/>
      <point x="214" y="508"/>
      <point x="149" y="311"/>
      <point x="117" y="233" type="curve"/>
      <point x="134" y="233"/>
      <point x="206" y="232"/>
      <point x="220" y="232" type="curve"/>
      <point x="218" y="255"/>
      <point x="220" y="300"/>
      <point x="221" y="315" type="curve" smooth="yes"/>
      <point x="225" y="354"/>
      <point x="229" y="402"/>
      <point x="239" y="460" type="curve"/>
      <point x="239" y="460"/>
      <point x="282" y="463"/>
      <point x="321" y="470" type="curve"/>
      <point x="321" y="438"/>
      <point x="323" y="399"/>
      <point x="323" y="361" type="curve" smooth="yes"/>
      <point x="323" y="336"/>
      <point x="322" y="270"/>
      <point x="320" y="239" type="curve"/>
      <point x="333" y="239"/>
      <point x="353" y="237"/>
      <point x="371" y="235" type="curve"/>
      <point x="371" y="206"/>
      <point x="370" y="183"/>
    </contour>
  </outline>
</glyph>
<glyph name="five" format="1">
  <advance width="347"/>
  <unicode hex="0035"/>
  <outline>
    <contour>
      <point x="315" y="239" type="curve" smooth="yes"/>
      <point x="315" y="105"/>
      <point x="237" y="40"/>
      <point x="72" y="-24" type="curve"/>
      <point x="59" y="0"/>
      <point x="38" y="36"/>
      <point x="20" y="59" type="curve"/>
      <point x="137" y="101"/>
      <point x="204" y="151"/>
      <point x="204" y="223" type="curve" smooth="yes"/>
      <point x="204" y="323"/>
      <point x="126" y="361"/>
      <point x="30" y="358" type="curve"/>
      <point x="35" y="432"/>
      <point x="39" y="485"/>
      <point x="42" y="550" type="curve" smooth="yes"/>
      <point x="44" y="598"/>
      <point x="45" y="642"/>
      <point x="45" y="690" type="curve"/>
      <point x="106" y="683"/>
      <point x="240" y="678"/>
      <point x="313" y="678" type="curve"/>
      <point x="303" y="639"/>
      <point x="301" y="614"/>
      <point x="296" y="574" type="curve"/>
      <point x="246" y="578"/>
      <point x="180" y="585"/>
      <point x="146" y="591" type="curve"/>
      <point x="145" y="555"/>
      <point x="139" y="476"/>
      <point x="135" y="439" type="curve"/>
      <point x="251" y="420"/>
      <point x="315" y="356"/>
    </contour>
  </outline>
</glyph>
<glyph name="six" format="1">
  <advance width="398"/>
  <unicode hex="0036"/>
  <outline>
    <contour>
      <point x="380" y="230" type="curve" smooth="yes"/>
      <point x="380" y="83"/>
      <point x="275" y="-10"/>
      <point x="190" y="-10" type="curve" smooth="yes"/>
      <point x="96" y="-10"/>
      <point x="22" y="64"/>
      <point x="22" y="307" type="curve" smooth="yes"/>
      <point x="22" y="428"/>
      <point x="119" y="590"/>
      <point x="229" y="690" type="curve"/>
      <point x="255" y="667"/>
      <point x="272" y="653"/>
      <point x="315" y="630" type="curve"/>
      <point x="227" y="554"/>
      <point x="163" y="463"/>
      <point x="142" y="383" type="curve"/>
      <point x="168" y="401"/>
      <point x="217" y="419"/>
      <point x="250" y="419" type="curve" smooth="yes"/>
      <point x="334" y="419"/>
      <point x="380" y="364"/>
    </contour>
    <contour>
      <point x="274" y="232" type="curve" smooth="yes"/>
      <point x="274" y="300"/>
      <point x="257" y="325"/>
      <point x="230" y="325" type="curve" smooth="yes"/>
      <point x="199" y="325"/>
      <point x="156" y="308"/>
      <point x="128" y="289" type="curve"/>
      <point x="130" y="135"/>
      <point x="154" y="87"/>
      <point x="205" y="87" type="curve" smooth="yes"/>
      <point x="231" y="87"/>
      <point x="274" y="140"/>
    </contour>
  </outline>
</glyph>
<glyph name="seven" format="1">
  <advance width="350"/>
  <unicode hex="0037"/>
  <outline>
    <contour>
      <point x="337" y="668" type="curve"/>
      <point x="298" y="556"/>
      <point x="184" y="101"/>
      <point x="171" y="-14" type="curve"/>
      <point x="135" y="-3"/>
      <point x="99" y="4"/>
      <point x="67" y="7" type="curve"/>
      <point x="79" y="105"/>
      <point x="184" y="493"/>
      <point x="212" y="580" type="curve"/>
      <point x="173" y="581"/>
      <point x="69" y="587"/>
      <point x="21" y="585" type="curve"/>
      <point x="20" y="624"/>
      <point x="20" y="651"/>
      <point x="15" y="681" type="curve"/>
      <point x="85" y="675"/>
      <point x="243" y="665"/>
    </contour>
  </outline>
</glyph>
<glyph name="eight" format="1">
  <advance width="393"/>
  <unicode hex="0038"/>
  <outline>
    <contour>
      <point x="373" y="240" type="curve" smooth="yes"/>
      <point x="373" y="100"/>
      <point x="290" y="-10"/>
      <point x="187" y="-10" type="curve" smooth="yes"/>
      <point x="96" y="-10"/>
      <point x="20" y="79"/>
      <point x="20" y="207" type="curve" smooth="yes"/>
      <point x="20" y="264"/>
      <point x="51" y="322"/>
      <point x="94" y="360" type="curve"/>
      <point x="55" y="394"/>
      <point x="24" y="440"/>
      <point x="24" y="502" type="curve" smooth="yes"/>
      <point x="24" y="652"/>
      <point x="149" y="683"/>
      <point x="196" y="683" type="curve" smooth="yes"/>
      <point x="278" y="683"/>
      <point x="367" y="638"/>
      <point x="367" y="499" type="curve" smooth="yes"/>
      <point x="367" y="444"/>
      <point x="336" y="388"/>
      <point x="302" y="350" type="curve"/>
      <point x="344" y="322"/>
      <point x="373" y="289"/>
    </contour>
    <contour>
      <point x="264" y="482" type="curve" smooth="yes"/>
      <point x="264" y="550"/>
      <point x="239" y="596"/>
      <point x="190" y="596" type="curve" smooth="yes"/>
      <point x="159" y="596"/>
      <point x="120" y="569"/>
      <point x="120" y="506" type="curve" smooth="yes"/>
      <point x="120" y="451"/>
      <point x="172" y="422"/>
      <point x="222" y="396" type="curve"/>
      <point x="243" y="419"/>
      <point x="264" y="457"/>
    </contour>
    <contour>
      <point x="273" y="228" type="curve" smooth="yes"/>
      <point x="273" y="257"/>
      <point x="216" y="285"/>
      <point x="167" y="311" type="curve"/>
      <point x="145" y="288"/>
      <point x="120" y="253"/>
      <point x="120" y="218" type="curve" smooth="yes"/>
      <point x="120" y="110"/>
      <point x="158" y="87"/>
      <point x="192" y="87" type="curve" smooth="yes"/>
      <point x="223" y="87"/>
      <point x="273" y="133"/>
    </contour>
  </outline>
</glyph>
<glyph name="nine" format="1">
  <advance width="369"/>
  <unicode hex="0039"/>
  <outline>
    <contour>
      <point x="348" y="457" type="curve" smooth="yes"/>
      <point x="348" y="217"/>
      <point x="244" y="81"/>
      <point x="167" y="-25" type="curve"/>
      <point x="131" y="-14"/>
      <point x="109" y="6"/>
      <point x="71" y="27" type="curve"/>
      <point x="133" y="96"/>
      <point x="174" y="157"/>
      <point x="202" y="234" type="curve"/>
      <point x="58" y="290"/>
      <point x="11" y="382"/>
      <point x="11" y="474" type="curve" smooth="yes"/>
      <point x="11" y="606"/>
      <point x="103" y="683"/>
      <point x="189" y="683" type="curve" smooth="yes"/>
      <point x="287" y="683"/>
      <point x="348" y="606"/>
    </contour>
    <contour>
      <point x="241" y="450" type="curve" smooth="yes"/>
      <point x="241" y="526"/>
      <point x="223" y="586"/>
      <point x="181" y="586" type="curve" smooth="yes"/>
      <point x="144" y="586"/>
      <point x="117" y="547"/>
      <point x="117" y="471" type="curve" smooth="yes"/>
      <point x="117" y="406"/>
      <point x="158" y="356"/>
      <point x="228" y="328" type="curve"/>
      <point x="237" y="361"/>
      <point x="241" y="408"/>
    </contour>
  </outline>
</glyph>
<glyph name="colon" format="1">
  <advance width="176"/>
  <unicode hex="003A"/>
  <outline>
    <contour>
      <point x="154" y="399" type="curve" smooth="yes"/>
      <point x="154" y="367"/>
      <point x="131" y="338"/>
      <point x="91" y="338" type="curve" smooth="yes"/>
      <point x="53" y="338"/>
      <point x="21" y="364"/>
      <point x="21" y="399" type="curve" smooth="yes"/>
      <point x="21" y="436"/>
      <point x="50" y="459"/>
      <point x="90" y="459" type="curve" smooth="yes"/>
      <point x="126" y="459"/>
      <point x="154" y="433"/>
    </contour>
    <contour>
      <point x="154" y="55" type="curve" smooth="yes"/>
      <point x="154" y="23"/>
      <point x="131" y="-6"/>
      <point x="91" y="-6" type="curve" smooth="yes"/>
      <point x="53" y="-6"/>
      <point x="21" y="20"/>
      <point x="21" y="56" type="curve" smooth="yes"/>
      <point x="21" y="92"/>
      <point x="50" y="115"/>
      <point x="90" y="115" type="curve" smooth="yes"/>
      <point x="126" y="115"/>
      <point x="154" y="90"/>
    </contour>
  </outline>
</glyph>
<glyph name="semicolon" format="1">
  <advance width="176"/>
  <unicode hex="003B"/>
  <outline>
    <contour>
      <point x="155" y="399" type="curve" smooth="yes"/>
      <point x="155" y="366"/>
      <point x="132" y="337"/>
      <point x="92" y="337" type="curve" smooth="yes"/>
      <point x="54" y="337"/>
      <point x="22" y="363"/>
      <point x="22" y="399" type="curve" smooth="yes"/>
      <point x="22" y="436"/>
      <point x="52" y="459"/>
      <point x="91" y="459" type="curve" smooth="yes"/>
      <point x="127" y="459"/>
      <point x="155" y="433"/>
    </contour>
    <contour>
      <point x="149" y="16" type="curve" smooth="yes"/>
      <point x="149" y="-43"/>
      <point x="126" y="-105"/>
      <point x="84" y="-137" type="curve"/>
      <point x="13" y="-108" type="line"/>
      <point x="33" y="-87"/>
      <point x="45" y="-46"/>
      <point x="46" y="-4" type="curve" smooth="yes"/>
      <point x="46" y="29"/>
      <point x="39" y="62"/>
      <point x="23" y="88" type="curve"/>
      <point x="69" y="90"/>
      <point x="91" y="95"/>
      <point x="133" y="102" type="curve"/>
      <point x="143" y="75"/>
      <point x="149" y="46"/>
    </contour>
  </outline>
</glyph>
<glyph name="less" format="1">
  <advance width="278"/>
  <unicode hex="003C"/>
  <outline>
    <contour>
      <point x="262" y="139" type="curve"/>
      <point x="232" y="124"/>
      <point x="206" y="104"/>
      <point x="181" y="83" type="curve"/>
      <point x="149" y="124"/>
      <point x="37" y="261"/>
      <point x="13" y="283" type="curve"/>
      <point x="13" y="349" type="line"/>
      <point x="50" y="392"/>
      <point x="136" y="512"/>
      <point x="155" y="546" type="curve"/>
      <point x="181" y="524"/>
      <point x="212" y="508"/>
      <point x="242" y="495" type="curve"/>
      <point x="216" y="461"/>
      <point x="146" y="355"/>
      <point x="123" y="315" type="curve"/>
      <point x="149" y="279"/>
      <point x="235" y="168"/>
    </contour>
  </outline>
</glyph>
<glyph name="equal" format="1">
  <advance width="330"/>
  <unicode hex="003D"/>
  <outline>
    <contour>
      <point x="316" y="446" type="curve"/>
      <point x="313" y="408"/>
      <point x="310" y="380"/>
      <point x="310" y="352" type="curve"/>
      <point x="253" y="351"/>
      <point x="61" y="350"/>
      <point x="21" y="345" type="curve"/>
      <point x="21" y="384"/>
      <point x="23" y="413"/>
      <point x="14" y="450" type="curve"/>
      <point x="64" y="444"/>
      <point x="261" y="442"/>
    </contour>
    <contour>
      <point x="317" y="284" type="curve"/>
      <point x="309" y="245"/>
      <point x="311" y="217"/>
      <point x="311" y="179" type="curve"/>
      <point x="271" y="183"/>
      <point x="78" y="184"/>
      <point x="22" y="185" type="curve"/>
      <point x="22" y="213"/>
      <point x="19" y="240"/>
      <point x="15" y="279" type="curve"/>
      <point x="70" y="275"/>
      <point x="267" y="278"/>
    </contour>
  </outline>
</glyph>
<glyph name="greater" format="1">
  <advance width="278"/>
  <unicode hex="003E"/>
  <outline>
    <contour>
      <point x="263" y="282" type="line"/>
      <point x="226" y="240"/>
      <point x="140" y="120"/>
      <point x="122" y="86" type="curve"/>
      <point x="95" y="107"/>
      <point x="64" y="123"/>
      <point x="34" y="137" type="curve"/>
      <point x="60" y="171"/>
      <point x="130" y="276"/>
      <point x="153" y="317" type="curve"/>
      <point x="127" y="353"/>
      <point x="40" y="466"/>
      <point x="13" y="493" type="curve"/>
      <point x="45" y="508"/>
      <point x="70" y="527"/>
      <point x="96" y="549" type="curve"/>
      <point x="127" y="507"/>
      <point x="239" y="371"/>
      <point x="263" y="349" type="curve"/>
    </contour>
  </outline>
</glyph>
<glyph name="question" format="1">
  <advance width="307"/>
  <unicode hex="003F"/>
  <outline>
    <contour>
      <point x="279" y="511" type="curve" smooth="yes"/>
      <point x="279" y="449"/>
      <point x="240" y="368"/>
      <point x="169" y="259" type="curve"/>
      <point x="196" y="180" type="line"/>
      <point x="102" y="151" type="line"/>
      <point x="63" y="270" type="line"/>
      <point x="124" y="358"/>
      <point x="162" y="424"/>
      <point x="162" y="470" type="curve" smooth="yes"/>
      <point x="162" y="525"/>
      <point x="115" y="557"/>
      <point x="23" y="574" type="curve"/>
      <point x="40" y="603"/>
      <point x="51" y="641"/>
      <point x="62" y="669" type="curve"/>
      <point x="213" y="639"/>
      <point x="279" y="592"/>
    </contour>
    <contour>
      <point x="205" y="56" type="curve" smooth="yes"/>
      <point x="205" y="24"/>
      <point x="183" y="-6"/>
      <point x="143" y="-6" type="curve" smooth="yes"/>
      <point x="105" y="-6"/>
      <point x="73" y="20"/>
      <point x="73" y="57" type="curve" smooth="yes"/>
      <point x="73" y="94"/>
      <point x="103" y="117"/>
      <point x="141" y="117" type="curve" smooth="yes"/>
      <point x="177" y="117"/>
      <point x="205" y="92"/>
    </contour>
  </outline>
</glyph>
<glyph name="at" format="1">
  <advance width="613"/>
  <unicode hex="0040"/>
  <outline>
    <contour>
      <point x="588" y="322" type="curve" smooth="yes"/>
      <point x="588" y="170"/>
      <point x="500" y="137"/>
      <point x="443" y="137" type="curve" smooth="yes"/>
      <point x="393" y="137"/>
      <point x="357" y="163"/>
      <point x="345" y="210" type="curve"/>
      <point x="329" y="196"/>
      <point x="285" y="170"/>
      <point x="258" y="170" type="curve" smooth="yes"/>
      <point x="230" y="170"/>
      <point x="185" y="206"/>
      <point x="185" y="275" type="curve" smooth="yes"/>
      <point x="185" y="310"/>
      <point x="201" y="341"/>
      <point x="233" y="357" type="curve" smooth="yes"/>
      <point x="272" y="376"/>
      <point x="314" y="387"/>
      <point x="333" y="392" type="curve"/>
      <point x="333" y="416"/>
      <point x="330" y="430"/>
      <point x="320" y="434" type="curve" smooth="yes"/>
      <point x="305" y="440"/>
      <point x="282" y="444"/>
      <point x="242" y="444" type="curve"/>
      <point x="242" y="444"/>
      <point x="248" y="482"/>
      <point x="248" y="511" type="curve"/>
      <point x="301" y="507"/>
      <point x="342" y="501"/>
      <point x="369" y="485" type="curve" smooth="yes"/>
      <point x="395" y="469"/>
      <point x="404" y="435"/>
      <point x="404" y="413" type="curve" smooth="yes"/>
      <point x="404" y="409"/>
      <point x="404" y="312"/>
      <point x="404" y="247" type="curve" smooth="yes"/>
      <point x="404" y="214"/>
      <point x="421" y="197"/>
      <point x="446" y="197" type="curve" smooth="yes"/>
      <point x="480" y="197"/>
      <point x="516" y="219"/>
      <point x="516" y="324" type="curve" smooth="yes"/>
      <point x="516" y="482"/>
      <point x="412" y="606"/>
      <point x="299" y="606" type="curve" smooth="yes"/>
      <point x="181" y="606"/>
      <point x="100" y="480"/>
      <point x="100" y="355" type="curve" smooth="yes"/>
      <point x="100" y="214"/>
      <point x="177" y="49"/>
      <point x="285" y="49" type="curve" smooth="yes"/>
      <point x="329" y="49"/>
      <point x="372" y="62"/>
      <point x="409" y="83" type="curve"/>
      <point x="443" y="34" type="line"/>
      <point x="400" y="7"/>
      <point x="339" y="-15"/>
      <point x="272" y="-15" type="curve" smooth="yes"/>
      <point x="131" y="-15"/>
      <point x="25" y="193"/>
      <point x="25" y="348" type="curve" smooth="yes"/>
      <point x="25" y="495"/>
      <point x="125" y="670"/>
      <point x="288" y="670" type="curve" smooth="yes"/>
      <point x="442" y="670"/>
      <point x="588" y="525"/>
    </contour>
    <contour>
      <point x="334" y="337" type="curve"/>
      <point x="329" y="334"/>
      <point x="296" y="324"/>
      <point x="287" y="320" type="curve" smooth="yes"/>
      <point x="274" y="313"/>
      <point x="257" y="299"/>
      <point x="257" y="279" type="curve" smooth="yes"/>
      <point x="258" y="254"/>
      <point x="266" y="237"/>
      <point x="282" y="237" type="curve" smooth="yes"/>
      <point x="303" y="237"/>
      <point x="327" y="260"/>
      <point x="332" y="265" type="curve"/>
      <point x="333" y="271"/>
      <point x="334" y="329"/>
    </contour>
  </outline>
</glyph>
<glyph name="B" format="1">
  <advance width="391"/>
  <unicode hex="0042"/>
  <outline>
    <contour>
      <point x="371" y="208" type="curve" smooth="yes"/>
      <point x="371" y="106"/>
      <point x="297" y="3"/>
      <point x="146" y="3" type="curve" smooth="yes"/>
      <point x="125" y="3"/>
      <point x="78" y="5"/>
      <point x="37" y="5" type="curve"/>
      <point x="45" y="85"/>
      <point x="42" y="341"/>
      <point x="41" y="374" type="curve" smooth="yes"/>
      <point x="40" y="426"/>
      <point x="40" y="466"/>
      <point x="39" y="515" type="curve" smooth="yes"/>
      <point x="38" y="568"/>
      <point x="37" y="632"/>
      <point x="33" y="664" type="curve"/>
      <point x="62" y="664"/>
      <point x="92" y="666"/>
      <point x="133" y="666" type="curve" smooth="yes"/>
      <point x="257" y="666"/>
      <point x="353" y="587"/>
      <point x="353" y="499" type="curve" smooth="yes"/>
      <point x="353" y="399"/>
      <point x="313" y="365"/>
      <point x="273" y="346" type="curve"/>
      <point x="320" y="322"/>
      <point x="371" y="279"/>
    </contour>
    <contour>
      <point x="248" y="475" type="curve" smooth="yes"/>
      <point x="248" y="535"/>
      <point x="204" y="568"/>
      <point x="146" y="571" type="curve"/>
      <point x="145" y="546"/>
      <point x="145" y="425"/>
      <point x="145" y="386" type="curve"/>
      <point x="196" y="381"/>
      <point x="248" y="404"/>
    </contour>
    <contour>
      <point x="257" y="203" type="curve" smooth="yes"/>
      <point x="257" y="262"/>
      <point x="213" y="306"/>
      <point x="146" y="307" type="curve"/>
      <point x="144" y="279"/>
      <point x="145" y="232"/>
      <point x="145" y="190" type="curve" smooth="yes"/>
      <point x="145" y="153"/>
      <point x="145" y="131"/>
      <point x="146" y="94" type="curve"/>
      <point x="155" y="92"/>
      <point x="172" y="92"/>
      <point x="172" y="92" type="curve" smooth="yes"/>
      <point x="223" y="88"/>
      <point x="257" y="134"/>
    </contour>
  </outline>
</glyph>
<glyph name="C" format="1">
  <advance width="356"/>
  <unicode hex="0043"/>
  <outline>
    <contour>
      <point x="337" y="90" type="curve"/>
      <point x="329" y="57"/>
      <point x="325" y="32"/>
      <point x="321" y="-7" type="curve"/>
      <point x="81" y="44"/>
      <point x="26" y="140"/>
      <point x="26" y="347" type="curve" smooth="yes"/>
      <point x="26" y="520"/>
      <point x="119" y="671"/>
      <point x="282" y="671" type="curve" smooth="yes"/>
      <point x="297" y="671"/>
      <point x="312" y="670"/>
      <point x="328" y="667" type="curve"/>
      <point x="325" y="639"/>
      <point x="326" y="616"/>
      <point x="329" y="587" type="curve"/>
      <point x="230" y="586"/>
      <point x="139" y="539"/>
      <point x="139" y="345" type="curve" smooth="yes"/>
      <point x="139" y="181"/>
      <point x="183" y="117"/>
    </contour>
  </outline>
</glyph>
<glyph name="D" format="1">
  <advance width="439"/>
  <unicode hex="0044"/>
  <outline>
    <contour>
      <point x="413" y="381" type="curve" smooth="yes"/>
      <point x="413" y="141"/>
      <point x="278" y="-2"/>
      <point x="145" y="-2" type="curve" smooth="yes"/>
      <point x="106" y="-2"/>
      <point x="65" y="6"/>
      <point x="31" y="16" type="curve"/>
      <point x="40" y="63"/>
      <point x="41" y="340"/>
      <point x="41" y="394" type="curve" smooth="yes"/>
      <point x="41" y="496"/>
      <point x="38" y="620"/>
      <point x="34" y="664" type="curve"/>
      <point x="73" y="674"/>
      <point x="110" y="675"/>
      <point x="138" y="675" type="curve" smooth="yes"/>
      <point x="302" y="675"/>
      <point x="413" y="596"/>
    </contour>
    <contour>
      <point x="300" y="377" type="curve" smooth="yes"/>
      <point x="300" y="553"/>
      <point x="233" y="575"/>
      <point x="148" y="579" type="curve"/>
      <point x="148" y="425"/>
      <point x="146" y="214"/>
      <point x="150" y="96" type="curve"/>
      <point x="154" y="96"/>
      <point x="158" y="95"/>
      <point x="162" y="95" type="curve" smooth="yes"/>
      <point x="249" y="95"/>
      <point x="300" y="238"/>
    </contour>
  </outline>
</glyph>
<glyph name="E" format="1">
  <advance width="380"/>
  <unicode hex="0045"/>
  <outline>
    <contour>
      <point x="351" y="97" type="curve"/>
      <point x="348" y="70"/>
      <point x="341" y="31"/>
      <point x="335" y="-6" type="curve"/>
      <point x="310" y="-2"/>
      <point x="258" y="-2"/>
      <point x="219" y="-1" type="curve" smooth="yes"/>
      <point x="152" y="1"/>
      <point x="79" y="4"/>
      <point x="31" y="5" type="curve"/>
      <point x="34" y="58"/>
      <point x="40" y="191"/>
      <point x="42" y="301" type="curve" smooth="yes"/>
      <point x="45" y="437"/>
      <point x="41" y="599"/>
      <point x="40" y="660" type="curve"/>
      <point x="75" y="663"/>
      <point x="140" y="666"/>
      <point x="163" y="666" type="curve" smooth="yes"/>
      <point x="196" y="666"/>
      <point x="307" y="662"/>
      <point x="348" y="662" type="curve"/>
      <point x="339" y="630"/>
      <point x="334" y="591"/>
      <point x="331" y="559" type="curve"/>
      <point x="297" y="564"/>
      <point x="229" y="567"/>
      <point x="194" y="570" type="curve" smooth="yes"/>
      <point x="179" y="571"/>
      <point x="161" y="570"/>
      <point x="151" y="571" type="curve"/>
      <point x="150" y="509"/>
      <point x="152" y="464"/>
      <point x="152" y="404" type="curve"/>
      <point x="170" y="402"/>
      <point x="194" y="404"/>
      <point x="211" y="404" type="curve"/>
      <point x="221" y="405"/>
      <point x="282" y="409"/>
      <point x="315" y="409" type="curve"/>
      <point x="315" y="381"/>
      <point x="313" y="343"/>
      <point x="313" y="307" type="curve"/>
      <point x="280" y="307"/>
      <point x="244" y="311"/>
      <point x="214" y="313" type="curve" smooth="yes"/>
      <point x="194" y="314"/>
      <point x="166" y="314"/>
      <point x="152" y="317" type="curve"/>
      <point x="149" y="259"/>
      <point x="152" y="166"/>
      <point x="153" y="102" type="curve"/>
      <point x="168" y="99"/>
      <point x="192" y="100"/>
      <point x="198" y="100" type="curve" smooth="yes"/>
      <point x="207" y="100"/>
      <point x="306" y="95"/>
    </contour>
  </outline>
</glyph>
<glyph name="F" format="1">
  <advance width="326"/>
  <unicode hex="0046"/>
  <outline>
    <contour>
      <point x="297" y="566" type="curve"/>
      <point x="244" y="566"/>
      <point x="184" y="568"/>
      <point x="148" y="569" type="curve"/>
      <point x="149" y="554"/>
      <point x="151" y="526"/>
      <point x="152" y="503" type="curve" smooth="yes"/>
      <point x="153" y="461"/>
      <point x="154" y="410"/>
      <point x="152" y="379" type="curve"/>
      <point x="171" y="379"/>
      <point x="203" y="382"/>
      <point x="224" y="382" type="curve" smooth="yes"/>
      <point x="243" y="382"/>
      <point x="292" y="381"/>
      <point x="292" y="381" type="curve"/>
      <point x="292" y="381"/>
      <point x="280" y="324"/>
      <point x="279" y="286" type="curve"/>
      <point x="254" y="289"/>
      <point x="235" y="290"/>
      <point x="218" y="291" type="curve" smooth="yes"/>
      <point x="198" y="292"/>
      <point x="175" y="292"/>
      <point x="155" y="294" type="curve"/>
      <point x="152" y="276"/>
      <point x="152" y="254"/>
      <point x="152" y="227" type="curve" smooth="yes"/>
      <point x="152" y="145"/>
      <point x="148" y="74"/>
      <point x="151" y="-1" type="curve"/>
      <point x="117" y="6"/>
      <point x="67" y="13"/>
      <point x="30" y="16" type="curve"/>
      <point x="35" y="113"/>
      <point x="42" y="307"/>
      <point x="42" y="484" type="curve" smooth="yes"/>
      <point x="42" y="548"/>
      <point x="39" y="601"/>
      <point x="37" y="661" type="curve"/>
      <point x="107" y="661"/>
      <point x="242" y="660"/>
      <point x="294" y="663" type="curve"/>
      <point x="294" y="631"/>
      <point x="294" y="603"/>
    </contour>
  </outline>
</glyph>
<glyph name="G" format="1">
  <advance width="430"/>
  <unicode hex="0047"/>
  <outline>
    <contour>
      <point x="397" y="376" type="curve"/>
      <point x="394" y="322"/>
      <point x="385" y="152"/>
      <point x="385" y="27" type="curve"/>
      <point x="347" y="3"/>
      <point x="285" y="-6"/>
      <point x="261" y="-6" type="curve" smooth="yes"/>
      <point x="129" y="-6"/>
      <point x="25" y="87"/>
      <point x="25" y="339" type="curve" smooth="yes"/>
      <point x="25" y="622"/>
      <point x="189" y="652"/>
      <point x="374" y="660" type="curve"/>
      <point x="378" y="628"/>
      <point x="382" y="604"/>
      <point x="392" y="562" type="curve"/>
      <point x="378" y="563"/>
      <point x="363" y="564"/>
      <point x="349" y="564" type="curve" smooth="yes"/>
      <point x="244" y="564"/>
      <point x="136" y="528"/>
      <point x="136" y="338" type="curve" smooth="yes"/>
      <point x="136" y="172"/>
      <point x="182" y="94"/>
      <point x="273" y="94" type="curve" smooth="yes"/>
      <point x="279" y="94"/>
      <point x="282" y="95"/>
      <point x="286" y="97" type="curve"/>
      <point x="284" y="152"/>
      <point x="283" y="252"/>
      <point x="280" y="287" type="curve"/>
      <point x="263" y="287"/>
      <point x="237" y="293"/>
      <point x="221" y="295" type="curve"/>
      <point x="222" y="332"/>
      <point x="224" y="357"/>
      <point x="221" y="391" type="curve"/>
      <point x="278" y="387"/>
      <point x="342" y="379"/>
    </contour>
  </outline>
</glyph>
<glyph name="H" format="1">
  <advance width="430"/>
  <unicode hex="0048"/>
  <outline>
    <contour>
      <point x="390" y="28" type="line"/>
      <point x="356" y="27"/>
      <point x="313" y="25"/>
      <point x="270" y="19" type="curve"/>
      <point x="277" y="57"/>
      <point x="277" y="90"/>
      <point x="278" y="124" type="curve" smooth="yes"/>
      <point x="280" y="182"/>
      <point x="282" y="231"/>
      <point x="281" y="275" type="curve"/>
      <point x="261" y="275"/>
      <point x="175" y="274"/>
      <point x="152" y="276" type="curve"/>
      <point x="153" y="240"/>
      <point x="152" y="78"/>
      <point x="147" y="-4" type="curve"/>
      <point x="112" y="7"/>
      <point x="64" y="14"/>
      <point x="32" y="21" type="curve"/>
      <point x="36" y="79"/>
      <point x="40" y="154"/>
      <point x="40" y="202" type="curve" smooth="yes"/>
      <point x="40" y="334"/>
      <point x="41" y="448"/>
      <point x="38" y="540" type="curve" smooth="yes"/>
      <point x="36" y="581"/>
      <point x="35" y="637"/>
      <point x="31" y="666" type="curve"/>
      <point x="72" y="661"/>
      <point x="121" y="661"/>
      <point x="162" y="665" type="curve"/>
      <point x="156" y="631"/>
      <point x="152" y="427"/>
      <point x="153" y="365" type="curve"/>
      <point x="175" y="363"/>
      <point x="262" y="364"/>
      <point x="282" y="367" type="curve"/>
      <point x="282" y="374"/>
      <point x="282" y="387"/>
      <point x="281" y="392" type="curve"/>
      <point x="278" y="432"/>
      <point x="279" y="569"/>
      <point x="279" y="585" type="curve" smooth="yes"/>
      <point x="279" y="601"/>
      <point x="277" y="636"/>
      <point x="274" y="653" type="curve"/>
      <point x="301" y="654"/>
      <point x="358" y="656"/>
      <point x="390" y="660" type="curve"/>
    </contour>
  </outline>
</glyph>
<glyph name="I" format="1">
  <advance width="189"/>
  <unicode hex="0049"/>
  <outline>
    <contour>
      <point x="157" y="657" type="curve"/>
      <point x="154" y="585"/>
      <point x="145" y="234"/>
      <point x="148" y="-15" type="curve"/>
      <point x="102" y="-5"/>
      <point x="76" y="-4"/>
      <point x="42" y="-4" type="curve"/>
      <point x="43" y="101"/>
      <point x="41" y="493"/>
      <point x="37" y="672" type="curve"/>
      <point x="79" y="663"/>
      <point x="114" y="660"/>
    </contour>
  </outline>
</glyph>
<glyph name="J" format="1">
  <advance width="188"/>
  <unicode hex="004A"/>
  <outline>
    <contour>
      <point x="149" y="126" type="curve" smooth="yes"/>
      <point x="149" y="-56"/>
      <point x="125" y="-123"/>
      <point x="-13" y="-185" type="curve"/>
      <point x="-21" y="-154"/>
      <point x="-34" y="-126"/>
      <point x="-48" y="-99" type="curve"/>
      <point x="42" y="-63"/>
      <point x="45" y="3"/>
      <point x="45" y="128" type="curve" smooth="yes"/>
      <point x="45" y="205"/>
      <point x="45" y="266"/>
      <point x="43" y="354" type="curve" smooth="yes"/>
      <point x="41" y="472"/>
      <point x="35" y="610"/>
      <point x="34" y="674" type="curve"/>
      <point x="75" y="666"/>
      <point x="109" y="662"/>
      <point x="146" y="661" type="curve"/>
      <point x="145" y="609"/>
      <point x="148" y="493"/>
      <point x="148" y="399" type="curve" smooth="yes"/>
      <point x="148" y="242"/>
      <point x="149" y="171"/>
    </contour>
  </outline>
</glyph>
<glyph name="K" format="1">
  <advance width="426"/>
  <unicode hex="004B"/>
  <outline>
    <contour>
      <point x="421" y="54" type="curve"/>
      <point x="387" y="34"/>
      <point x="360" y="19"/>
      <point x="319" y="-8" type="curve"/>
      <point x="286" y="71"/>
      <point x="224" y="218"/>
      <point x="181" y="307" type="curve"/>
      <point x="173" y="293"/>
      <point x="159" y="273"/>
      <point x="152" y="261" type="curve"/>
      <point x="152" y="172"/>
      <point x="153" y="79"/>
      <point x="155" y="11" type="curve"/>
      <point x="116" y="10"/>
      <point x="80" y="6"/>
      <point x="34" y="3" type="curve"/>
      <point x="37" y="76"/>
      <point x="46" y="424"/>
      <point x="44" y="666" type="curve"/>
      <point x="85" y="666"/>
      <point x="113" y="671"/>
      <point x="155" y="674" type="curve"/>
      <point x="155" y="621"/>
      <point x="154" y="510"/>
      <point x="153" y="408" type="curve"/>
      <point x="208" y="499"/>
      <point x="276" y="620"/>
      <point x="310" y="686" type="curve"/>
      <point x="344" y="661"/>
      <point x="364" y="652"/>
      <point x="405" y="630" type="curve"/>
      <point x="368" y="579"/>
      <point x="313" y="490"/>
      <point x="256" y="402" type="curve"/>
      <point x="292" y="314"/>
      <point x="356" y="177"/>
    </contour>
  </outline>
</glyph>
<glyph name="L" format="1">
  <advance width="351"/>
  <unicode hex="004C"/>
  <outline>
    <contour>
      <point x="344" y="97" type="curve"/>
      <point x="335" y="58"/>
      <point x="331" y="34"/>
      <point x="322" y="-8" type="curve"/>
      <point x="295" y="-4"/>
      <point x="253" y="-2"/>
      <point x="219" y="0" type="curve" smooth="yes"/>
      <point x="155" y="4"/>
      <point x="73" y="5"/>
      <point x="35" y="8" type="curve"/>
      <point x="42" y="86"/>
      <point x="45" y="313"/>
      <point x="42" y="499" type="curve" smooth="yes"/>
      <point x="41" y="556"/>
      <point x="42" y="618"/>
      <point x="37" y="660" type="curve"/>
      <point x="78" y="660"/>
      <point x="119" y="668"/>
      <point x="156" y="673" type="curve"/>
      <point x="158" y="604"/>
      <point x="156" y="184"/>
      <point x="155" y="93" type="curve"/>
      <point x="193" y="94"/>
      <point x="283" y="92"/>
    </contour>
  </outline>
</glyph>
<glyph name="M" format="1">
  <advance width="517"/>
  <unicode hex="004D"/>
  <outline>
    <contour>
      <point x="483" y="-27" type="line"/>
      <point x="448" y="-25"/>
      <point x="405" y="-20"/>
      <point x="374" y="-15" type="curve"/>
      <point x="374" y="58"/>
      <point x="376" y="353"/>
      <point x="373" y="446" type="curve"/>
      <point x="356" y="407"/>
      <point x="307" y="291"/>
      <point x="284" y="236" type="curve"/>
      <point x="261" y="241"/>
      <point x="241" y="246"/>
      <point x="221" y="247" type="curve"/>
      <point x="195" y="313"/>
      <point x="160" y="410"/>
      <point x="144" y="445" type="curve"/>
      <point x="140" y="355"/>
      <point x="136" y="108"/>
      <point x="140" y="15" type="curve"/>
      <point x="102" y="14"/>
      <point x="74" y="8"/>
      <point x="35" y="0" type="curve"/>
      <point x="35" y="63"/>
      <point x="45" y="313"/>
      <point x="50" y="525" type="curve" smooth="yes"/>
      <point x="51" y="573"/>
      <point x="51" y="628"/>
      <point x="52" y="663" type="curve"/>
      <point x="84" y="663"/>
      <point x="123" y="665"/>
      <point x="148" y="666" type="curve"/>
      <point x="155" y="648"/>
      <point x="169" y="614"/>
      <point x="179" y="591" type="curve" smooth="yes"/>
      <point x="208" y="521"/>
      <point x="238" y="441"/>
      <point x="261" y="387" type="curve"/>
      <point x="281" y="434"/>
      <point x="308" y="499"/>
      <point x="328" y="556" type="curve" smooth="yes"/>
      <point x="340" y="589"/>
      <point x="355" y="632"/>
      <point x="364" y="654" type="curve"/>
      <point x="393" y="659"/>
      <point x="420" y="664"/>
      <point x="462" y="676" type="curve"/>
    </contour>
  </outline>
</glyph>
<glyph name="N" format="1">
  <advance width="438"/>
  <unicode hex="004E"/>
  <outline>
    <contour>
      <point x="396" y="4" type="line"/>
      <point x="358" y="7"/>
      <point x="332" y="8"/>
      <point x="301" y="11" type="curve"/>
      <point x="285" y="69"/>
      <point x="179" y="313"/>
      <point x="143" y="393" type="curve"/>
      <point x="141" y="365"/>
      <point x="142" y="316"/>
      <point x="142" y="282" type="curve" smooth="yes"/>
      <point x="141" y="180"/>
      <point x="143" y="4"/>
      <point x="143" y="4" type="curve"/>
      <point x="113" y="11"/>
      <point x="69" y="16"/>
      <point x="27" y="19" type="curve"/>
      <point x="31" y="70"/>
      <point x="42" y="234"/>
      <point x="43" y="363" type="curve" smooth="yes"/>
      <point x="44" y="475"/>
      <point x="38" y="614"/>
      <point x="37" y="665" type="curve"/>
      <point x="66" y="665"/>
      <point x="107" y="668"/>
      <point x="134" y="673" type="curve"/>
      <point x="139" y="638"/>
      <point x="245" y="391"/>
      <point x="295" y="290" type="curve"/>
      <point x="295" y="317"/>
      <point x="298" y="470"/>
      <point x="294" y="557" type="curve" smooth="yes"/>
      <point x="293" y="590"/>
      <point x="290" y="628"/>
      <point x="285" y="655" type="curve"/>
      <point x="326" y="657"/>
      <point x="359" y="661"/>
      <point x="396" y="669" type="curve"/>
    </contour>
  </outline>
</glyph>
<glyph name="O" format="1">
  <advance width="459"/>
  <unicode hex="004F"/>
  <outline>
    <contour>
      <point x="433" y="346" type="curve" smooth="yes"/>
      <point x="433" y="93"/>
      <point x="303" y="-6"/>
      <point x="217" y="-6" type="curve" smooth="yes"/>
      <point x="124" y="-6"/>
      <point x="26" y="107"/>
      <point x="26" y="344" type="curve" smooth="yes"/>
      <point x="26" y="576"/>
      <point x="81" y="670"/>
      <point x="220" y="670" type="curve" smooth="yes"/>
      <point x="327" y="670"/>
      <point x="433" y="595"/>
    </contour>
    <contour>
      <point x="320" y="343" type="curve" smooth="yes"/>
      <point x="320" y="542"/>
      <point x="264" y="573"/>
      <point x="209" y="573" type="curve" smooth="yes"/>
      <point x="159" y="573"/>
      <point x="140" y="494"/>
      <point x="140" y="350" type="curve" smooth="yes"/>
      <point x="140" y="185"/>
      <point x="173" y="94"/>
      <point x="230" y="94" type="curve" smooth="yes"/>
      <point x="275" y="94"/>
      <point x="320" y="212"/>
    </contour>
  </outline>
</glyph>
<glyph name="P" format="1">
  <advance width="389"/>
  <unicode hex="0050"/>
  <outline>
    <contour>
      <point x="377" y="470" type="curve" smooth="yes"/>
      <point x="377" y="383"/>
      <point x="278" y="269"/>
      <point x="153" y="259" type="curve"/>
      <point x="153" y="184"/>
      <point x="154" y="85"/>
      <point x="160" y="28" type="curve"/>
      <point x="116" y="12"/>
      <point x="45" y="-2"/>
      <point x="45" y="-2" type="curve"/>
      <point x="45" y="79"/>
      <point x="48" y="253"/>
      <point x="45" y="424" type="curve" smooth="yes"/>
      <point x="43" y="510"/>
      <point x="36" y="624"/>
      <point x="28" y="656" type="curve"/>
      <point x="65" y="666"/>
      <point x="98" y="669"/>
      <point x="127" y="670" type="curve" smooth="yes"/>
      <point x="263" y="675"/>
      <point x="377" y="630"/>
    </contour>
    <contour>
      <point x="266" y="476" type="curve" smooth="yes"/>
      <point x="266" y="550"/>
      <point x="224" y="574"/>
      <point x="147" y="574" type="curve"/>
      <point x="148" y="546"/>
      <point x="150" y="501"/>
      <point x="151" y="464" type="curve" smooth="yes"/>
      <point x="152" y="435"/>
      <point x="154" y="385"/>
      <point x="154" y="357" type="curve"/>
      <point x="219" y="360"/>
      <point x="266" y="417"/>
    </contour>
  </outline>
</glyph>
<glyph name="Q" format="1">
  <advance width="458"/>
  <unicode hex="0051"/>
  <outline>
    <contour>
      <point x="432" y="366" type="curve" smooth="yes"/>
      <point x="432" y="226"/>
      <point x="384" y="88"/>
      <point x="320" y="30" type="curve"/>
      <point x="342" y="-6"/>
      <point x="372" y="-52"/>
      <point x="410" y="-97" type="curve"/>
      <point x="374" y="-116"/>
      <point x="349" y="-134"/>
      <point x="307" y="-164" type="curve"/>
      <point x="273" y="-99"/>
      <point x="239" y="-39"/>
      <point x="213" y="3" type="curve"/>
      <point x="93" y="30"/>
      <point x="24" y="198"/>
      <point x="24" y="373" type="curve" smooth="yes"/>
      <point x="24" y="547"/>
      <point x="103" y="670"/>
      <point x="237" y="670" type="curve" smooth="yes"/>
      <point x="333" y="670"/>
      <point x="432" y="619"/>
    </contour>
    <contour>
      <point x="319" y="363" type="curve" smooth="yes"/>
      <point x="319" y="519"/>
      <point x="284" y="571"/>
      <point x="224" y="571" type="curve" smooth="yes"/>
      <point x="160" y="571"/>
      <point x="139" y="490"/>
      <point x="139" y="379" type="curve" smooth="yes"/>
      <point x="139" y="213"/>
      <point x="179" y="95"/>
      <point x="236" y="95" type="curve" smooth="yes"/>
      <point x="273" y="95"/>
      <point x="319" y="155"/>
    </contour>
  </outline>
</glyph>
<glyph name="R" format="1">
  <advance width="413"/>
  <unicode hex="0052"/>
  <outline>
    <contour>
      <point x="407" y="35" type="curve"/>
      <point x="374" y="25"/>
      <point x="337" y="6"/>
      <point x="304" y="-5" type="curve"/>
      <point x="269" y="84"/>
      <point x="207" y="218"/>
      <point x="177" y="277" type="curve"/>
      <point x="177" y="277"/>
      <point x="154" y="273"/>
      <point x="143" y="271" type="curve"/>
      <point x="144" y="265"/>
      <point x="144" y="241"/>
      <point x="145" y="203" type="curve" smooth="yes"/>
      <point x="146" y="134"/>
      <point x="149" y="65"/>
      <point x="154" y="17" type="curve"/>
      <point x="118" y="14"/>
      <point x="62" y="5"/>
      <point x="36" y="5" type="curve"/>
      <point x="38" y="67"/>
      <point x="40" y="163"/>
      <point x="40" y="205" type="curve" smooth="yes"/>
      <point x="40" y="227"/>
      <point x="42" y="402"/>
      <point x="42" y="490" type="curve" smooth="yes"/>
      <point x="42" y="573"/>
      <point x="43" y="682"/>
      <point x="43" y="682" type="curve"/>
      <point x="85" y="686"/>
      <point x="100" y="685"/>
      <point x="128" y="685" type="curve" smooth="yes"/>
      <point x="290" y="685"/>
      <point x="363" y="611"/>
      <point x="363" y="518" type="curve" smooth="yes"/>
      <point x="363" y="434"/>
      <point x="327" y="348"/>
      <point x="271" y="313" type="curve"/>
      <point x="295" y="253"/>
      <point x="341" y="172"/>
    </contour>
    <contour>
      <point x="246" y="505" type="curve" smooth="yes"/>
      <point x="246" y="581"/>
      <point x="208" y="595"/>
      <point x="143" y="595" type="curve"/>
      <point x="144" y="546"/>
      <point x="144" y="378"/>
      <point x="145" y="355" type="curve"/>
      <point x="151" y="356"/>
      <point x="170" y="359"/>
      <point x="181" y="362" type="curve" smooth="yes"/>
      <point x="231" y="376"/>
      <point x="246" y="431"/>
    </contour>
  </outline>
</glyph>
<glyph name="S" format="1">
  <advance width="316"/>
  <unicode hex="0053"/>
  <outline>
    <contour>
      <point x="283" y="176" type="curve" smooth="yes"/>
      <point x="283" y="52"/>
      <point x="222" y="-2"/>
      <point x="31" y="-22" type="curve"/>
      <point x="33" y="20"/>
      <point x="33" y="45"/>
      <point x="30" y="85" type="curve"/>
      <point x="122" y="85"/>
      <point x="175" y="118"/>
      <point x="175" y="162" type="curve" smooth="yes"/>
      <point x="175" y="214"/>
      <point x="133" y="274"/>
      <point x="101" y="316" type="curve" smooth="yes"/>
      <point x="58" y="374"/>
      <point x="15" y="437"/>
      <point x="15" y="506" type="curve" smooth="yes"/>
      <point x="15" y="629"/>
      <point x="102" y="676"/>
      <point x="277" y="676" type="curve"/>
      <point x="275" y="645"/>
      <point x="272" y="613"/>
      <point x="276" y="579" type="curve"/>
      <point x="183" y="577"/>
      <point x="126" y="560"/>
      <point x="126" y="517" type="curve" smooth="yes"/>
      <point x="126" y="475"/>
      <point x="133" y="464"/>
      <point x="195" y="374" type="curve" smooth="yes"/>
      <point x="236" y="313"/>
      <point x="283" y="245"/>
    </contour>
  </outline>
</glyph>
<glyph name="T" format="1">
  <advance width="368"/>
  <unicode hex="0054"/>
  <outline>
    <contour>
      <point x="362" y="658" type="curve"/>
      <point x="355" y="633"/>
      <point x="349" y="582"/>
      <point x="347" y="552" type="curve"/>
      <point x="326" y="552"/>
      <point x="249" y="560"/>
      <point x="227" y="562" type="curve"/>
      <point x="229" y="520"/>
      <point x="239" y="314"/>
      <point x="241" y="171" type="curve" smooth="yes"/>
      <point x="242" y="109"/>
      <point x="243" y="65"/>
      <point x="240" y="-1" type="curve"/>
      <point x="200" y="-1"/>
      <point x="159" y="6"/>
      <point x="118" y="6" type="curve"/>
      <point x="124" y="67"/>
      <point x="128" y="170"/>
      <point x="130" y="266" type="curve" smooth="yes"/>
      <point x="133" y="381"/>
      <point x="129" y="503"/>
      <point x="129" y="572" type="curve"/>
      <point x="121" y="571"/>
      <point x="103" y="570"/>
      <point x="89" y="570" type="curve" smooth="yes"/>
      <point x="64" y="570"/>
      <point x="35" y="571"/>
      <point x="3" y="571" type="curve"/>
      <point x="13" y="598"/>
      <point x="20" y="648"/>
      <point x="20" y="673" type="curve"/>
      <point x="48" y="668"/>
      <point x="68" y="667"/>
      <point x="87" y="666" type="curve" smooth="yes"/>
      <point x="187" y="660"/>
      <point x="322" y="658"/>
    </contour>
  </outline>
</glyph>
<glyph name="U" format="1">
  <advance width="426"/>
  <unicode hex="0055"/>
  <outline>
    <contour>
      <point x="387" y="438" type="curve" smooth="yes"/>
      <point x="387" y="330"/>
      <point x="386" y="178"/>
      <point x="386" y="162" type="curve" smooth="yes"/>
      <point x="386" y="-1"/>
      <point x="278" y="-6"/>
      <point x="218" y="-6" type="curve" smooth="yes"/>
      <point x="176" y="-6"/>
      <point x="116" y="7"/>
      <point x="91" y="34" type="curve" smooth="yes"/>
      <point x="59" y="68"/>
      <point x="41" y="100"/>
      <point x="41" y="152" type="curve" smooth="yes"/>
      <point x="41" y="176"/>
      <point x="42" y="365"/>
      <point x="38" y="500" type="curve" smooth="yes"/>
      <point x="36" y="558"/>
      <point x="34" y="608"/>
      <point x="33" y="665" type="curve"/>
      <point x="79" y="663"/>
      <point x="111" y="666"/>
      <point x="152" y="671" type="curve"/>
      <point x="148" y="586"/>
      <point x="153" y="181"/>
      <point x="153" y="156" type="curve" smooth="yes"/>
      <point x="153" y="113"/>
      <point x="177" y="91"/>
      <point x="224" y="91" type="curve" smooth="yes"/>
      <point x="260" y="91"/>
      <point x="275" y="103"/>
      <point x="275" y="133" type="curve" smooth="yes"/>
      <point x="275" y="156"/>
      <point x="278" y="328"/>
      <point x="275" y="456" type="curve" smooth="yes"/>
      <point x="273" y="530"/>
      <point x="274" y="610"/>
      <point x="265" y="660" type="curve"/>
      <point x="312" y="661"/>
      <point x="348" y="663"/>
      <point x="385" y="668" type="curve"/>
      <point x="392" y="571"/>
      <point x="387" y="521"/>
    </contour>
  </outline>
</glyph>
<glyph name="V" format="1">
  <advance width="402"/>
  <unicode hex="0056"/>
  <outline>
    <contour>
      <point x="394" y="650" type="curve"/>
      <point x="375" y="532"/>
      <point x="277" y="137"/>
      <point x="253" y="-4" type="curve"/>
      <point x="223" y="-8"/>
      <point x="186" y="-10"/>
      <point x="159" y="-12" type="curve"/>
      <point x="123" y="169"/>
      <point x="26" y="572"/>
      <point x="6" y="657" type="curve"/>
      <point x="45" y="661"/>
      <point x="95" y="676"/>
      <point x="132" y="692" type="curve"/>
      <point x="138" y="631"/>
      <point x="186" y="321"/>
      <point x="205" y="223" type="curve"/>
      <point x="222" y="312"/>
      <point x="276" y="626"/>
      <point x="277" y="674" type="curve"/>
      <point x="319" y="662"/>
      <point x="356" y="654"/>
    </contour>
  </outline>
</glyph>
<glyph name="W" format="1">
  <advance width="641"/>
  <unicode hex="0057"/>
  <outline>
    <contour>
      <point x="632" y="647" type="curve"/>
      <point x="596" y="465"/>
      <point x="537" y="132"/>
      <point x="511" y="-7" type="curve"/>
      <point x="485" y="-11"/>
      <point x="444" y="-16"/>
      <point x="411" y="-18" type="curve"/>
      <point x="396" y="69"/>
      <point x="351" y="279"/>
      <point x="324" y="426" type="curve"/>
      <point x="300" y="298"/>
      <point x="246" y="83"/>
      <point x="228" y="-10" type="curve"/>
      <point x="190" y="-2"/>
      <point x="152" y="3"/>
      <point x="121" y="3" type="curve"/>
      <point x="102" y="110"/>
      <point x="26" y="537"/>
      <point x="5" y="646" type="curve"/>
      <point x="40" y="654"/>
      <point x="73" y="663"/>
      <point x="119" y="685" type="curve"/>
      <point x="131" y="609"/>
      <point x="168" y="322"/>
      <point x="188" y="207" type="curve"/>
      <point x="208" y="310"/>
      <point x="274" y="605"/>
      <point x="282" y="660" type="curve"/>
      <point x="311" y="657"/>
      <point x="337" y="656"/>
      <point x="371" y="660" type="curve"/>
      <point x="383" y="586"/>
      <point x="439" y="329"/>
      <point x="459" y="222" type="curve"/>
      <point x="478" y="337"/>
      <point x="512" y="570"/>
      <point x="525" y="671" type="curve"/>
      <point x="566" y="657"/>
      <point x="591" y="651"/>
    </contour>
  </outline>
</glyph>
<glyph name="X" format="1">
  <advance width="428"/>
  <unicode hex="0058"/>
  <outline>
    <contour>
      <point x="419" y="32" type="curve"/>
      <point x="378" y="23"/>
      <point x="348" y="5"/>
      <point x="308" y="-11" type="curve"/>
      <point x="289" y="57"/>
      <point x="231" y="200"/>
      <point x="209" y="257" type="curve"/>
      <point x="183" y="177"/>
      <point x="131" y="28"/>
      <point x="120" y="-11" type="curve"/>
      <point x="85" y="-5"/>
      <point x="41" y="6"/>
      <point x="3" y="12" type="curve"/>
      <point x="34" y="81"/>
      <point x="120" y="283"/>
      <point x="147" y="366" type="curve"/>
      <point x="129" y="419"/>
      <point x="47" y="609"/>
      <point x="25" y="651" type="curve"/>
      <point x="69" y="655"/>
      <point x="115" y="668"/>
      <point x="151" y="679" type="curve"/>
      <point x="156" y="644"/>
      <point x="199" y="517"/>
      <point x="215" y="468" type="curve"/>
      <point x="230" y="514"/>
      <point x="274" y="637"/>
      <point x="280" y="667" type="curve"/>
      <point x="316" y="653"/>
      <point x="351" y="641"/>
      <point x="391" y="626" type="curve"/>
      <point x="359" y="552"/>
      <point x="292" y="409"/>
      <point x="275" y="359" type="curve"/>
      <point x="289" y="320"/>
      <point x="361" y="169"/>
    </contour>
  </outline>
</glyph>
<glyph name="Y" format="1">
  <advance width="406"/>
  <unicode hex="0059"/>
  <outline>
    <contour>
      <point x="399" y="637" type="curve"/>
      <point x="357" y="535"/>
      <point x="291" y="367"/>
      <point x="268" y="305" type="curve"/>
      <point x="268" y="262"/>
      <point x="275" y="72"/>
      <point x="272" y="3" type="curve"/>
      <point x="236" y="5"/>
      <point x="188" y="6"/>
      <point x="147" y="6" type="curve"/>
      <point x="155" y="70"/>
      <point x="159" y="202"/>
      <point x="161" y="291" type="curve"/>
      <point x="129" y="370"/>
      <point x="39" y="560"/>
      <point x="2" y="635" type="curve"/>
      <point x="46" y="644"/>
      <point x="84" y="656"/>
      <point x="122" y="673" type="curve"/>
      <point x="135" y="626"/>
      <point x="183" y="487"/>
      <point x="212" y="423" type="curve"/>
      <point x="236" y="495"/>
      <point x="268" y="599"/>
      <point x="282" y="677" type="curve"/>
      <point x="327" y="658"/>
      <point x="357" y="647"/>
    </contour>
  </outline>
</glyph>
<glyph name="Z" format="1">
  <advance width="368"/>
  <unicode hex="005A"/>
  <outline>
    <contour>
      <point x="349" y="92" type="curve"/>
      <point x="341" y="47"/>
      <point x="340" y="25"/>
      <point x="336" y="-5" type="curve"/>
      <point x="262" y="-1"/>
      <point x="89" y="2"/>
      <point x="13" y="6" type="curve"/>
      <point x="61" y="143"/>
      <point x="168" y="450"/>
      <point x="201" y="569" type="curve"/>
      <point x="182" y="569"/>
      <point x="135" y="569"/>
      <point x="118" y="567" type="curve"/>
      <point x="104" y="567"/>
      <point x="64" y="568"/>
      <point x="31" y="566" type="curve"/>
      <point x="40" y="609"/>
      <point x="41" y="632"/>
      <point x="45" y="670" type="curve"/>
      <point x="103" y="665"/>
      <point x="275" y="655"/>
      <point x="344" y="650" type="curve"/>
      <point x="330" y="605"/>
      <point x="182" y="178"/>
      <point x="155" y="92" type="curve"/>
      <point x="198" y="90"/>
      <point x="285" y="91"/>
    </contour>
  </outline>
</glyph>
<glyph name="bracketleft" format="1">
  <advance width="284"/>
  <unicode hex="005B"/>
  <outline>
    <contour>
      <point x="261" y="-47" type="curve"/>
      <point x="252" y="-80"/>
      <point x="249" y="-99"/>
      <point x="248" y="-127" type="curve"/>
      <point x="201" y="-123"/>
      <point x="106" y="-122"/>
      <point x="57" y="-123" type="curve"/>
      <point x="57" y="-24"/>
      <point x="47" y="541"/>
      <point x="44" y="691" type="curve"/>
      <point x="108" y="690"/>
      <point x="185" y="693"/>
      <point x="247" y="701" type="curve"/>
      <point x="247" y="668"/>
      <point x="247" y="646"/>
      <point x="253" y="621" type="curve"/>
      <point x="216" y="616"/>
      <point x="177" y="611"/>
      <point x="149" y="609" type="curve"/>
      <point x="148" y="512"/>
      <point x="153" y="47"/>
      <point x="156" y="-44" type="curve"/>
      <point x="182" y="-46"/>
      <point x="221" y="-49"/>
    </contour>
  </outline>
</glyph>
<glyph name="backslash" format="1">
  <advance width="339"/>
  <unicode hex="005C"/>
  <outline>
    <contour>
      <point x="328" y="10" type="curve"/>
      <point x="292" y="6"/>
      <point x="267" y="0"/>
      <point x="228" y="-14" type="curve"/>
      <point x="170" y="174"/>
      <point x="69" y="485"/>
      <point x="6" y="650" type="curve"/>
      <point x="50" y="655"/>
      <point x="75" y="661"/>
      <point x="112" y="675" type="curve"/>
      <point x="155" y="517"/>
      <point x="265" y="190"/>
    </contour>
  </outline>
</glyph>
<glyph name="bracketright" format="1">
  <advance width="284"/>
  <unicode hex="005D"/>
  <outline>
    <contour>
      <point x="236" y="717" type="curve"/>
      <point x="231" y="575"/>
      <point x="223" y="42"/>
      <point x="223" y="-76" type="curve"/>
      <point x="165" y="-81"/>
      <point x="83" y="-90"/>
      <point x="38" y="-96" type="curve"/>
      <point x="36" y="-64"/>
      <point x="32" y="-48"/>
      <point x="26" y="-18" type="curve"/>
      <point x="64" y="-14"/>
      <point x="98" y="-7"/>
      <point x="123" y="-2" type="curve"/>
      <point x="126" y="85"/>
      <point x="133" y="564"/>
      <point x="133" y="638" type="curve"/>
      <point x="101" y="640"/>
      <point x="69" y="641"/>
      <point x="32" y="643" type="curve"/>
      <point x="32" y="676"/>
      <point x="34" y="694"/>
      <point x="31" y="727" type="curve"/>
      <point x="93" y="720"/>
      <point x="175" y="717"/>
    </contour>
  </outline>
</glyph>
<glyph name="asciicircum" format="1">
  <advance width="423"/>
  <unicode hex="005E"/>
  <outline>
    <contour>
      <point x="409" y="391" type="line"/>
      <point x="360" y="339" type="line"/>
      <point x="199" y="507" type="line"/>
      <point x="76" y="348" type="line"/>
      <point x="16" y="385" type="line"/>
      <point x="139" y="608" type="line"/>
      <point x="232" y="632" type="line"/>
    </contour>
  </outline>
</glyph>
<glyph name="grave" format="1">
  <advance width="315"/>
  <unicode hex="0060"/>
  <outline>
    <contour>
      <point x="253" y="545" type="line"/>
      <point x="207" y="490" type="line"/>
      <point x="49" y="579" type="line"/>
      <point x="117" y="657" type="line"/>
    </contour>
  </outline>
</glyph>
<glyph name="a" format="1">
  <advance width="358"/>
  <unicode hex="0061"/>
  <outline>
    <contour>
      <point x="331" y="-2" type="curve"/>
      <point x="296" y="-11"/>
      <point x="271" y="-13"/>
      <point x="237" y="-30" type="curve"/>
      <point x="230" y="-12"/>
      <point x="226" y="28"/>
      <point x="224" y="44" type="curve"/>
      <point x="202" y="22"/>
      <point x="157" y="-7"/>
      <point x="118" y="-7" type="curve" smooth="yes"/>
      <point x="79" y="-7"/>
      <point x="16" y="50"/>
      <point x="16" y="134" type="curve" smooth="yes"/>
      <point x="16" y="175"/>
      <point x="28" y="227"/>
      <point x="78" y="250" type="curve" smooth="yes"/>
      <point x="135" y="277"/>
      <point x="192" y="293"/>
      <point x="220" y="302" type="curve"/>
      <point x="220" y="336"/>
      <point x="217" y="353"/>
      <point x="204" y="359" type="curve" smooth="yes"/>
      <point x="182" y="370"/>
      <point x="149" y="373"/>
      <point x="97" y="373" type="curve"/>
      <point x="97" y="373"/>
      <point x="103" y="429"/>
      <point x="102" y="463" type="curve"/>
      <point x="173" y="455"/>
      <point x="234" y="446"/>
      <point x="275" y="425" type="curve" smooth="yes"/>
      <point x="306" y="409"/>
      <point x="322" y="366"/>
      <point x="322" y="331" type="curve" smooth="yes"/>
      <point x="322" y="325"/>
      <point x="323" y="190"/>
      <point x="323" y="99" type="curve" smooth="yes"/>
      <point x="323" y="63"/>
      <point x="326" y="20"/>
    </contour>
    <contour>
      <point x="221" y="225" type="curve"/>
      <point x="211" y="219"/>
      <point x="170" y="207"/>
      <point x="156" y="200" type="curve" smooth="yes"/>
      <point x="135" y="191"/>
      <point x="116" y="168"/>
      <point x="116" y="146" type="curve" smooth="yes"/>
      <point x="116" y="108"/>
      <point x="127" y="85"/>
      <point x="150" y="85" type="curve" smooth="yes"/>
      <point x="177" y="85"/>
      <point x="210" y="115"/>
      <point x="218" y="124" type="curve"/>
      <point x="219" y="134"/>
      <point x="222" y="210"/>
    </contour>
  </outline>
</glyph>
<glyph name="b" format="1">
  <advance width="379"/>
  <unicode hex="0062"/>
  <outline>
    <contour>
      <point x="358" y="231" type="curve" smooth="yes"/>
      <point x="358" y="52"/>
      <point x="276" y="25"/>
      <point x="218" y="25" type="curve" smooth="yes"/>
      <point x="197" y="25"/>
      <point x="157" y="40"/>
      <point x="136" y="57" type="curve"/>
      <point x="136" y="46"/>
      <point x="138" y="7"/>
      <point x="138" y="7" type="curve"/>
      <point x="138" y="7"/>
      <point x="74" y="4"/>
      <point x="33" y="-9" type="curve"/>
      <point x="34" y="44"/>
      <point x="34" y="247"/>
      <point x="34" y="259" type="curve" smooth="yes"/>
      <point x="34" y="300"/>
      <point x="32" y="507"/>
      <point x="32" y="537" type="curve" smooth="yes"/>
      <point x="32" y="545"/>
      <point x="30" y="633"/>
      <point x="26" y="655" type="curve"/>
      <point x="58" y="658"/>
      <point x="98" y="661"/>
      <point x="137" y="668" type="curve"/>
      <point x="133" y="608"/>
      <point x="129" y="473"/>
      <point x="132" y="431" type="curve"/>
      <point x="158" y="452"/>
      <point x="204" y="465"/>
      <point x="224" y="465" type="curve" smooth="yes"/>
      <point x="257" y="465"/>
      <point x="284" y="452"/>
      <point x="314" y="406" type="curve" smooth="yes"/>
      <point x="339" y="368"/>
      <point x="358" y="311"/>
    </contour>
    <contour>
      <point x="254" y="223" type="curve" smooth="yes"/>
      <point x="254" y="307"/>
      <point x="243" y="376"/>
      <point x="206" y="376" type="curve" smooth="yes"/>
      <point x="191" y="376"/>
      <point x="149" y="356"/>
      <point x="139" y="343" type="curve"/>
      <point x="138" y="310"/>
      <point x="136" y="179"/>
      <point x="137" y="145" type="curve"/>
      <point x="154" y="129"/>
      <point x="181" y="115"/>
      <point x="205" y="115" type="curve" smooth="yes"/>
      <point x="235" y="114"/>
      <point x="254" y="128"/>
    </contour>
  </outline>
</glyph>
<glyph name="c" format="1">
  <advance width="308"/>
  <unicode hex="0063"/>
  <outline>
    <contour>
      <point x="293" y="71" type="curve"/>
      <point x="282" y="37"/>
      <point x="274" y="3"/>
      <point x="271" y="-25" type="curve"/>
      <point x="90" y="4"/>
      <point x="17" y="82"/>
      <point x="17" y="231" type="curve" smooth="yes"/>
      <point x="17" y="292"/>
      <point x="32" y="350"/>
      <point x="58" y="384" type="curve" smooth="yes"/>
      <point x="100" y="437"/>
      <point x="143" y="457"/>
      <point x="270" y="473" type="curve"/>
      <point x="281" y="384" type="line"/>
      <point x="250" y="383"/>
      <point x="224" y="380"/>
      <point x="206" y="375" type="curve" smooth="yes"/>
      <point x="157" y="361"/>
      <point x="123" y="321"/>
      <point x="123" y="241" type="curve" smooth="yes"/>
      <point x="123" y="173"/>
      <point x="140" y="102"/>
      <point x="222" y="81" type="curve" smooth="yes"/>
      <point x="236" y="78"/>
      <point x="256" y="71"/>
    </contour>
  </outline>
</glyph>
<glyph name="d" format="1">
  <advance width="379"/>
  <unicode hex="0064"/>
  <outline>
    <contour>
      <point x="348" y="108" type="curve"/>
      <point x="345" y="93"/>
      <point x="343" y="52"/>
      <point x="347" y="10" type="curve"/>
      <point x="313" y="7"/>
      <point x="295" y="1"/>
      <point x="269" y="-10" type="curve"/>
      <point x="249" y="32" type="line"/>
      <point x="223" y="13"/>
      <point x="175" y="0"/>
      <point x="145" y="0" type="curve" smooth="yes"/>
      <point x="81" y="0"/>
      <point x="23" y="81"/>
      <point x="23" y="209" type="curve" smooth="yes"/>
      <point x="23" y="291"/>
      <point x="43" y="354"/>
      <point x="55" y="376" type="curve" smooth="yes"/>
      <point x="68" y="400"/>
      <point x="119" y="458"/>
      <point x="168" y="458" type="curve" smooth="yes"/>
      <point x="194" y="458"/>
      <point x="226" y="444"/>
      <point x="248" y="436" type="curve"/>
      <point x="248" y="454"/>
      <point x="247" y="496"/>
      <point x="246" y="536" type="curve" smooth="yes"/>
      <point x="245" y="589"/>
      <point x="242" y="655"/>
      <point x="242" y="655" type="curve"/>
      <point x="242" y="655"/>
      <point x="319" y="661"/>
      <point x="347" y="666" type="curve"/>
      <point x="347" y="349" type="line" smooth="yes"/>
      <point x="347" y="332"/>
      <point x="348" y="145"/>
    </contour>
    <contour>
      <point x="245" y="112" type="curve"/>
      <point x="245" y="179"/>
      <point x="250" y="305"/>
      <point x="244" y="345" type="curve"/>
      <point x="230" y="355"/>
      <point x="200" y="365"/>
      <point x="181" y="365" type="curve" smooth="yes"/>
      <point x="146" y="365"/>
      <point x="129" y="343"/>
      <point x="129" y="248" type="curve" smooth="yes"/>
      <point x="129" y="156"/>
      <point x="148" y="86"/>
      <point x="190" y="86" type="curve" smooth="yes"/>
      <point x="208" y="86"/>
      <point x="230" y="96"/>
    </contour>
  </outline>
</glyph>
<glyph name="e" format="1">
  <advance width="359"/>
  <unicode hex="0065"/>
  <outline>
    <contour>
      <point x="345" y="57" type="curve"/>
      <point x="323" y="26"/>
      <point x="229" y="-1"/>
      <point x="200" y="-1" type="curve" smooth="yes"/>
      <point x="160" y="-1"/>
      <point x="107" y="19"/>
      <point x="77" y="48" type="curve" smooth="yes"/>
      <point x="35" y="87"/>
      <point x="20" y="154"/>
      <point x="20" y="226" type="curve" smooth="yes"/>
      <point x="20" y="411"/>
      <point x="100" y="453"/>
      <point x="194" y="453" type="curve" smooth="yes"/>
      <point x="283" y="453"/>
      <point x="326" y="351"/>
      <point x="333" y="210" type="curve"/>
      <point x="249" y="203"/>
      <point x="149" y="199"/>
      <point x="124" y="198" type="curve"/>
      <point x="125" y="164"/>
      <point x="133" y="138"/>
      <point x="147" y="120" type="curve" smooth="yes"/>
      <point x="156" y="108"/>
      <point x="183" y="91"/>
      <point x="206" y="91" type="curve" smooth="yes"/>
      <point x="227" y="91"/>
      <point x="272" y="99"/>
      <point x="314" y="120" type="curve"/>
      <point x="321" y="97"/>
      <point x="332" y="77"/>
    </contour>
    <contour>
      <point x="230" y="281" type="curve"/>
      <point x="225" y="331"/>
      <point x="212" y="371"/>
      <point x="179" y="371" type="curve" smooth="yes"/>
      <point x="150" y="371"/>
      <point x="120" y="335"/>
      <point x="124" y="276" type="curve"/>
      <point x="132" y="275"/>
      <point x="160" y="274"/>
      <point x="170" y="276" type="curve"/>
      <point x="188" y="277"/>
      <point x="219" y="280"/>
    </contour>
  </outline>
</glyph>
<glyph name="f" format="1">
  <advance width="246"/>
  <unicode hex="0066"/>
  <outline>
    <contour>
      <point x="251" y="588" type="curve"/>
      <point x="195" y="582"/>
      <point x="177" y="572"/>
      <point x="163" y="552" type="curve" smooth="yes"/>
      <point x="160" y="547"/>
      <point x="159" y="536"/>
      <point x="159" y="525" type="curve" smooth="yes"/>
      <point x="159" y="515"/>
      <point x="160" y="504"/>
      <point x="160" y="499" type="curve" smooth="yes"/>
      <point x="160" y="491"/>
      <point x="161" y="453"/>
      <point x="161" y="445" type="curve"/>
      <point x="169" y="445"/>
      <point x="204" y="441"/>
      <point x="227" y="443" type="curve"/>
      <point x="229" y="356" type="line"/>
      <point x="229" y="356"/>
      <point x="185" y="361"/>
      <point x="166" y="360" type="curve"/>
      <point x="164" y="245" type="line" smooth="yes"/>
      <point x="163" y="193"/>
      <point x="166" y="-6"/>
      <point x="166" y="-6" type="curve"/>
      <point x="131" y="4"/>
      <point x="87" y="5"/>
      <point x="52" y="8" type="curve"/>
      <point x="55" y="36"/>
      <point x="57" y="97"/>
      <point x="60" y="141" type="curve" smooth="yes"/>
      <point x="62" y="173"/>
      <point x="62" y="214"/>
      <point x="62" y="225" type="curve" smooth="yes"/>
      <point x="62" y="225"/>
      <point x="65" y="348"/>
      <point x="64" y="359" type="curve"/>
      <point x="53" y="360"/>
      <point x="15" y="365"/>
      <point x="15" y="365" type="curve"/>
      <point x="2" y="453" type="line"/>
      <point x="2" y="453"/>
      <point x="58" y="450"/>
      <point x="64" y="450" type="curve"/>
      <point x="64" y="481"/>
      <point x="61" y="529"/>
      <point x="60" y="541" type="curve" smooth="yes"/>
      <point x="59" y="548"/>
      <point x="59" y="555"/>
      <point x="59" y="562" type="curve" smooth="yes"/>
      <point x="59" y="607"/>
      <point x="91" y="656"/>
      <point x="229" y="674" type="curve"/>
      <point x="234" y="644"/>
      <point x="239" y="623"/>
    </contour>
  </outline>
</glyph>
<glyph name="g" format="1">
  <advance width="364"/>
  <unicode hex="0067"/>
  <outline>
    <contour>
      <point x="330" y="194" type="line" smooth="yes"/>
      <point x="330" y="167"/>
      <point x="329" y="35"/>
      <point x="319" y="-46" type="curve" smooth="yes"/>
      <point x="315" y="-75"/>
      <point x="298" y="-110"/>
      <point x="274" y="-131" type="curve" smooth="yes"/>
      <point x="243" y="-158"/>
      <point x="171" y="-201"/>
      <point x="147" y="-201" type="curve"/>
      <point x="136" y="-172"/>
      <point x="103" y="-126"/>
      <point x="103" y="-126" type="curve"/>
      <point x="161" y="-108"/>
      <point x="196" y="-80"/>
      <point x="215" y="-55" type="curve" smooth="yes"/>
      <point x="225" y="-43"/>
      <point x="232" y="-12"/>
      <point x="230" y="12" type="curve"/>
      <point x="210" y="-7"/>
      <point x="158" y="-19"/>
      <point x="131" y="-19" type="curve" smooth="yes"/>
      <point x="111" y="-19"/>
      <point x="92" y="-12"/>
      <point x="62" y="31" type="curve" smooth="yes"/>
      <point x="34" y="71"/>
      <point x="21" y="121"/>
      <point x="21" y="197" type="curve" smooth="yes"/>
      <point x="21" y="341"/>
      <point x="57" y="442"/>
      <point x="140" y="442" type="curve" smooth="yes"/>
      <point x="161" y="442"/>
      <point x="213" y="431"/>
      <point x="235" y="424" type="curve"/>
      <point x="234" y="435"/>
      <point x="232" y="491"/>
      <point x="232" y="491" type="curve"/>
      <point x="239" y="490"/>
      <point x="303" y="485"/>
      <point x="330" y="486" type="curve"/>
    </contour>
    <contour>
      <point x="230" y="229" type="curve" smooth="yes"/>
      <point x="230" y="265"/>
      <point x="230" y="326"/>
      <point x="230" y="337" type="curve"/>
      <point x="221" y="341"/>
      <point x="201" y="345"/>
      <point x="184" y="345" type="curve" smooth="yes"/>
      <point x="141" y="345"/>
      <point x="126" y="327"/>
      <point x="126" y="246" type="curve" smooth="yes"/>
      <point x="126" y="120"/>
      <point x="146" y="71"/>
      <point x="172" y="71" type="curve" smooth="yes"/>
      <point x="190" y="71"/>
      <point x="212" y="79"/>
      <point x="229" y="101" type="curve"/>
      <point x="231" y="113"/>
      <point x="230" y="185"/>
    </contour>
  </outline>
</glyph>
<glyph name="h" format="1">
  <advance width="373"/>
  <unicode hex="0068"/>
  <outline>
    <contour>
      <point x="341" y="315" type="curve" smooth="yes"/>
      <point x="341" y="307"/>
      <point x="340" y="129"/>
      <point x="339" y="95" type="curve" smooth="yes"/>
      <point x="338" y="76"/>
      <point x="338" y="30"/>
      <point x="340" y="-15" type="curve"/>
      <point x="299" y="-6"/>
      <point x="259" y="-1"/>
      <point x="230" y="3" type="curve"/>
      <point x="232" y="32"/>
      <point x="234" y="158"/>
      <point x="235" y="184" type="curve" smooth="yes"/>
      <point x="235" y="193"/>
      <point x="234" y="270"/>
      <point x="231" y="298" type="curve" smooth="yes"/>
      <point x="230" y="312"/>
      <point x="221" y="321"/>
      <point x="203" y="321" type="curve" smooth="yes"/>
      <point x="178" y="321"/>
      <point x="156" y="311"/>
      <point x="141" y="302" type="curve"/>
      <point x="139" y="237"/>
      <point x="136" y="32"/>
      <point x="144" y="-21" type="curve"/>
      <point x="95" y="-14"/>
      <point x="60" y="-11"/>
      <point x="35" y="-10" type="curve"/>
      <point x="38" y="16"/>
      <point x="34" y="105"/>
      <point x="36" y="158" type="curve" smooth="yes"/>
      <point x="38" y="220"/>
      <point x="39" y="367"/>
      <point x="39" y="381" type="curve" smooth="yes"/>
      <point x="39" y="420"/>
      <point x="36" y="570"/>
      <point x="39" y="677" type="curve"/>
      <point x="64" y="674"/>
      <point x="118" y="672"/>
      <point x="143" y="670" type="curve"/>
      <point x="143" y="652"/>
      <point x="141" y="442"/>
      <point x="142" y="387" type="curve"/>
      <point x="168" y="399"/>
      <point x="218" y="415"/>
      <point x="251" y="415" type="curve" smooth="yes"/>
      <point x="265" y="415"/>
      <point x="288" y="408"/>
      <point x="305" y="398" type="curve" smooth="yes"/>
      <point x="320" y="389"/>
      <point x="341" y="362"/>
    </contour>
  </outline>
</glyph>
<glyph name="i" format="1">
  <advance width="171"/>
  <unicode hex="0069"/>
  <outline>
    <contour>
      <point x="155" y="602" type="curve" smooth="yes"/>
      <point x="155" y="572"/>
      <point x="123" y="544"/>
      <point x="89" y="544" type="curve" smooth="yes"/>
      <point x="54" y="544"/>
      <point x="24" y="570"/>
      <point x="24" y="601" type="curve" smooth="yes"/>
      <point x="24" y="627"/>
      <point x="55" y="657"/>
      <point x="89" y="657" type="curve" smooth="yes"/>
      <point x="126" y="657"/>
      <point x="155" y="636"/>
    </contour>
    <contour>
      <point x="142" y="7" type="curve"/>
      <point x="117" y="5"/>
      <point x="67" y="-4"/>
      <point x="33" y="-15" type="curve"/>
      <point x="36" y="53"/>
      <point x="34" y="213"/>
      <point x="34" y="237" type="curve" smooth="yes"/>
      <point x="34" y="261"/>
      <point x="31" y="422"/>
      <point x="31" y="456" type="curve"/>
      <point x="57" y="453"/>
      <point x="100" y="451"/>
      <point x="141" y="452" type="curve"/>
      <point x="137" y="427"/>
      <point x="136" y="388"/>
      <point x="135" y="377" type="curve" smooth="yes"/>
      <point x="134" y="360"/>
      <point x="132" y="300"/>
      <point x="132" y="273" type="curve" smooth="yes"/>
      <point x="132" y="250"/>
      <point x="135" y="135"/>
      <point x="136" y="120" type="curve" smooth="yes"/>
      <point x="137" y="109"/>
      <point x="139" y="48"/>
    </contour>
  </outline>
</glyph>
<glyph name="j" format="1">
  <advance width="165"/>
  <unicode hex="006A"/>
  <outline>
    <contour>
      <point x="144" y="631" type="curve" smooth="yes"/>
      <point x="144" y="600"/>
      <point x="115" y="570"/>
      <point x="83" y="570" type="curve" smooth="yes"/>
      <point x="48" y="570"/>
      <point x="20" y="597"/>
      <point x="20" y="630" type="curve" smooth="yes"/>
      <point x="20" y="657"/>
      <point x="49" y="690"/>
      <point x="83" y="690" type="curve" smooth="yes"/>
      <point x="116" y="690"/>
      <point x="144" y="668"/>
    </contour>
    <contour>
      <point x="143" y="479" type="curve"/>
      <point x="137" y="444"/>
      <point x="136" y="374"/>
      <point x="135" y="351" type="curve" smooth="yes"/>
      <point x="134" y="324"/>
      <point x="133" y="97"/>
      <point x="133" y="77" type="curve" smooth="yes"/>
      <point x="133" y="-76"/>
      <point x="78" y="-133"/>
      <point x="19" y="-178" type="curve"/>
      <point x="-5" y="-153"/>
      <point x="-19" y="-138"/>
      <point x="-48" y="-119" type="curve"/>
      <point x="-3" y="-86"/>
      <point x="38" y="-13"/>
      <point x="35" y="46" type="curve" smooth="yes"/>
      <point x="34" y="65"/>
      <point x="35" y="143"/>
      <point x="35" y="171" type="curve" smooth="yes"/>
      <point x="34" y="252"/>
      <point x="33" y="441"/>
      <point x="33" y="482" type="curve"/>
      <point x="67" y="477"/>
      <point x="112" y="476"/>
    </contour>
  </outline>
</glyph>
<glyph name="k" format="1">
  <advance width="363"/>
  <unicode hex="006B"/>
  <outline>
    <contour>
      <point x="367" y="37" type="curve"/>
      <point x="352" y="21"/>
      <point x="296" y="-21"/>
      <point x="284" y="-27" type="curve"/>
      <point x="275" y="-12"/>
      <point x="193" y="119"/>
      <point x="155" y="178" type="curve"/>
      <point x="152" y="175"/>
      <point x="137" y="166"/>
      <point x="132" y="162" type="curve"/>
      <point x="133" y="132"/>
      <point x="131" y="75"/>
      <point x="132" y="55" type="curve" smooth="yes"/>
      <point x="132" y="44"/>
      <point x="133" y="24"/>
      <point x="133" y="-4" type="curve"/>
      <point x="91" y="-5"/>
      <point x="70" y="-1"/>
      <point x="32" y="-9" type="curve"/>
      <point x="32" y="40"/>
      <point x="33" y="229"/>
      <point x="33" y="261" type="curve" smooth="yes"/>
      <point x="33" y="267"/>
      <point x="37" y="488"/>
      <point x="38" y="499" type="curve" smooth="yes"/>
      <point x="39" y="505"/>
      <point x="41" y="663"/>
      <point x="41" y="702" type="curve"/>
      <point x="69" y="695"/>
      <point x="109" y="687"/>
      <point x="137" y="683" type="curve"/>
      <point x="137" y="648"/>
      <point x="135" y="362"/>
      <point x="135" y="340" type="curve" smooth="yes"/>
      <point x="135" y="333"/>
      <point x="135" y="301"/>
      <point x="136" y="277" type="curve"/>
      <point x="159" y="309"/>
      <point x="203" y="378"/>
      <point x="215" y="390" type="curve" smooth="yes"/>
      <point x="217" y="392"/>
      <point x="250" y="450"/>
      <point x="261" y="462" type="curve"/>
      <point x="279" y="450"/>
      <point x="324" y="422"/>
      <point x="343" y="411" type="curve"/>
      <point x="314" y="373"/>
      <point x="256" y="292"/>
      <point x="224" y="245" type="curve"/>
      <point x="260" y="197"/>
      <point x="354" y="49"/>
    </contour>
  </outline>
</glyph>
<glyph name="l" format="1">
  <advance width="167"/>
  <unicode hex="006C"/>
  <outline>
    <contour>
      <point x="134" y="656" type="curve"/>
      <point x="134" y="619"/>
      <point x="133" y="451"/>
      <point x="133" y="419" type="curve" smooth="yes"/>
      <point x="133" y="413"/>
      <point x="131" y="205"/>
      <point x="129" y="185" type="curve" smooth="yes"/>
      <point x="127" y="172"/>
      <point x="126" y="35"/>
      <point x="125" y="-24" type="curve"/>
      <point x="89" y="-11"/>
      <point x="53" y="-5"/>
      <point x="32" y="1" type="curve"/>
      <point x="32" y="36"/>
      <point x="34" y="335"/>
      <point x="34" y="357" type="curve" smooth="yes"/>
      <point x="34" y="370"/>
      <point x="33" y="499"/>
      <point x="33" y="512" type="curve" smooth="yes"/>
      <point x="33" y="519"/>
      <point x="40" y="599"/>
      <point x="42" y="610" type="curve"/>
      <point x="43" y="621"/>
      <point x="44" y="648"/>
      <point x="44" y="686" type="curve"/>
      <point x="72" y="678"/>
      <point x="111" y="667"/>
    </contour>
  </outline>
</glyph>
<glyph name="m" format="1">
  <advance width="567"/>
  <unicode hex="006D"/>
  <outline>
    <contour>
      <point x="529" y="17" type="line"/>
      <point x="499" y="14"/>
      <point x="458" y="8"/>
      <point x="420" y="5" type="curve"/>
      <point x="426" y="32"/>
      <point x="424" y="104"/>
      <point x="424" y="115" type="curve" smooth="yes"/>
      <point x="424" y="144"/>
      <point x="424" y="270"/>
      <point x="424" y="293" type="curve" smooth="yes"/>
      <point x="424" y="320"/>
      <point x="426" y="345"/>
      <point x="396" y="345" type="curve" smooth="yes"/>
      <point x="373" y="345"/>
      <point x="345" y="329"/>
      <point x="334" y="324" type="curve"/>
      <point x="335" y="289"/>
      <point x="337" y="45"/>
      <point x="340" y="13" type="curve"/>
      <point x="311" y="13"/>
      <point x="258" y="11"/>
      <point x="227" y="7" type="curve"/>
      <point x="232" y="39"/>
      <point x="231" y="81"/>
      <point x="231" y="94" type="curve" smooth="yes"/>
      <point x="231" y="124"/>
      <point x="229" y="293"/>
      <point x="229" y="317" type="curve" smooth="yes"/>
      <point x="229" y="351"/>
      <point x="223" y="363"/>
      <point x="197" y="363" type="curve" smooth="yes"/>
      <point x="177" y="363"/>
      <point x="150" y="355"/>
      <point x="137" y="346" type="curve"/>
      <point x="137" y="346"/>
      <point x="134" y="44"/>
      <point x="137" y="-12" type="curve"/>
      <point x="102" y="-2"/>
      <point x="63" y="4"/>
      <point x="31" y="7" type="curve"/>
      <point x="33" y="52"/>
      <point x="35" y="158"/>
      <point x="35" y="165" type="curve" smooth="yes"/>
      <point x="35" y="462" type="line"/>
      <point x="64" y="456"/>
      <point x="97" y="452"/>
      <point x="130" y="450" type="curve"/>
      <point x="130" y="450"/>
      <point x="133" y="430"/>
      <point x="134" y="419" type="curve"/>
      <point x="161" y="437"/>
      <point x="207" y="451"/>
      <point x="247" y="451" type="curve" smooth="yes"/>
      <point x="277" y="451"/>
      <point x="298" y="437"/>
      <point x="313" y="407" type="curve" smooth="yes"/>
      <point x="315" y="403"/>
      <point x="318" y="394"/>
      <point x="318" y="389" type="curve"/>
      <point x="343" y="409"/>
      <point x="406" y="437"/>
      <point x="453" y="437" type="curve" smooth="yes"/>
      <point x="518" y="437"/>
      <point x="529" y="399"/>
      <point x="529" y="321" type="curve" smooth="yes"/>
    </contour>
  </outline>
</glyph>
<glyph name="n" format="1">
  <advance width="383"/>
  <unicode hex="006E"/>
  <outline>
    <contour>
      <point x="348" y="0" type="curve"/>
      <point x="306" y="7"/>
      <point x="282" y="10"/>
      <point x="238" y="11" type="curve"/>
      <point x="242" y="64"/>
      <point x="244" y="121"/>
      <point x="244" y="139" type="curve" smooth="yes"/>
      <point x="244" y="166"/>
      <point x="243" y="262"/>
      <point x="243" y="292" type="curve" smooth="yes"/>
      <point x="244" y="330"/>
      <point x="243" y="360"/>
      <point x="216" y="360" type="curve" smooth="yes"/>
      <point x="197" y="360"/>
      <point x="160" y="346"/>
      <point x="139" y="332" type="curve"/>
      <point x="140" y="290"/>
      <point x="148" y="44"/>
      <point x="153" y="0" type="curve"/>
      <point x="118" y="-5"/>
      <point x="81" y="-5"/>
      <point x="44" y="-7" type="curve"/>
      <point x="49" y="55"/>
      <point x="39" y="229"/>
      <point x="34" y="321" type="curve" smooth="yes"/>
      <point x="31" y="373"/>
      <point x="28" y="427"/>
      <point x="22" y="455" type="curve"/>
      <point x="55" y="455"/>
      <point x="101" y="458"/>
      <point x="139" y="464" type="curve"/>
      <point x="138" y="413" type="line"/>
      <point x="167" y="432"/>
      <point x="222" y="449"/>
      <point x="259" y="449" type="curve" smooth="yes"/>
      <point x="318" y="449"/>
      <point x="348" y="407"/>
      <point x="348" y="311" type="curve" smooth="yes"/>
      <point x="348" y="266"/>
      <point x="348" y="88"/>
    </contour>
  </outline>
</glyph>
<glyph name="o" format="1">
  <advance width="394"/>
  <unicode hex="006F"/>
  <outline>
    <contour>
      <point x="372" y="263" type="curve" smooth="yes"/>
      <point x="372" y="103"/>
      <point x="285" y="6"/>
      <point x="194" y="6" type="curve" smooth="yes"/>
      <point x="136" y="6"/>
      <point x="90" y="35"/>
      <point x="55" y="90" type="curve" smooth="yes"/>
      <point x="37" y="119"/>
      <point x="21" y="170"/>
      <point x="21" y="226" type="curve" smooth="yes"/>
      <point x="21" y="392"/>
      <point x="100" y="459"/>
      <point x="195" y="459" type="curve" smooth="yes"/>
      <point x="283" y="459"/>
      <point x="372" y="413"/>
    </contour>
    <contour>
      <point x="267" y="235" type="curve" smooth="yes"/>
      <point x="267" y="334"/>
      <point x="223" y="368"/>
      <point x="184" y="368" type="curve" smooth="yes"/>
      <point x="147" y="368"/>
      <point x="123" y="337"/>
      <point x="123" y="244" type="curve" smooth="yes"/>
      <point x="123" y="158"/>
      <point x="161" y="99"/>
      <point x="201" y="99" type="curve" smooth="yes"/>
      <point x="238" y="99"/>
      <point x="267" y="144"/>
    </contour>
  </outline>
</glyph>
<glyph name="q" format="1">
  <advance width="373"/>
  <unicode hex="0071"/>
  <outline>
    <contour>
      <point x="339" y="-195" type="curve"/>
      <point x="305" y="-188"/>
      <point x="271" y="-185"/>
      <point x="227" y="-183" type="curve"/>
      <point x="238" y="-102"/>
      <point x="237" y="-9"/>
      <point x="238" y="10" type="curve"/>
      <point x="224" y="-2"/>
      <point x="194" y="-18"/>
      <point x="172" y="-18" type="curve" smooth="yes"/>
      <point x="138" y="-17"/>
      <point x="94" y="10"/>
      <point x="76" y="30" type="curve" smooth="yes"/>
      <point x="43" y="65"/>
      <point x="22" y="125"/>
      <point x="22" y="204" type="curve" smooth="yes"/>
      <point x="22" y="374"/>
      <point x="58" y="440"/>
      <point x="143" y="440" type="curve" smooth="yes"/>
      <point x="162" y="440"/>
      <point x="216" y="425"/>
      <point x="233" y="411" type="curve"/>
      <point x="231" y="429"/>
      <point x="228" y="456"/>
      <point x="228" y="456" type="curve"/>
      <point x="228" y="456"/>
      <point x="302" y="462"/>
      <point x="336" y="472" type="curve"/>
      <point x="336" y="439"/>
      <point x="335" y="109"/>
      <point x="335" y="67" type="curve" smooth="yes"/>
      <point x="335" y="47"/>
      <point x="335" y="-145"/>
    </contour>
    <contour>
      <point x="235" y="319" type="line"/>
      <point x="211" y="341"/>
      <point x="177" y="353"/>
      <point x="161" y="353" type="curve" smooth="yes"/>
      <point x="132" y="353"/>
      <point x="128" y="324"/>
      <point x="128" y="238" type="curve" smooth="yes"/>
      <point x="128" y="144"/>
      <point x="148" y="76"/>
      <point x="192" y="76" type="curve" smooth="yes"/>
      <point x="207" y="76"/>
      <point x="223" y="81"/>
      <point x="233" y="90" type="curve"/>
    </contour>
  </outline>
</glyph>
<glyph name="r" format="1">
  <advance width="276"/>
  <unicode hex="0072"/>
  <outline>
    <contour>
      <point x="272" y="373" type="curve"/>
      <point x="194" y="370"/>
      <point x="156" y="342"/>
      <point x="136" y="308" type="curve"/>
      <point x="134" y="233"/>
      <point x="132" y="76"/>
      <point x="138" y="-4" type="curve"/>
      <point x="99" y="4"/>
      <point x="70" y="7"/>
      <point x="27" y="8" type="curve"/>
      <point x="33" y="59"/>
      <point x="37" y="182"/>
      <point x="37" y="201" type="curve" smooth="yes"/>
      <point x="37" y="223"/>
      <point x="37" y="315"/>
      <point x="37" y="328" type="curve" smooth="yes"/>
      <point x="37" y="361"/>
      <point x="37" y="447"/>
      <point x="35" y="485" type="curve"/>
      <point x="69" y="475"/>
      <point x="139" y="472"/>
      <point x="139" y="472" type="curve"/>
      <point x="139" y="416" type="line"/>
      <point x="159" y="436"/>
      <point x="195" y="457"/>
      <point x="244" y="465" type="curve"/>
      <point x="250" y="431"/>
      <point x="258" y="409"/>
    </contour>
  </outline>
</glyph>
<glyph name="s" format="1">
  <advance width="287"/>
  <unicode hex="0073"/>
  <outline>
    <contour>
      <point x="264" y="140" type="curve" smooth="yes"/>
      <point x="264" y="36"/>
      <point x="205" y="-10"/>
      <point x="66" y="-26" type="curve"/>
      <point x="65" y="6"/>
      <point x="61" y="27"/>
      <point x="51" y="65" type="curve"/>
      <point x="120" y="70"/>
      <point x="165" y="88"/>
      <point x="165" y="121" type="curve" smooth="yes"/>
      <point x="165" y="157"/>
      <point x="150" y="166"/>
      <point x="100" y="202" type="curve" smooth="yes"/>
      <point x="58" y="232"/>
      <point x="13" y="260"/>
      <point x="13" y="329" type="curve" smooth="yes"/>
      <point x="13" y="413"/>
      <point x="93" y="452"/>
      <point x="240" y="457" type="curve"/>
      <point x="239" y="434"/>
      <point x="242" y="399"/>
      <point x="248" y="374" type="curve"/>
      <point x="134" y="363"/>
      <point x="113" y="348"/>
      <point x="113" y="326" type="curve" smooth="yes"/>
      <point x="113" y="317"/>
      <point x="129" y="306"/>
      <point x="147" y="294" type="curve" smooth="yes"/>
      <point x="195" y="262"/>
      <point x="264" y="224"/>
    </contour>
  </outline>
</glyph>
<glyph name="t" format="1">
  <advance width="265"/>
  <unicode hex="0074"/>
  <outline>
    <contour>
      <point x="246" y="359" type="curve"/>
      <point x="213" y="362"/>
      <point x="173" y="359"/>
      <point x="165" y="358" type="curve"/>
      <point x="164" y="346"/>
      <point x="163" y="314"/>
      <point x="162" y="305" type="curve" smooth="yes"/>
      <point x="160" y="279"/>
      <point x="158" y="181"/>
      <point x="161" y="118" type="curve" smooth="yes"/>
      <point x="162" y="99"/>
      <point x="200" y="63"/>
      <point x="236" y="49" type="curve"/>
      <point x="228" y="41"/>
      <point x="182" y="-4"/>
      <point x="165" y="-29" type="curve"/>
      <point x="73" y="15"/>
      <point x="60" y="64"/>
      <point x="60" y="121" type="curve" smooth="yes"/>
      <point x="60" y="176"/>
      <point x="60" y="209"/>
      <point x="60" y="264" type="curve" smooth="yes"/>
      <point x="60" y="297"/>
      <point x="56" y="332"/>
      <point x="57" y="357" type="curve"/>
      <point x="48" y="358"/>
      <point x="28" y="358"/>
      <point x="12" y="355" type="curve"/>
      <point x="9" y="380"/>
      <point x="8" y="411"/>
      <point x="8" y="433" type="curve"/>
      <point x="30" y="435"/>
      <point x="49" y="437"/>
      <point x="60" y="439" type="curve"/>
      <point x="62" y="443"/>
      <point x="64" y="449"/>
      <point x="64" y="454" type="curve" smooth="yes"/>
      <point x="66" y="483"/>
      <point x="65" y="500"/>
      <point x="67" y="535" type="curve"/>
      <point x="75" y="537"/>
      <point x="134" y="553"/>
      <point x="176" y="569" type="curve"/>
      <point x="176" y="543"/>
      <point x="172" y="477"/>
      <point x="170" y="438" type="curve"/>
      <point x="195" y="441"/>
      <point x="226" y="441"/>
      <point x="246" y="446" type="curve"/>
      <point x="245" y="438"/>
      <point x="242" y="395"/>
    </contour>
  </outline>
</glyph>
<glyph name="u" format="1">
  <advance width="365"/>
  <unicode hex="0075"/>
  <outline>
    <contour>
      <point x="327" y="-15" type="line"/>
      <point x="299" y="-10"/>
      <point x="252" y="-4"/>
      <point x="221" y="-5" type="curve"/>
      <point x="218" y="32" type="line"/>
      <point x="201" y="25"/>
      <point x="122" y="1"/>
      <point x="101" y="1" type="curve" smooth="yes"/>
      <point x="72" y="1"/>
      <point x="50" y="14"/>
      <point x="37" y="43" type="curve"/>
      <point x="32" y="68"/>
      <point x="30" y="128"/>
      <point x="30" y="159" type="curve" smooth="yes"/>
      <point x="30" y="205"/>
      <point x="29" y="325"/>
      <point x="27" y="346" type="curve" smooth="yes"/>
      <point x="26" y="359"/>
      <point x="24" y="419"/>
      <point x="22" y="440" type="curve"/>
      <point x="60" y="437"/>
      <point x="102" y="438"/>
      <point x="132" y="441" type="curve"/>
      <point x="132" y="402"/>
      <point x="134" y="146"/>
      <point x="134" y="140" type="curve" smooth="yes"/>
      <point x="134" y="106"/>
      <point x="141" y="98"/>
      <point x="162" y="98" type="curve" smooth="yes"/>
      <point x="181" y="98"/>
      <point x="209" y="107"/>
      <point x="224" y="119" type="curve"/>
      <point x="224" y="166"/>
      <point x="225" y="292"/>
      <point x="222" y="356" type="curve" smooth="yes"/>
      <point x="221" y="384"/>
      <point x="222" y="428"/>
      <point x="219" y="451" type="curve"/>
      <point x="247" y="455"/>
      <point x="291" y="464"/>
      <point x="327" y="477" type="curve"/>
    </contour>
  </outline>
</glyph>
<glyph name="v" format="1">
  <advance width="357"/>
  <unicode hex="0076"/>
  <outline>
    <contour>
      <point x="352" y="439" type="curve"/>
      <point x="334" y="405"/>
      <point x="260" y="153"/>
      <point x="252" y="136" type="curve" smooth="yes"/>
      <point x="246" y="123"/>
      <point x="220" y="19"/>
      <point x="218" y="-4" type="curve"/>
      <point x="196" y="-5"/>
      <point x="160" y="-10"/>
      <point x="133" y="-16" type="curve"/>
      <point x="121" y="34"/>
      <point x="14" y="395"/>
      <point x="2" y="439" type="curve"/>
      <point x="33" y="446"/>
      <point x="66" y="457"/>
      <point x="101" y="472" type="curve"/>
      <point x="109" y="431"/>
      <point x="147" y="250"/>
      <point x="159" y="213" type="curve" smooth="yes"/>
      <point x="163" y="202"/>
      <point x="172" y="160"/>
      <point x="175" y="144" type="curve"/>
      <point x="181" y="167"/>
      <point x="198" y="262"/>
      <point x="201" y="269" type="curve"/>
      <point x="211" y="304"/>
      <point x="242" y="434"/>
      <point x="244" y="461" type="curve"/>
      <point x="275" y="453"/>
      <point x="314" y="442"/>
    </contour>
  </outline>
</glyph>
<glyph name="w" format="1">
  <advance width="508"/>
  <unicode hex="0077"/>
  <outline>
    <contour>
      <point x="503" y="447" type="curve"/>
      <point x="488" y="407"/>
      <point x="422" y="158"/>
      <point x="417" y="143" type="curve" smooth="yes"/>
      <point x="413" y="130"/>
      <point x="392" y="23"/>
      <point x="387" y="-11" type="curve"/>
      <point x="364" y="-11"/>
      <point x="332" y="-9"/>
      <point x="304" y="-13" type="curve"/>
      <point x="297" y="24"/>
      <point x="257" y="189"/>
      <point x="249" y="231" type="curve"/>
      <point x="241" y="189"/>
      <point x="197" y="40"/>
      <point x="194" y="4" type="curve"/>
      <point x="166" y="1"/>
      <point x="137" y="1"/>
      <point x="109" y="-8" type="curve"/>
      <point x="101" y="42"/>
      <point x="13" y="415"/>
      <point x="-2" y="455" type="curve"/>
      <point x="26" y="459"/>
      <point x="62" y="470"/>
      <point x="99" y="483" type="curve"/>
      <point x="103" y="448"/>
      <point x="121" y="352"/>
      <point x="125" y="340" type="curve"/>
      <point x="130" y="329"/>
      <point x="153" y="205"/>
      <point x="157" y="183" type="curve"/>
      <point x="167" y="234"/>
      <point x="211" y="420"/>
      <point x="208" y="447" type="curve"/>
      <point x="227" y="449"/>
      <point x="262" y="451"/>
      <point x="285" y="459" type="curve"/>
      <point x="294" y="428"/>
      <point x="331" y="242"/>
      <point x="341" y="193" type="curve"/>
      <point x="351" y="242"/>
      <point x="395" y="443"/>
      <point x="397" y="471" type="curve"/>
      <point x="421" y="464"/>
      <point x="473" y="451"/>
    </contour>
  </outline>
</glyph>
<glyph name="x" format="1">
  <advance width="359"/>
  <unicode hex="0078"/>
  <outline>
    <contour>
      <point x="351" y="435" type="curve"/>
      <point x="333" y="411"/>
      <point x="303" y="347"/>
      <point x="296" y="338" type="curve"/>
      <point x="291" y="330"/>
      <point x="252" y="243"/>
      <point x="238" y="218" type="curve"/>
      <point x="252" y="194"/>
      <point x="318" y="73"/>
      <point x="342" y="38" type="curve"/>
      <point x="306" y="30"/>
      <point x="262" y="14"/>
      <point x="230" y="-2" type="curve"/>
      <point x="222" y="29"/>
      <point x="193" y="98"/>
      <point x="186" y="118" type="curve" smooth="yes"/>
      <point x="178" y="142" type="line"/>
      <point x="178" y="142"/>
      <point x="125" y="8"/>
      <point x="116" y="-26" type="curve"/>
      <point x="86" y="-16"/>
      <point x="43" y="-5"/>
      <point x="7" y="0" type="curve"/>
      <point x="31" y="41"/>
      <point x="109" y="191"/>
      <point x="127" y="224" type="curve"/>
      <point x="109" y="257"/>
      <point x="35" y="393"/>
      <point x="16" y="422" type="curve"/>
      <point x="44" y="430"/>
      <point x="97" y="453"/>
      <point x="126" y="465" type="curve"/>
      <point x="133" y="440"/>
      <point x="176" y="337"/>
      <point x="192" y="300" type="curve"/>
      <point x="211" y="343"/>
      <point x="251" y="446"/>
      <point x="258" y="469" type="curve"/>
      <point x="284" y="456"/>
      <point x="310" y="445"/>
    </contour>
  </outline>
</glyph>
<glyph name="y" format="1">
  <advance width="372"/>
  <unicode hex="0079"/>
  <outline>
    <contour>
      <point x="369" y="435" type="curve"/>
      <point x="349" y="382"/>
      <point x="182" y="-132"/>
      <point x="166" y="-190" type="curve"/>
      <point x="128" y="-179"/>
      <point x="112" y="-172"/>
      <point x="66" y="-169" type="curve"/>
      <point x="90" y="-117"/>
      <point x="134" y="23"/>
      <point x="143" y="50" type="curve"/>
      <point x="139" y="64"/>
      <point x="121" y="111"/>
      <point x="114" y="132" type="curve" smooth="yes"/>
      <point x="102" y="171"/>
      <point x="16" y="401"/>
      <point x="0" y="440" type="curve"/>
      <point x="42" y="450"/>
      <point x="69" y="457"/>
      <point x="101" y="471" type="curve"/>
      <point x="127" y="402"/>
      <point x="181" y="205"/>
      <point x="193" y="171" type="curve"/>
      <point x="211" y="228"/>
      <point x="262" y="433"/>
      <point x="267" y="466" type="curve"/>
      <point x="300" y="449"/>
      <point x="336" y="440"/>
    </contour>
  </outline>
</glyph>
<glyph name="z" format="1">
  <advance width="331"/>
  <unicode hex="007A"/>
  <outline>
    <contour>
      <point x="322" y="441" type="curve"/>
      <point x="298" y="410"/>
      <point x="249" y="306"/>
      <point x="243" y="297" type="curve" smooth="yes"/>
      <point x="235" y="284"/>
      <point x="165" y="130"/>
      <point x="143" y="86" type="curve"/>
      <point x="177" y="82"/>
      <point x="281" y="67"/>
      <point x="315" y="67" type="curve"/>
      <point x="304" y="33"/>
      <point x="300" y="7"/>
      <point x="297" y="-20" type="curve"/>
      <point x="262" y="-16"/>
      <point x="170" y="-1"/>
      <point x="124" y="4" type="curve" smooth="yes"/>
      <point x="85" y="8"/>
      <point x="49" y="12"/>
      <point x="3" y="12" type="curve"/>
      <point x="31" y="73"/>
      <point x="125" y="270"/>
      <point x="134" y="288" type="curve" smooth="yes"/>
      <point x="147" y="313"/>
      <point x="163" y="355"/>
      <point x="169" y="366" type="curve"/>
      <point x="152" y="366"/>
      <point x="97" y="367"/>
      <point x="97" y="367" type="curve"/>
      <point x="34" y="373" type="line"/>
      <point x="41" y="404"/>
      <point x="44" y="431"/>
      <point x="44" y="461" type="curve"/>
      <point x="97" y="455"/>
      <point x="260" y="443"/>
    </contour>
  </outline>
</glyph>
<glyph name="braceleft" format="1">
  <advance width="306"/>
  <unicode hex="007B"/>
  <outline>
    <contour>
      <point x="299" y="689" type="curve"/>
      <point x="233" y="656"/>
      <point x="202" y="602"/>
      <point x="202" y="532" type="curve" smooth="yes"/>
      <point x="202" y="503"/>
      <point x="208" y="462"/>
      <point x="220" y="426" type="curve" smooth="yes"/>
      <point x="224" y="416"/>
      <point x="225" y="406"/>
      <point x="225" y="397" type="curve" smooth="yes"/>
      <point x="225" y="361"/>
      <point x="198" y="324"/>
      <point x="150" y="313" type="curve"/>
      <point x="182" y="301"/>
      <point x="198" y="274"/>
      <point x="198" y="249" type="curve" smooth="yes"/>
      <point x="198" y="242"/>
      <point x="197" y="234"/>
      <point x="194" y="226" type="curve" smooth="yes"/>
      <point x="174" y="162"/>
      <point x="165" y="111"/>
      <point x="165" y="72" type="curve" smooth="yes"/>
      <point x="165" y="-11"/>
      <point x="208" y="-54"/>
      <point x="294" y="-92" type="curve"/>
      <point x="281" y="-117"/>
      <point x="269" y="-147"/>
      <point x="261" y="-170" type="curve"/>
      <point x="151" y="-137"/>
      <point x="68" y="-70"/>
      <point x="68" y="69" type="curve" smooth="yes"/>
      <point x="68" y="111"/>
      <point x="76" y="157"/>
      <point x="95" y="216" type="curve" smooth="yes"/>
      <point x="96" y="220"/>
      <point x="98" y="228"/>
      <point x="98" y="233" type="curve" smooth="yes"/>
      <point x="98" y="258"/>
      <point x="75" y="282"/>
      <point x="13" y="291" type="curve"/>
      <point x="20" y="316"/>
      <point x="24" y="338"/>
      <point x="25" y="362" type="curve"/>
      <point x="81" y="356"/>
      <point x="125" y="369"/>
      <point x="125" y="394" type="curve" smooth="yes"/>
      <point x="125" y="398"/>
      <point x="124" y="402"/>
      <point x="123" y="405" type="curve" smooth="yes"/>
      <point x="107" y="450"/>
      <point x="100" y="487"/>
      <point x="100" y="525" type="curve" smooth="yes"/>
      <point x="100" y="652"/>
      <point x="178" y="739"/>
      <point x="278" y="768" type="curve"/>
      <point x="283" y="741"/>
      <point x="291" y="707"/>
    </contour>
  </outline>
</glyph>
<glyph name="bar" format="1">
  <advance width="229"/>
  <unicode hex="007C"/>
  <outline>
    <contour>
      <point x="172" y="702" type="curve"/>
      <point x="159" y="530"/>
      <point x="150" y="27"/>
      <point x="148" y="-169" type="curve"/>
      <point x="115" y="-166"/>
      <point x="83" y="-167"/>
      <point x="55" y="-170" type="curve"/>
      <point x="64" y="17"/>
      <point x="77" y="539"/>
      <point x="72" y="701" type="curve"/>
      <point x="106" y="696"/>
      <point x="137" y="699"/>
    </contour>
  </outline>
</glyph>
<glyph name="braceright" format="1">
  <advance width="306"/>
  <unicode hex="007D"/>
  <outline>
    <contour>
      <point x="291" y="270" type="curve"/>
      <point x="247" y="263"/>
      <point x="224" y="234"/>
      <point x="224" y="214" type="curve" smooth="yes"/>
      <point x="224" y="207"/>
      <point x="227" y="199"/>
      <point x="229" y="193" type="curve"/>
      <point x="242" y="167"/>
      <point x="249" y="138"/>
      <point x="249" y="113" type="curve" smooth="yes"/>
      <point x="249" y="-7"/>
      <point x="158" y="-123"/>
      <point x="45" y="-168" type="curve"/>
      <point x="31" y="-142"/>
      <point x="17" y="-121"/>
      <point x="-5" y="-96" type="curve"/>
      <point x="92" y="-52"/>
      <point x="153" y="31"/>
      <point x="153" y="105" type="curve" smooth="yes"/>
      <point x="153" y="122"/>
      <point x="149" y="137"/>
      <point x="141" y="153" type="curve" smooth="yes"/>
      <point x="133" y="167"/>
      <point x="125" y="190"/>
      <point x="125" y="212" type="curve" smooth="yes"/>
      <point x="125" y="243"/>
      <point x="139" y="278"/>
      <point x="175" y="294" type="curve"/>
      <point x="125" y="307"/>
      <point x="99" y="346"/>
      <point x="99" y="379" type="curve" smooth="yes"/>
      <point x="99" y="387"/>
      <point x="101" y="398"/>
      <point x="103" y="404" type="curve" smooth="yes"/>
      <point x="114" y="436"/>
      <point x="119" y="467"/>
      <point x="119" y="499" type="curve" smooth="yes"/>
      <point x="119" y="578"/>
      <point x="96" y="653"/>
      <point x="-7" y="678" type="curve"/>
      <point x="9" y="704"/>
      <point x="18" y="727"/>
      <point x="28" y="753" type="curve"/>
      <point x="172" y="724"/>
      <point x="214" y="613"/>
      <point x="214" y="503" type="curve" smooth="yes"/>
      <point x="214" y="464"/>
      <point x="208" y="434"/>
      <point x="199" y="407" type="curve"/>
      <point x="198" y="402"/>
      <point x="194" y="390"/>
      <point x="194" y="384" type="curve" smooth="yes"/>
      <point x="194" y="364"/>
      <point x="236" y="346"/>
      <point x="291" y="352" type="curve"/>
      <point x="289" y="318"/>
      <point x="289" y="296"/>
    </contour>
  </outline>
</glyph>
<glyph name="asciitilde" format="1">
  <advance width="568"/>
  <unicode hex="007E"/>
  <outline>
    <contour>
      <point x="548" y="375" type="line"/>
      <point x="494" y="280"/>
      <point x="418" y="225"/>
      <point x="341" y="225" type="curve" smooth="yes"/>
      <point x="306" y="225"/>
      <point x="276" y="241"/>
      <point x="250" y="259" type="curve" smooth="yes"/>
      <point x="223" y="278"/>
      <point x="201" y="299"/>
      <point x="181" y="299" type="curve" smooth="yes"/>
      <point x="156" y="299"/>
      <point x="126" y="269"/>
      <point x="101" y="231" type="curve"/>
      <point x="25" y="288" type="line"/>
      <point x="83" y="371"/>
      <point x="140" y="410"/>
      <point x="187" y="410" type="curve" smooth="yes"/>
      <point x="222" y="410"/>
      <point x="252" y="387"/>
      <point x="282" y="364" type="curve" smooth="yes"/>
      <point x="303" y="347"/>
      <point x="325" y="331"/>
      <point x="350" y="331" type="curve" smooth="yes"/>
      <point x="392" y="331"/>
      <point x="440" y="372"/>
      <point x="471" y="430" type="curve"/>
    </contour>
  </outline>
</glyph>
<glyph name="exclamdown" format="1">
  <advance width="173"/>
  <unicode hex="00A1"/>
  <outline>
    <contour>
      <point x="151" y="432" type="curve" smooth="yes"/>
      <point x="151" y="395"/>
      <point x="122" y="372"/>
      <point x="83" y="372" type="curve" smooth="yes"/>
      <point x="46" y="372"/>
      <point x="18" y="397"/>
      <point x="18" y="433" type="curve" smooth="yes"/>
      <point x="18" y="465"/>
      <point x="41" y="494"/>
      <point x="82" y="494" type="curve" smooth="yes"/>
      <point x="118" y="494"/>
      <point x="151" y="468"/>
    </contour>
    <contour>
      <point x="152" y="-171" type="curve"/>
      <point x="121" y="-180"/>
      <point x="85" y="-189"/>
      <point x="32" y="-211" type="curve"/>
      <point x="39" y="-90"/>
      <point x="36" y="215"/>
      <point x="42" y="304" type="curve"/>
      <point x="78" y="292"/>
      <point x="99" y="288"/>
      <point x="132" y="284" type="curve"/>
      <point x="134" y="181"/>
      <point x="141" y="-34"/>
    </contour>
  </outline>
</glyph>
<glyph name="cent" format="1">
  <advance width="308"/>
  <unicode hex="00A2"/>
  <outline>
    <contour>
      <point x="293" y="71" type="curve"/>
      <point x="282" y="37"/>
      <point x="274" y="3"/>
      <point x="271" y="-25" type="curve"/>
      <point x="250" y="-22"/>
      <point x="231" y="-18"/>
      <point x="213" y="-13" type="curve"/>
      <point x="211" y="-108" type="line"/>
      <point x="120" y="-100" type="line"/>
      <point x="125" y="21" type="line"/>
      <point x="49" y="64"/>
      <point x="17" y="132"/>
      <point x="17" y="231" type="curve" smooth="yes"/>
      <point x="17" y="292"/>
      <point x="32" y="350"/>
      <point x="58" y="384" type="curve" smooth="yes"/>
      <point x="77" y="408"/>
      <point x="96" y="425"/>
      <point x="122" y="438" type="curve"/>
      <point x="121" y="556" type="line"/>
      <point x="212" y="553" type="line"/>
      <point x="216" y="465" type="line"/>
      <point x="232" y="468"/>
      <point x="250" y="470"/>
      <point x="270" y="473" type="curve"/>
      <point x="281" y="384" type="line"/>
      <point x="245" y="383"/>
      <point x="213" y="376"/>
      <point x="206" y="375" type="curve"/>
      <point x="155" y="359"/>
      <point x="123" y="321"/>
      <point x="123" y="241" type="curve" smooth="yes"/>
      <point x="123" y="173"/>
      <point x="140" y="102"/>
      <point x="222" y="81" type="curve" smooth="yes"/>
      <point x="236" y="78"/>
      <point x="256" y="71"/>
    </contour>
  </outline>
</glyph>
<glyph name="sterling" format="1">
  <advance width="377"/>
  <unicode hex="00A3"/>
  <outline>
    <contour>
      <point x="366" y="71" type="line"/>
      <point x="316" y="7"/>
      <point x="234" y="-13"/>
      <point x="154" y="-13" type="curve" smooth="yes"/>
      <point x="110" y="-13"/>
      <point x="65" y="-7"/>
      <point x="27" y="2" type="curve"/>
      <point x="15" y="71" type="line"/>
      <point x="69" y="81"/>
      <point x="103" y="127"/>
      <point x="103" y="172" type="curve" smooth="yes"/>
      <point x="103" y="210"/>
      <point x="94" y="248"/>
      <point x="86" y="281" type="curve"/>
      <point x="59" y="282"/>
      <point x="34" y="282"/>
      <point x="6" y="279" type="curve"/>
      <point x="15" y="312"/>
      <point x="20" y="349"/>
      <point x="21" y="362" type="curve"/>
      <point x="27" y="362"/>
      <point x="54" y="363"/>
      <point x="67" y="363" type="curve"/>
      <point x="58" y="390"/>
      <point x="53" y="423"/>
      <point x="53" y="457" type="curve" smooth="yes"/>
      <point x="53" y="547"/>
      <point x="110" y="670"/>
      <point x="208" y="670" type="curve" smooth="yes"/>
      <point x="246" y="670"/>
      <point x="277" y="657"/>
      <point x="327" y="637" type="curve"/>
      <point x="296" y="545" type="line"/>
      <point x="258" y="561"/>
      <point x="244" y="570"/>
      <point x="220" y="570" type="curve" smooth="yes"/>
      <point x="176" y="570"/>
      <point x="156" y="502"/>
      <point x="156" y="438" type="curve" smooth="yes"/>
      <point x="156" y="410"/>
      <point x="161" y="382"/>
      <point x="165" y="362" type="curve"/>
      <point x="216" y="361"/>
      <point x="269" y="361"/>
      <point x="301" y="364" type="curve"/>
      <point x="290" y="328"/>
      <point x="286" y="303"/>
      <point x="283" y="274" type="curve"/>
      <point x="258" y="277"/>
      <point x="226" y="278"/>
      <point x="193" y="280" type="curve"/>
      <point x="201" y="258"/>
      <point x="206" y="227"/>
      <point x="206" y="200" type="curve" smooth="yes"/>
      <point x="206" y="160"/>
      <point x="194" y="104"/>
      <point x="167" y="78" type="curve"/>
      <point x="208" y="77"/>
      <point x="266" y="91"/>
      <point x="303" y="138" type="curve"/>
    </contour>
  </outline>
</glyph>
<glyph name="yen" format="1">
  <advance width="406"/>
  <unicode hex="00A5"/>
  <outline>
    <contour>
      <point x="399" y="638" type="curve"/>
      <point x="356" y="536"/>
      <point x="289" y="367"/>
      <point x="265" y="306" type="curve"/>
      <point x="265" y="293"/>
      <point x="266" y="267"/>
      <point x="268" y="229" type="curve"/>
      <point x="308" y="230"/>
      <point x="345" y="231"/>
      <point x="363" y="233" type="curve"/>
      <point x="356" y="203"/>
      <point x="358" y="164"/>
      <point x="358" y="133" type="curve"/>
      <point x="343" y="134"/>
      <point x="309" y="135"/>
      <point x="269" y="137" type="curve"/>
      <point x="270" y="83"/>
      <point x="270" y="33"/>
      <point x="269" y="3" type="curve"/>
      <point x="234" y="5"/>
      <point x="190" y="6"/>
      <point x="149" y="6" type="curve"/>
      <point x="154" y="37"/>
      <point x="157" y="85"/>
      <point x="159" y="138" type="curve"/>
      <point x="121" y="138"/>
      <point x="87" y="139"/>
      <point x="69" y="139" type="curve"/>
      <point x="69" y="162"/>
      <point x="66" y="199"/>
      <point x="62" y="229" type="curve"/>
      <point x="82" y="228"/>
      <point x="120" y="228"/>
      <point x="162" y="227" type="curve"/>
      <point x="163" y="254"/>
      <point x="164" y="273"/>
      <point x="164" y="292" type="curve"/>
      <point x="132" y="371"/>
      <point x="41" y="560"/>
      <point x="2" y="636" type="curve"/>
      <point x="46" y="645"/>
      <point x="81" y="655"/>
      <point x="120" y="673" type="curve"/>
      <point x="133" y="622"/>
      <point x="180" y="486"/>
      <point x="213" y="415" type="curve"/>
      <point x="240" y="495"/>
      <point x="269" y="597"/>
      <point x="284" y="677" type="curve"/>
      <point x="328" y="658"/>
      <point x="356" y="648"/>
    </contour>
  </outline>
</glyph>
<glyph name="section" format="1">
  <advance width="403"/>
  <unicode hex="00A7"/>
  <outline>
    <contour>
      <point x="391" y="285" type="curve" smooth="yes"/>
      <point x="391" y="201"/>
      <point x="352" y="143"/>
      <point x="290" y="97" type="curve"/>
      <point x="316" y="74"/>
      <point x="340" y="45"/>
      <point x="340" y="5" type="curve" smooth="yes"/>
      <point x="340" y="-110"/>
      <point x="267" y="-171"/>
      <point x="76" y="-186" type="curve"/>
      <point x="78" y="-150"/>
      <point x="78" y="-130"/>
      <point x="75" y="-88" type="curve"/>
      <point x="174" y="-88"/>
      <point x="238" y="-56"/>
      <point x="238" y="-9" type="curve" smooth="yes"/>
      <point x="238" y="25"/>
      <point x="174" y="47"/>
      <point x="125" y="79" type="curve" smooth="yes"/>
      <point x="68" y="116"/>
      <point x="12" y="163"/>
      <point x="12" y="233" type="curve" smooth="yes"/>
      <point x="12" y="311"/>
      <point x="51" y="357"/>
      <point x="118" y="399" type="curve"/>
      <point x="86" y="427"/>
      <point x="62" y="459"/>
      <point x="62" y="504" type="curve" smooth="yes"/>
      <point x="62" y="606"/>
      <point x="173" y="681"/>
      <point x="336" y="675" type="curve"/>
      <point x="334" y="644"/>
      <point x="332" y="615"/>
      <point x="335" y="582" type="curve"/>
      <point x="237" y="580"/>
      <point x="170" y="561"/>
      <point x="170" y="514" type="curve" smooth="yes"/>
      <point x="170" y="471"/>
      <point x="227" y="451"/>
      <point x="273" y="426" type="curve" smooth="yes"/>
      <point x="332" y="393"/>
      <point x="391" y="356"/>
    </contour>
    <contour>
      <point x="289" y="271" type="curve" smooth="yes"/>
      <point x="289" y="301"/>
      <point x="243" y="328"/>
      <point x="201" y="347" type="curve"/>
      <point x="153" y="327"/>
      <point x="120" y="286"/>
      <point x="120" y="244" type="curve" smooth="yes"/>
      <point x="120" y="202"/>
      <point x="166" y="172"/>
      <point x="212" y="149" type="curve"/>
      <point x="252" y="173"/>
      <point x="289" y="211"/>
    </contour>
  </outline>
</glyph>
<glyph name="dieresis" format="1">
  <advance width="315"/>
  <unicode hex="00A8"/>
  <outline>
    <contour>
      <point x="286" y="581" type="curve" smooth="yes"/>
      <point x="286" y="551"/>
      <point x="258" y="524"/>
      <point x="232" y="524" type="curve" smooth="yes"/>
      <point x="203" y="524"/>
      <point x="172" y="546"/>
      <point x="172" y="576" type="curve" smooth="yes"/>
      <point x="172" y="612"/>
      <point x="203" y="631"/>
      <point x="233" y="631" type="curve" smooth="yes"/>
      <point x="260" y="631"/>
      <point x="286" y="617"/>
    </contour>
    <contour>
      <point x="140" y="575" type="curve" smooth="yes"/>
      <point x="140" y="542"/>
      <point x="109" y="516"/>
      <point x="83" y="516" type="curve" smooth="yes"/>
      <point x="54" y="516"/>
      <point x="26" y="539"/>
      <point x="26" y="575" type="curve" smooth="yes"/>
      <point x="26" y="600"/>
      <point x="44" y="630"/>
      <point x="82" y="630" type="curve" smooth="yes"/>
      <point x="114" y="630"/>
      <point x="140" y="603"/>
    </contour>
  </outline>
</glyph>
<glyph name="copyright" format="1">
  <advance width="618"/>
  <unicode hex="00A9"/>
  <outline>
    <contour>
      <point x="593" y="318" type="curve" smooth="yes"/>
      <point x="593" y="171"/>
      <point x="483" y="-4"/>
      <point x="320" y="-4" type="curve" smooth="yes"/>
      <point x="166" y="-4"/>
      <point x="25" y="153"/>
      <point x="25" y="344" type="curve" smooth="yes"/>
      <point x="25" y="535"/>
      <point x="144" y="681"/>
      <point x="336" y="681" type="curve" smooth="yes"/>
      <point x="478" y="681"/>
      <point x="593" y="505"/>
    </contour>
    <contour>
      <point x="521" y="311" type="curve" smooth="yes"/>
      <point x="521" y="476"/>
      <point x="437" y="620"/>
      <point x="323" y="620" type="curve" smooth="yes"/>
      <point x="172" y="620"/>
      <point x="97" y="485"/>
      <point x="97" y="342" type="curve" smooth="yes"/>
      <point x="97" y="187"/>
      <point x="200" y="58"/>
      <point x="309" y="58" type="curve" smooth="yes"/>
      <point x="430" y="58"/>
      <point x="521" y="158"/>
    </contour>
    <contour>
      <point x="397" y="188" type="curve"/>
      <point x="389" y="162"/>
      <point x="388" y="154"/>
      <point x="384" y="120" type="curve"/>
      <point x="214" y="148"/>
      <point x="172" y="219"/>
      <point x="172" y="345" type="curve" smooth="yes"/>
      <point x="172" y="459"/>
      <point x="215" y="557"/>
      <point x="337" y="557" type="curve" smooth="yes"/>
      <point x="352" y="557"/>
      <point x="368" y="555"/>
      <point x="385" y="554" type="curve"/>
      <point x="383" y="532"/>
      <point x="384" y="512"/>
      <point x="386" y="493" type="curve"/>
      <point x="382" y="493"/>
      <point x="379" y="493"/>
      <point x="375" y="493" type="curve" smooth="yes"/>
      <point x="295" y="493"/>
      <point x="255" y="457"/>
      <point x="255" y="343" type="curve" smooth="yes"/>
      <point x="255" y="251"/>
      <point x="286" y="201"/>
    </contour>
  </outline>
</glyph>
<glyph name="ordfeminine" format="1">
  <advance width="255"/>
  <unicode hex="00AA"/>
  <outline>
    <contour>
      <point x="237" y="346" type="curve"/>
      <point x="211" y="340"/>
      <point x="192" y="336"/>
      <point x="168" y="325" type="curve"/>
      <point x="163" y="339"/>
      <point x="160" y="367"/>
      <point x="159" y="379" type="curve"/>
      <point x="143" y="363"/>
      <point x="110" y="342"/>
      <point x="81" y="342" type="curve" smooth="yes"/>
      <point x="53" y="342"/>
      <point x="8" y="384"/>
      <point x="8" y="444" type="curve" smooth="yes"/>
      <point x="8" y="474"/>
      <point x="15" y="512"/>
      <point x="52" y="529" type="curve" smooth="yes"/>
      <point x="93" y="548"/>
      <point x="136" y="560"/>
      <point x="156" y="566" type="curve"/>
      <point x="155" y="590"/>
      <point x="153" y="602"/>
      <point x="144" y="607" type="curve" smooth="yes"/>
      <point x="128" y="615"/>
      <point x="104" y="617"/>
      <point x="66" y="617" type="curve"/>
      <point x="66" y="617"/>
      <point x="71" y="659"/>
      <point x="70" y="683" type="curve"/>
      <point x="122" y="677"/>
      <point x="175" y="668"/>
      <point x="196" y="656" type="curve" smooth="yes"/>
      <point x="220" y="643"/>
      <point x="230" y="612"/>
      <point x="230" y="587" type="curve" smooth="yes"/>
      <point x="230" y="583"/>
      <point x="230" y="485"/>
      <point x="230" y="419" type="curve" smooth="yes"/>
      <point x="230" y="393"/>
      <point x="233" y="362"/>
    </contour>
    <contour>
      <point x="156" y="510" type="curve"/>
      <point x="149" y="506"/>
      <point x="119" y="497"/>
      <point x="109" y="492" type="curve" smooth="yes"/>
      <point x="94" y="485"/>
      <point x="78" y="469"/>
      <point x="78" y="452" type="curve" smooth="yes"/>
      <point x="78" y="426"/>
      <point x="88" y="409"/>
      <point x="105" y="409" type="curve" smooth="yes"/>
      <point x="124" y="408"/>
      <point x="148" y="430"/>
      <point x="154" y="437" type="curve"/>
      <point x="155" y="445"/>
      <point x="157" y="499"/>
    </contour>
  </outline>
</glyph>
<glyph name="guillemotleft" format="1">
  <advance width="412"/>
  <unicode hex="00AB"/>
  <outline>
    <contour>
      <point x="397" y="105" type="curve"/>
      <point x="368" y="95"/>
      <point x="334" y="75"/>
      <point x="309" y="59" type="curve"/>
      <point x="286" y="93"/>
      <point x="221" y="179"/>
      <point x="196" y="201" type="curve"/>
      <point x="196" y="267" type="line"/>
      <point x="209" y="276"/>
      <point x="292" y="376"/>
      <point x="314" y="409" type="curve"/>
      <point x="334" y="389"/>
      <point x="369" y="365"/>
      <point x="397" y="352" type="curve"/>
      <point x="373" y="332"/>
      <point x="315" y="253"/>
      <point x="304" y="234" type="curve"/>
      <point x="316" y="213"/>
      <point x="362" y="144"/>
    </contour>
    <contour>
      <point x="212" y="357" type="curve"/>
      <point x="176" y="318"/>
      <point x="130" y="249"/>
      <point x="118" y="228" type="curve"/>
      <point x="130" y="208"/>
      <point x="190" y="128"/>
      <point x="210" y="110" type="curve"/>
      <point x="183" y="96"/>
      <point x="149" y="72"/>
      <point x="128" y="53" type="curve"/>
      <point x="106" y="86"/>
      <point x="24" y="186"/>
      <point x="10" y="194" type="curve"/>
      <point x="10" y="261" type="line"/>
      <point x="36" y="282"/>
      <point x="100" y="368"/>
      <point x="124" y="403" type="curve"/>
      <point x="148" y="386"/>
      <point x="183" y="366"/>
    </contour>
  </outline>
</glyph>
<glyph name="macron" format="1">
  <advance width="315"/>
  <unicode hex="00AF"/>
  <unicode hex="02C9"/>
  <outline>
    <contour>
      <point x="267" y="589" type="line"/>
      <point x="257" y="508" type="line"/>
      <point x="46" y="499" type="line"/>
      <point x="38" y="582" type="line"/>
    </contour>
  </outline>
</glyph>
<glyph name="degree" format="1">
  <advance width="347"/>
  <unicode hex="00B0"/>
  <outline>
    <contour>
      <point x="330" y="534" type="curve" smooth="yes"/>
      <point x="330" y="452"/>
      <point x="268" y="382"/>
      <point x="187" y="382" type="curve" smooth="yes"/>
      <point x="93" y="382"/>
      <point x="19" y="450"/>
      <point x="19" y="525" type="curve" smooth="yes"/>
      <point x="19" y="612"/>
      <point x="81" y="675"/>
      <point x="156" y="675" type="curve" smooth="yes"/>
      <point x="266" y="675"/>
      <point x="330" y="598"/>
    </contour>
    <contour>
      <point x="247" y="524" type="curve" smooth="yes"/>
      <point x="247" y="569"/>
      <point x="219" y="602"/>
      <point x="172" y="602" type="curve" smooth="yes"/>
      <point x="129" y="602"/>
      <point x="104" y="569"/>
      <point x="104" y="536" type="curve" smooth="yes"/>
      <point x="104" y="491"/>
      <point x="147" y="456"/>
      <point x="183" y="456" type="curve" smooth="yes"/>
      <point x="222" y="456"/>
      <point x="247" y="496"/>
    </contour>
  </outline>
</glyph>
<glyph name="acute" format="1">
  <advance width="315"/>
  <unicode hex="00B4"/>
  <outline>
    <contour>
      <point x="255" y="581" type="line"/>
      <point x="99" y="493" type="line"/>
      <point x="52" y="544" type="line"/>
      <point x="186" y="657" type="line"/>
    </contour>
  </outline>
</glyph>
<glyph name="paragraph" format="1">
  <advance width="434"/>
  <unicode hex="00B6"/>
  <outline>
    <contour>
      <point x="400" y="17" type="curve"/>
      <point x="370" y="22"/>
      <point x="343" y="27"/>
      <point x="310" y="30" type="curve"/>
      <point x="312" y="173"/>
      <point x="310" y="467"/>
      <point x="304" y="596" type="curve"/>
      <point x="208" y="592"/>
      <point x="111" y="559"/>
      <point x="111" y="481" type="curve" smooth="yes"/>
      <point x="111" y="439"/>
      <point x="152" y="401"/>
      <point x="187" y="391" type="curve"/>
      <point x="185" y="438"/>
      <point x="184" y="478"/>
      <point x="183" y="515" type="curve"/>
      <point x="215" y="510"/>
      <point x="245" y="511"/>
      <point x="277" y="511" type="curve"/>
      <point x="270" y="410"/>
      <point x="265" y="71"/>
      <point x="269" y="-38" type="curve"/>
      <point x="238" y="-33"/>
      <point x="217" y="-33"/>
      <point x="190" y="-36" type="curve"/>
      <point x="192" y="30"/>
      <point x="190" y="168"/>
      <point x="188" y="295" type="curve"/>
      <point x="89" y="320"/>
      <point x="11" y="400"/>
      <point x="11" y="499" type="curve" smooth="yes"/>
      <point x="11" y="616"/>
      <point x="189" y="680"/>
      <point x="339" y="680" type="curve" smooth="yes"/>
      <point x="357" y="680"/>
      <point x="374" y="676"/>
      <point x="392" y="673" type="curve"/>
      <point x="390" y="535"/>
      <point x="390" y="154"/>
    </contour>
  </outline>
</glyph>
<glyph name="periodcentered" format="1">
  <advance width="176"/>
  <unicode hex="00B7"/>
  <unicode hex="2219"/>
  <outline>
    <contour>
      <point x="154" y="328" type="curve" smooth="yes"/>
      <point x="154" y="292"/>
      <point x="131" y="268"/>
      <point x="94" y="268" type="curve" smooth="yes"/>
      <point x="46" y="268"/>
      <point x="21" y="295"/>
      <point x="21" y="329" type="curve" smooth="yes"/>
      <point x="21" y="359"/>
      <point x="44" y="389"/>
      <point x="90" y="389" type="curve" smooth="yes"/>
      <point x="134" y="389"/>
      <point x="154" y="370"/>
    </contour>
  </outline>
</glyph>
<glyph name="cedilla" format="1">
  <advance width="315"/>
  <unicode hex="00B8"/>
  <outline>
    <contour>
      <point x="220" y="-90" type="curve" smooth="yes"/>
      <point x="220" y="-125"/>
      <point x="198" y="-172"/>
      <point x="111" y="-185" type="curve"/>
      <point x="88" y="-133" type="line"/>
      <point x="119" y="-126"/>
      <point x="143" y="-116"/>
      <point x="143" y="-96" type="curve" smooth="yes"/>
      <point x="143" y="-78"/>
      <point x="127" y="-63"/>
      <point x="79" y="-56" type="curve"/>
      <point x="131" y="39" type="line"/>
      <point x="190" y="16" type="line"/>
      <point x="166" y="-30" type="line"/>
      <point x="196" y="-40"/>
      <point x="220" y="-61"/>
    </contour>
  </outline>
</glyph>
<glyph name="ordmasculine" format="1">
  <advance width="286"/>
  <unicode hex="00BA"/>
  <outline>
    <contour>
      <point x="271" y="533" type="curve" smooth="yes"/>
      <point x="271" y="418"/>
      <point x="207" y="347"/>
      <point x="141" y="347" type="curve" smooth="yes"/>
      <point x="99" y="347"/>
      <point x="66" y="367"/>
      <point x="40" y="408" type="curve" smooth="yes"/>
      <point x="24" y="434"/>
      <point x="15" y="462"/>
      <point x="15" y="506" type="curve" smooth="yes"/>
      <point x="15" y="627"/>
      <point x="73" y="675"/>
      <point x="142" y="675" type="curve" smooth="yes"/>
      <point x="206" y="675"/>
      <point x="271" y="642"/>
    </contour>
    <contour>
      <point x="194" y="513" type="curve" smooth="yes"/>
      <point x="194" y="584"/>
      <point x="162" y="609"/>
      <point x="133" y="609" type="curve" smooth="yes"/>
      <point x="107" y="609"/>
      <point x="90" y="587"/>
      <point x="90" y="520" type="curve" smooth="yes"/>
      <point x="90" y="458"/>
      <point x="110" y="415"/>
      <point x="146" y="415" type="curve" smooth="yes"/>
      <point x="173" y="415"/>
      <point x="194" y="448"/>
    </contour>
  </outline>
</glyph>
<glyph name="guillemotright" format="1">
  <advance width="412"/>
  <unicode hex="00BB"/>
  <outline>
    <contour>
      <point x="396" y="201" type="line"/>
      <point x="371" y="179"/>
      <point x="306" y="93"/>
      <point x="284" y="59" type="curve"/>
      <point x="259" y="75"/>
      <point x="224" y="95"/>
      <point x="196" y="105" type="curve"/>
      <point x="231" y="144"/>
      <point x="277" y="213"/>
      <point x="289" y="234" type="curve"/>
      <point x="277" y="253"/>
      <point x="217" y="333"/>
      <point x="197" y="352" type="curve"/>
      <point x="224" y="365"/>
      <point x="258" y="389"/>
      <point x="279" y="409" type="curve"/>
      <point x="301" y="376"/>
      <point x="383" y="276"/>
      <point x="396" y="267" type="curve"/>
    </contour>
    <contour>
      <point x="211" y="194" type="line"/>
      <point x="198" y="186"/>
      <point x="115" y="86"/>
      <point x="94" y="53" type="curve"/>
      <point x="73" y="72"/>
      <point x="38" y="96"/>
      <point x="10" y="110" type="curve"/>
      <point x="34" y="130"/>
      <point x="91" y="208"/>
      <point x="103" y="228" type="curve"/>
      <point x="91" y="249"/>
      <point x="44" y="320"/>
      <point x="9" y="357" type="curve"/>
      <point x="39" y="366"/>
      <point x="73" y="386"/>
      <point x="98" y="403" type="curve"/>
      <point x="121" y="368"/>
      <point x="186" y="282"/>
      <point x="211" y="261" type="curve"/>
    </contour>
  </outline>
</glyph>
<glyph name="questiondown" format="1">
  <advance width="263"/>
  <unicode hex="00BF"/>
  <outline>
    <contour>
      <point x="213" y="403" type="curve" smooth="yes"/>
      <point x="213" y="366"/>
      <point x="183" y="343"/>
      <point x="145" y="343" type="curve" smooth="yes"/>
      <point x="109" y="343"/>
      <point x="81" y="368"/>
      <point x="81" y="404" type="curve" smooth="yes"/>
      <point x="81" y="436"/>
      <point x="103" y="466"/>
      <point x="143" y="466" type="curve" smooth="yes"/>
      <point x="181" y="466"/>
      <point x="213" y="440"/>
    </contour>
    <contour>
      <point x="263" y="-114" type="curve"/>
      <point x="246" y="-143"/>
      <point x="235" y="-181"/>
      <point x="224" y="-209" type="curve"/>
      <point x="73" y="-179"/>
      <point x="7" y="-132"/>
      <point x="7" y="-51" type="curve" smooth="yes"/>
      <point x="7" y="11"/>
      <point x="46" y="92"/>
      <point x="117" y="201" type="curve"/>
      <point x="90" y="280" type="line"/>
      <point x="184" y="309" type="line"/>
      <point x="223" y="190" type="line"/>
      <point x="162" y="102"/>
      <point x="124" y="36"/>
      <point x="124" y="-10" type="curve" smooth="yes"/>
      <point x="124" y="-65"/>
      <point x="171" y="-97"/>
    </contour>
  </outline>
</glyph>
<glyph name="Aring" format="1">
  <advance width="408"/>
  <unicode hex="00C5"/>
  <outline>
    <contour>
      <point x="402" y="7" type="curve"/>
      <point x="375" y="2"/>
      <point x="324" y="-10"/>
      <point x="294" y="-19" type="curve"/>
      <point x="290" y="18"/>
      <point x="271" y="81"/>
      <point x="266" y="119" type="curve" smooth="yes"/>
      <point x="265" y="126"/>
      <point x="264" y="133"/>
      <point x="264" y="139" type="curve"/>
      <point x="241" y="138"/>
      <point x="158" y="134"/>
      <point x="138" y="133" type="curve"/>
      <point x="133" y="105"/>
      <point x="114" y="13"/>
      <point x="110" y="-18" type="curve"/>
      <point x="76" y="-3"/>
      <point x="35" y="12"/>
      <point x="6" y="20" type="curve"/>
      <point x="16" y="61"/>
      <point x="85" y="357"/>
      <point x="117" y="565" type="curve" smooth="yes"/>
      <point x="122" y="598"/>
      <point x="131" y="646"/>
      <point x="131" y="663" type="curve"/>
      <point x="155" y="666"/>
      <point x="217" y="670"/>
      <point x="239" y="674" type="curve"/>
      <point x="247" y="638"/>
      <point x="391" y="52"/>
    </contour>
    <contour>
      <point x="242" y="233" type="curve"/>
      <point x="234" y="271"/>
      <point x="203" y="435"/>
      <point x="192" y="483" type="curve"/>
      <point x="185" y="432"/>
      <point x="158" y="258"/>
      <point x="153" y="228" type="curve"/>
      <point x="171" y="231"/>
      <point x="221" y="230"/>
    </contour>
    <contour>
      <point x="287" y="799" type="curve" smooth="yes"/>
      <point x="287" y="742"/>
      <point x="230" y="704"/>
      <point x="185" y="704" type="curve" smooth="yes"/>
      <point x="138" y="704"/>
      <point x="81" y="744"/>
      <point x="81" y="808" type="curve" smooth="yes"/>
      <point x="81" y="864"/>
      <point x="128" y="894"/>
      <point x="189" y="894" type="curve" smooth="yes"/>
      <point x="258" y="894"/>
      <point x="287" y="845"/>
    </contour>
    <contour>
      <point x="226" y="810" type="curve" smooth="yes"/>
      <point x="226" y="827"/>
      <point x="209" y="841"/>
      <point x="185" y="841" type="curve" smooth="yes"/>
      <point x="152" y="841"/>
      <point x="140" y="826"/>
      <point x="140" y="798" type="curve" smooth="yes"/>
      <point x="140" y="779"/>
      <point x="158" y="760"/>
      <point x="178" y="760" type="curve" smooth="yes"/>
      <point x="209" y="760"/>
      <point x="226" y="779"/>
    </contour>
  </outline>
</glyph>
<glyph name="AE" format="1">
  <advance width="590"/>
  <unicode hex="00C6"/>
  <outline>
    <contour>
      <point x="569" y="96" type="curve"/>
      <point x="566" y="70"/>
      <point x="559" y="31"/>
      <point x="553" y="-6" type="curve"/>
      <point x="528" y="-2"/>
      <point x="476" y="-1"/>
      <point x="437" y="0" type="curve" smooth="yes"/>
      <point x="370" y="3"/>
      <point x="302" y="4"/>
      <point x="254" y="5" type="curve"/>
      <point x="255" y="38"/>
      <point x="257" y="81"/>
      <point x="259" y="132" type="curve"/>
      <point x="224" y="130"/>
      <point x="156" y="134"/>
      <point x="144" y="134" type="curve"/>
      <point x="136" y="107"/>
      <point x="103" y="12"/>
      <point x="97" y="-19" type="curve"/>
      <point x="63" y="-3"/>
      <point x="28" y="11"/>
      <point x="-1" y="19" type="curve"/>
      <point x="10" y="60"/>
      <point x="117" y="365"/>
      <point x="171" y="566" type="curve" smooth="yes"/>
      <point x="180" y="598"/>
      <point x="190" y="645"/>
      <point x="190" y="663" type="curve"/>
      <point x="215" y="665"/>
      <point x="298" y="666"/>
      <point x="381" y="666" type="curve" smooth="yes"/>
      <point x="414" y="666"/>
      <point x="525" y="662"/>
      <point x="566" y="662" type="curve"/>
      <point x="557" y="631"/>
      <point x="552" y="594"/>
      <point x="549" y="559" type="curve"/>
      <point x="515" y="564"/>
      <point x="447" y="568"/>
      <point x="412" y="571" type="curve" smooth="yes"/>
      <point x="397" y="572"/>
      <point x="378" y="571"/>
      <point x="368" y="571" type="curve"/>
      <point x="367" y="510"/>
      <point x="369" y="465"/>
      <point x="369" y="405" type="curve"/>
      <point x="383" y="404"/>
      <point x="405" y="404"/>
      <point x="421" y="404" type="curve"/>
      <point x="431" y="405"/>
      <point x="500" y="408"/>
      <point x="533" y="408" type="curve"/>
      <point x="533" y="379"/>
      <point x="531" y="344"/>
      <point x="531" y="309" type="curve"/>
      <point x="491" y="309"/>
      <point x="433" y="313"/>
      <point x="430" y="313" type="curve" smooth="yes"/>
      <point x="419" y="313"/>
      <point x="383" y="317"/>
      <point x="369" y="317" type="curve"/>
      <point x="366" y="260"/>
      <point x="369" y="165"/>
      <point x="370" y="101" type="curve"/>
      <point x="385" y="99"/>
      <point x="410" y="100"/>
      <point x="416" y="99" type="curve" smooth="yes"/>
      <point x="425" y="98"/>
      <point x="524" y="94"/>
    </contour>
    <contour>
      <point x="265" y="304" type="curve" smooth="yes"/>
      <point x="267" y="412"/>
      <point x="266" y="501"/>
      <point x="265" y="570" type="curve"/>
      <point x="261" y="557"/>
      <point x="244" y="491"/>
      <point x="240" y="479" type="curve"/>
      <point x="237" y="453"/>
      <point x="182" y="272"/>
      <point x="173" y="225" type="curve"/>
      <point x="187" y="228"/>
      <point x="240" y="227"/>
      <point x="264" y="229" type="curve"/>
      <point x="264" y="251"/>
      <point x="264" y="276"/>
    </contour>
  </outline>
</glyph>
<glyph name="Ccedilla" format="1">
  <advance width="356"/>
  <unicode hex="00C7"/>
  <outline>
    <contour>
      <point x="337" y="90" type="curve"/>
      <point x="329" y="57"/>
      <point x="325" y="32"/>
      <point x="321" y="-7" type="curve"/>
      <point x="290" y="0"/>
      <point x="261" y="7"/>
      <point x="236" y="15" type="curve"/>
      <point x="223" y="-10" type="line"/>
      <point x="253" y="-20"/>
      <point x="277" y="-41"/>
      <point x="277" y="-70" type="curve" smooth="yes"/>
      <point x="277" y="-105"/>
      <point x="255" y="-152"/>
      <point x="168" y="-165" type="curve"/>
      <point x="145" y="-113" type="line"/>
      <point x="176" y="-106"/>
      <point x="200" y="-96"/>
      <point x="200" y="-76" type="curve" smooth="yes"/>
      <point x="200" y="-58"/>
      <point x="184" y="-43"/>
      <point x="136" y="-36" type="curve"/>
      <point x="177" y="39" type="line"/>
      <point x="58" y="97"/>
      <point x="26" y="190"/>
      <point x="26" y="347" type="curve" smooth="yes"/>
      <point x="26" y="520"/>
      <point x="119" y="671"/>
      <point x="282" y="671" type="curve" smooth="yes"/>
      <point x="297" y="671"/>
      <point x="312" y="670"/>
      <point x="328" y="667" type="curve"/>
      <point x="325" y="639"/>
      <point x="326" y="616"/>
      <point x="329" y="587" type="curve"/>
      <point x="230" y="586"/>
      <point x="139" y="539"/>
      <point x="139" y="345" type="curve" smooth="yes"/>
      <point x="139" y="181"/>
      <point x="183" y="117"/>
    </contour>
  </outline>
</glyph>
<glyph name="Eth" format="1">
  <advance width="464"/>
  <unicode hex="00D0"/>
  <outline>
    <contour>
      <point x="438" y="381" type="curve" smooth="yes"/>
      <point x="438" y="141"/>
      <point x="303" y="-2"/>
      <point x="170" y="-2" type="curve" smooth="yes"/>
      <point x="131" y="-2"/>
      <point x="90" y="7"/>
      <point x="56" y="16" type="curve"/>
      <point x="62" y="47"/>
      <point x="64" y="180"/>
      <point x="65" y="282" type="curve"/>
      <point x="47" y="282"/>
      <point x="31" y="283"/>
      <point x="19" y="283" type="curve"/>
      <point x="19" y="305"/>
      <point x="16" y="347"/>
      <point x="12" y="378" type="curve"/>
      <point x="26" y="377"/>
      <point x="44" y="377"/>
      <point x="66" y="377" type="curve"/>
      <point x="66" y="384"/>
      <point x="66" y="390"/>
      <point x="66" y="394" type="curve" smooth="yes"/>
      <point x="66" y="496"/>
      <point x="63" y="620"/>
      <point x="59" y="664" type="curve"/>
      <point x="98" y="674"/>
      <point x="135" y="675"/>
      <point x="163" y="675" type="curve" smooth="yes"/>
      <point x="327" y="675"/>
      <point x="438" y="596"/>
    </contour>
    <contour>
      <point x="325" y="377" type="curve" smooth="yes"/>
      <point x="325" y="553"/>
      <point x="258" y="575"/>
      <point x="173" y="579" type="curve"/>
      <point x="173" y="518"/>
      <point x="173" y="447"/>
      <point x="173" y="378" type="curve"/>
      <point x="198" y="379"/>
      <point x="220" y="381"/>
      <point x="234" y="382" type="curve"/>
      <point x="226" y="352"/>
      <point x="228" y="309"/>
      <point x="228" y="277" type="curve"/>
      <point x="216" y="278"/>
      <point x="196" y="279"/>
      <point x="173" y="279" type="curve"/>
      <point x="173" y="210"/>
      <point x="173" y="145"/>
      <point x="175" y="96" type="curve"/>
      <point x="178" y="96"/>
      <point x="180" y="95"/>
      <point x="183" y="95" type="curve" smooth="yes"/>
      <point x="278" y="95"/>
      <point x="325" y="236"/>
    </contour>
  </outline>
</glyph>
<glyph name="Oslash" format="1">
  <advance width="459"/>
  <unicode hex="00D8"/>
  <outline>
    <contour>
      <point x="459" y="670" type="curve"/>
      <point x="439" y="637"/>
      <point x="411" y="579"/>
      <point x="397" y="550" type="curve"/>
      <point x="419" y="502"/>
      <point x="433" y="435"/>
      <point x="433" y="346" type="curve" smooth="yes"/>
      <point x="433" y="93"/>
      <point x="303" y="-6"/>
      <point x="217" y="-6" type="curve" smooth="yes"/>
      <point x="188" y="-6"/>
      <point x="159" y="5"/>
      <point x="132" y="27" type="curve"/>
      <point x="116" y="-1"/>
      <point x="98" y="-35"/>
      <point x="91" y="-52" type="curve"/>
      <point x="65" y="-33"/>
      <point x="26" y="-19"/>
      <point x="0" y="-6" type="curve"/>
      <point x="22" y="31"/>
      <point x="53" y="96"/>
      <point x="65" y="121" type="curve"/>
      <point x="41" y="176"/>
      <point x="26" y="250"/>
      <point x="26" y="344" type="curve" smooth="yes"/>
      <point x="26" y="576"/>
      <point x="81" y="670"/>
      <point x="220" y="670" type="curve" smooth="yes"/>
      <point x="257" y="670"/>
      <point x="295" y="661"/>
      <point x="328" y="638" type="curve"/>
      <point x="343" y="666"/>
      <point x="361" y="699"/>
      <point x="368" y="716" type="curve"/>
      <point x="392" y="700"/>
      <point x="431" y="680"/>
    </contour>
    <contour>
      <point x="320" y="343" type="curve" smooth="yes"/>
      <point x="320" y="542"/>
      <point x="264" y="573"/>
      <point x="209" y="573" type="curve" smooth="yes"/>
      <point x="159" y="573"/>
      <point x="140" y="494"/>
      <point x="140" y="350" type="curve" smooth="yes"/>
      <point x="140" y="185"/>
      <point x="173" y="94"/>
      <point x="230" y="94" type="curve" smooth="yes"/>
      <point x="275" y="94"/>
      <point x="320" y="212"/>
    </contour>
  </outline>
</glyph>
<glyph name="Thorn" format="1">
  <advance width="389"/>
  <unicode hex="00DE"/>
  <outline>
    <contour>
      <point x="374" y="351" type="curve" smooth="yes"/>
      <point x="374" y="265"/>
      <point x="279" y="150"/>
      <point x="154" y="141" type="curve"/>
      <point x="154" y="114"/>
      <point x="157" y="67"/>
      <point x="161" y="28" type="curve"/>
      <point x="117" y="12"/>
      <point x="42" y="-2"/>
      <point x="42" y="-2" type="curve"/>
      <point x="42" y="79"/>
      <point x="45" y="190"/>
      <point x="43" y="305" type="curve" smooth="yes"/>
      <point x="42" y="391"/>
      <point x="37" y="552"/>
      <point x="32" y="652" type="curve"/>
      <point x="72" y="657"/>
      <point x="121" y="667"/>
      <point x="151" y="672" type="curve"/>
      <point x="151" y="627"/>
      <point x="150" y="582"/>
      <point x="150" y="552" type="curve"/>
      <point x="298" y="551"/>
      <point x="374" y="512"/>
    </contour>
    <contour>
      <point x="263" y="358" type="curve" smooth="yes"/>
      <point x="263" y="432"/>
      <point x="243" y="457"/>
      <point x="148" y="457" type="curve"/>
      <point x="149" y="430"/>
      <point x="150" y="383"/>
      <point x="151" y="345" type="curve" smooth="yes"/>
      <point x="152" y="316"/>
      <point x="154" y="266"/>
      <point x="155" y="238" type="curve"/>
      <point x="220" y="242"/>
      <point x="263" y="299"/>
    </contour>
  </outline>
</glyph>
<glyph name="germandbls" format="1">
  <advance width="436"/>
  <unicode hex="00DF"/>
  <outline>
    <contour>
      <point x="424" y="121" type="curve" smooth="yes"/>
      <point x="424" y="36"/>
      <point x="348" y="-15"/>
      <point x="231" y="-22" type="curve"/>
      <point x="231" y="10"/>
      <point x="229" y="28"/>
      <point x="217" y="67" type="curve"/>
      <point x="279" y="69"/>
      <point x="323" y="89"/>
      <point x="323" y="120" type="curve" smooth="yes"/>
      <point x="323" y="171"/>
      <point x="298" y="198"/>
      <point x="270" y="224" type="curve" smooth="yes"/>
      <point x="234" y="259"/>
      <point x="203" y="293"/>
      <point x="203" y="357" type="curve" smooth="yes"/>
      <point x="203" y="399"/>
      <point x="221" y="433"/>
      <point x="236" y="461" type="curve" smooth="yes"/>
      <point x="247" y="482"/>
      <point x="255" y="500"/>
      <point x="255" y="532" type="curve" smooth="yes"/>
      <point x="255" y="565"/>
      <point x="243" y="587"/>
      <point x="202" y="587" type="curve" smooth="yes"/>
      <point x="181" y="587"/>
      <point x="167" y="577"/>
      <point x="160" y="555" type="curve" smooth="yes"/>
      <point x="156" y="544"/>
      <point x="159" y="509"/>
      <point x="160" y="497" type="curve" smooth="yes"/>
      <point x="161" y="483"/>
      <point x="164" y="245"/>
      <point x="164" y="245" type="curve" smooth="yes"/>
      <point x="165" y="197"/>
      <point x="167" y="-13"/>
      <point x="167" y="-13" type="curve"/>
      <point x="129" y="-2"/>
      <point x="85" y="6"/>
      <point x="50" y="9" type="curve"/>
      <point x="54" y="38"/>
      <point x="58" y="94"/>
      <point x="61" y="139" type="curve" smooth="yes"/>
      <point x="63" y="172"/>
      <point x="63" y="214"/>
      <point x="63" y="224" type="curve" smooth="yes"/>
      <point x="63" y="355" type="line" smooth="yes"/>
      <point x="63" y="359"/>
      <point x="16" y="363"/>
      <point x="16" y="363" type="curve"/>
      <point x="3" y="451" type="line"/>
      <point x="63" y="451" type="line"/>
      <point x="64" y="484"/>
      <point x="60" y="550"/>
      <point x="60" y="562" type="curve" smooth="yes"/>
      <point x="60" y="628"/>
      <point x="121" y="672"/>
      <point x="204" y="672" type="curve" smooth="yes"/>
      <point x="284" y="672"/>
      <point x="350" y="633"/>
      <point x="350" y="531" type="curve" smooth="yes"/>
      <point x="350" y="492"/>
      <point x="338" y="460"/>
      <point x="324" y="435" type="curve" smooth="yes"/>
      <point x="310" y="410"/>
      <point x="301" y="386"/>
      <point x="301" y="362" type="curve" smooth="yes"/>
      <point x="301" y="330"/>
      <point x="325" y="307"/>
      <point x="354" y="279" type="curve" smooth="yes"/>
      <point x="388" y="245"/>
      <point x="424" y="205"/>
    </contour>
  </outline>
</glyph>
<glyph name="ae" format="1">
  <advance width="559"/>
  <unicode hex="00E6"/>
  <outline>
    <contour>
      <point x="545" y="56" type="curve"/>
      <point x="524" y="25"/>
      <point x="442" y="1"/>
      <point x="397" y="1" type="curve" smooth="yes"/>
      <point x="340" y="1"/>
      <point x="295" y="31"/>
      <point x="272" y="66" type="curve"/>
      <point x="243" y="34"/>
      <point x="173" y="-7"/>
      <point x="119" y="-7" type="curve" smooth="yes"/>
      <point x="81" y="-7"/>
      <point x="16" y="49"/>
      <point x="16" y="132" type="curve" smooth="yes"/>
      <point x="16" y="190"/>
      <point x="32" y="230"/>
      <point x="82" y="253" type="curve" smooth="yes"/>
      <point x="138" y="279"/>
      <point x="196" y="294"/>
      <point x="224" y="303" type="curve"/>
      <point x="223" y="332"/>
      <point x="220" y="352"/>
      <point x="207" y="358" type="curve" smooth="yes"/>
      <point x="186" y="369"/>
      <point x="147" y="372"/>
      <point x="96" y="372" type="curve"/>
      <point x="96" y="372"/>
      <point x="102" y="429"/>
      <point x="101" y="463" type="curve"/>
      <point x="171" y="454"/>
      <point x="225" y="446"/>
      <point x="252" y="433" type="curve" smooth="yes"/>
      <point x="265" y="427"/>
      <point x="277" y="419"/>
      <point x="285" y="403" type="curve"/>
      <point x="306" y="430"/>
      <point x="349" y="454"/>
      <point x="394" y="454" type="curve" smooth="yes"/>
      <point x="483" y="454"/>
      <point x="527" y="353"/>
      <point x="533" y="212" type="curve"/>
      <point x="447" y="205"/>
      <point x="343" y="201"/>
      <point x="320" y="200" type="curve"/>
      <point x="320" y="145"/>
      <point x="347" y="90"/>
      <point x="407" y="90" type="curve" smooth="yes"/>
      <point x="427" y="90"/>
      <point x="474" y="100"/>
      <point x="516" y="120" type="curve"/>
      <point x="524" y="92"/>
      <point x="532" y="76"/>
    </contour>
    <contour>
      <point x="434" y="281" type="curve"/>
      <point x="428" y="338"/>
      <point x="408" y="372"/>
      <point x="379" y="372" type="curve" smooth="yes"/>
      <point x="351" y="372"/>
      <point x="316" y="339"/>
      <point x="319" y="274" type="curve"/>
      <point x="328" y="274"/>
      <point x="366" y="274"/>
      <point x="376" y="275" type="curve" smooth="yes"/>
      <point x="394" y="276"/>
      <point x="425" y="280"/>
    </contour>
    <contour>
      <point x="235" y="141" type="curve"/>
      <point x="230" y="162"/>
      <point x="225" y="200"/>
      <point x="224" y="224" type="curve"/>
      <point x="210" y="219"/>
      <point x="167" y="205"/>
      <point x="155" y="200" type="curve" smooth="yes"/>
      <point x="131" y="190"/>
      <point x="115" y="172"/>
      <point x="115" y="147" type="curve" smooth="yes"/>
      <point x="115" y="108"/>
      <point x="129" y="87"/>
      <point x="148" y="87" type="curve" smooth="yes"/>
      <point x="174" y="86"/>
      <point x="218" y="116"/>
    </contour>
  </outline>
</glyph>
<glyph name="ccedilla" format="1">
  <advance width="308"/>
  <unicode hex="00E7"/>
  <outline>
    <contour>
      <point x="293" y="71" type="curve"/>
      <point x="282" y="37"/>
      <point x="274" y="3"/>
      <point x="271" y="-25" type="curve"/>
      <point x="244" y="-20"/>
      <point x="212" y="-13"/>
      <point x="189" y="-5" type="curve"/>
      <point x="176" y="-30" type="line"/>
      <point x="206" y="-40"/>
      <point x="230" y="-61"/>
      <point x="230" y="-90" type="curve" smooth="yes"/>
      <point x="230" y="-125"/>
      <point x="208" y="-172"/>
      <point x="121" y="-185" type="curve"/>
      <point x="98" y="-133" type="line"/>
      <point x="129" y="-126"/>
      <point x="153" y="-116"/>
      <point x="153" y="-96" type="curve" smooth="yes"/>
      <point x="153" y="-78"/>
      <point x="137" y="-63"/>
      <point x="89" y="-56" type="curve"/>
      <point x="130" y="18" type="line"/>
      <point x="51" y="61"/>
      <point x="17" y="130"/>
      <point x="17" y="231" type="curve" smooth="yes"/>
      <point x="17" y="292"/>
      <point x="32" y="350"/>
      <point x="58" y="384" type="curve" smooth="yes"/>
      <point x="100" y="437"/>
      <point x="143" y="457"/>
      <point x="270" y="473" type="curve"/>
      <point x="281" y="384" type="line"/>
      <point x="245" y="383"/>
      <point x="213" y="376"/>
      <point x="206" y="375" type="curve"/>
      <point x="155" y="359"/>
      <point x="123" y="321"/>
      <point x="123" y="241" type="curve" smooth="yes"/>
      <point x="123" y="173"/>
      <point x="140" y="102"/>
      <point x="222" y="81" type="curve" smooth="yes"/>
      <point x="236" y="78"/>
      <point x="256" y="71"/>
    </contour>
  </outline>
</glyph>
<glyph name="eth" format="1">
  <advance width="394"/>
  <unicode hex="00F0"/>
  <outline>
    <contour>
      <point x="372" y="265" type="curve" smooth="yes"/>
      <point x="372" y="102"/>
      <point x="285" y="6"/>
      <point x="194" y="6" type="curve" smooth="yes"/>
      <point x="134" y="6"/>
      <point x="76" y="32"/>
      <point x="50" y="89" type="curve" smooth="yes"/>
      <point x="35" y="123"/>
      <point x="21" y="160"/>
      <point x="21" y="213" type="curve" smooth="yes"/>
      <point x="21" y="379"/>
      <point x="92" y="440"/>
      <point x="177" y="440" type="curve" smooth="yes"/>
      <point x="197" y="440"/>
      <point x="229" y="432"/>
      <point x="243" y="419" type="curve"/>
      <point x="231" y="452"/>
      <point x="199" y="497"/>
      <point x="171" y="524" type="curve"/>
      <point x="151" y="506"/>
      <point x="128" y="487"/>
      <point x="115" y="472" type="curve"/>
      <point x="95" y="491"/>
      <point x="80" y="506"/>
      <point x="52" y="520" type="curve"/>
      <point x="77" y="544"/>
      <point x="91" y="558"/>
      <point x="107" y="575" type="curve"/>
      <point x="88" y="590"/>
      <point x="73" y="598"/>
      <point x="41" y="608" type="curve"/>
      <point x="60" y="627"/>
      <point x="82" y="651"/>
      <point x="99" y="676" type="curve"/>
      <point x="133" y="661"/>
      <point x="147" y="653"/>
      <point x="168" y="638" type="curve"/>
      <point x="183" y="654"/>
      <point x="197" y="669"/>
      <point x="208" y="685" type="curve"/>
      <point x="231" y="665"/>
      <point x="258" y="640"/>
      <point x="285" y="620" type="curve"/>
      <point x="269" y="607"/>
      <point x="253" y="594"/>
      <point x="238" y="582" type="curve"/>
      <point x="315" y="506"/>
      <point x="372" y="396"/>
    </contour>
    <contour>
      <point x="267" y="235" type="curve" smooth="yes"/>
      <point x="267" y="332"/>
      <point x="225" y="353"/>
      <point x="185" y="353" type="curve" smooth="yes"/>
      <point x="148" y="353"/>
      <point x="127" y="321"/>
      <point x="127" y="232" type="curve" smooth="yes"/>
      <point x="127" y="139"/>
      <point x="161" y="99"/>
      <point x="201" y="99" type="curve" smooth="yes"/>
      <point x="238" y="99"/>
      <point x="267" y="144"/>
    </contour>
  </outline>
</glyph>
<glyph name="oslash" format="1">
  <advance width="394"/>
  <unicode hex="00F8"/>
  <outline>
    <contour>
      <point x="380" y="485" type="curve"/>
      <point x="366" y="462"/>
      <point x="349" y="427"/>
      <point x="334" y="398" type="curve"/>
      <point x="357" y="367"/>
      <point x="372" y="324"/>
      <point x="372" y="263" type="curve" smooth="yes"/>
      <point x="372" y="103"/>
      <point x="285" y="6"/>
      <point x="194" y="6" type="curve" smooth="yes"/>
      <point x="171" y="6"/>
      <point x="150" y="9"/>
      <point x="129" y="17" type="curve"/>
      <point x="115" y="-9"/>
      <point x="100" y="-37"/>
      <point x="94" y="-52" type="curve"/>
      <point x="68" y="-33"/>
      <point x="34" y="-19"/>
      <point x="8" y="-6" type="curve"/>
      <point x="23" y="19"/>
      <point x="43" y="58"/>
      <point x="57" y="87" type="curve"/>
      <point x="45" y="112"/>
      <point x="21" y="163"/>
      <point x="21" y="226" type="curve" smooth="yes"/>
      <point x="21" y="392"/>
      <point x="100" y="459"/>
      <point x="195" y="459" type="curve" smooth="yes"/>
      <point x="215" y="459"/>
      <point x="234" y="457"/>
      <point x="253" y="451" type="curve"/>
      <point x="268" y="480"/>
      <point x="287" y="514"/>
      <point x="294" y="531" type="curve"/>
      <point x="318" y="515"/>
      <point x="352" y="495"/>
    </contour>
    <contour>
      <point x="267" y="235" type="curve" smooth="yes"/>
      <point x="267" y="334"/>
      <point x="223" y="368"/>
      <point x="184" y="368" type="curve" smooth="yes"/>
      <point x="147" y="368"/>
      <point x="127" y="337"/>
      <point x="127" y="244" type="curve" smooth="yes"/>
      <point x="127" y="158"/>
      <point x="161" y="99"/>
      <point x="201" y="99" type="curve" smooth="yes"/>
      <point x="238" y="99"/>
      <point x="267" y="144"/>
    </contour>
  </outline>
</glyph>
<glyph name="thorn" format="1">
  <advance width="370"/>
  <unicode hex="00FE"/>
  <outline>
    <contour>
      <point x="343" y="194" type="curve" smooth="yes"/>
      <point x="343" y="120"/>
      <point x="330" y="68"/>
      <point x="302" y="29" type="curve" smooth="yes"/>
      <point x="273" y="-13"/>
      <point x="242" y="-20"/>
      <point x="212" y="-20" type="curve" smooth="yes"/>
      <point x="199" y="-20"/>
      <point x="145" y="-1"/>
      <point x="131" y="9" type="curve"/>
      <point x="131" y="-16"/>
      <point x="131" y="-52"/>
      <point x="131" y="-96" type="curve" smooth="yes"/>
      <point x="131" y="-124"/>
      <point x="133" y="-152"/>
      <point x="137" y="-183" type="curve"/>
      <point x="99" y="-185"/>
      <point x="62" y="-189"/>
      <point x="32" y="-196" type="curve"/>
      <point x="30" y="-149"/>
      <point x="33" y="29"/>
      <point x="32" y="191" type="curve" smooth="yes"/>
      <point x="32" y="297"/>
      <point x="30" y="658"/>
      <point x="30" y="658" type="curve"/>
      <point x="59" y="655"/>
      <point x="110" y="659"/>
      <point x="138" y="664" type="curve"/>
      <point x="135" y="648"/>
      <point x="134" y="432"/>
      <point x="133" y="423" type="curve"/>
      <point x="151" y="428"/>
      <point x="204" y="435"/>
      <point x="224" y="435" type="curve" smooth="yes"/>
      <point x="242" y="435"/>
      <point x="254" y="433"/>
      <point x="271" y="425" type="curve" smooth="yes"/>
      <point x="288" y="417"/>
      <point x="300" y="409"/>
      <point x="308" y="398" type="curve" smooth="yes"/>
      <point x="332" y="365"/>
      <point x="343" y="305"/>
    </contour>
    <contour>
      <point x="237" y="192" type="curve" smooth="yes"/>
      <point x="237" y="299"/>
      <point x="222" y="353"/>
      <point x="179" y="353" type="curve" smooth="yes"/>
      <point x="163" y="353"/>
      <point x="137" y="344"/>
      <point x="128" y="338" type="curve"/>
      <point x="127" y="326"/>
      <point x="128" y="278"/>
      <point x="128" y="252" type="curve" smooth="yes"/>
      <point x="128" y="199"/>
      <point x="130" y="112"/>
      <point x="130" y="100" type="curve"/>
      <point x="148" y="79"/>
      <point x="184" y="70"/>
      <point x="196" y="70" type="curve" smooth="yes"/>
      <point x="217" y="70"/>
      <point x="237" y="78"/>
    </contour>
  </outline>
</glyph>
<glyph name="dotlessi" format="1">
  <advance width="171"/>
  <unicode hex="0131"/>
  <outline>
    <contour>
      <point x="142" y="7" type="curve"/>
      <point x="117" y="5"/>
      <point x="67" y="-4"/>
      <point x="33" y="-15" type="curve"/>
      <point x="36" y="53"/>
      <point x="34" y="213"/>
      <point x="34" y="237" type="curve" smooth="yes"/>
      <point x="34" y="261"/>
      <point x="31" y="422"/>
      <point x="31" y="456" type="curve"/>
      <point x="57" y="453"/>
      <point x="100" y="451"/>
      <point x="141" y="452" type="curve"/>
      <point x="137" y="427"/>
      <point x="136" y="388"/>
      <point x="135" y="377" type="curve" smooth="yes"/>
      <point x="134" y="360"/>
      <point x="132" y="300"/>
      <point x="132" y="273" type="curve" smooth="yes"/>
      <point x="132" y="250"/>
      <point x="135" y="135"/>
      <point x="136" y="120" type="curve" smooth="yes"/>
      <point x="137" y="109"/>
      <point x="139" y="48"/>
    </contour>
  </outline>
</glyph>
<glyph name="Lslash" format="1">
  <advance width="381"/>
  <unicode hex="0141"/>
  <outline>
    <contour>
      <point x="374" y="97" type="curve"/>
      <point x="365" y="58"/>
      <point x="361" y="34"/>
      <point x="352" y="-8" type="curve"/>
      <point x="325" y="-4"/>
      <point x="283" y="-2"/>
      <point x="249" y="0" type="curve" smooth="yes"/>
      <point x="185" y="4"/>
      <point x="103" y="5"/>
      <point x="65" y="8" type="curve"/>
      <point x="69" y="55"/>
      <point x="73" y="159"/>
      <point x="74" y="275" type="curve"/>
      <point x="42" y="263" type="line"/>
      <point x="0" y="328" type="line"/>
      <point x="75" y="364" type="line"/>
      <point x="74" y="410"/>
      <point x="74" y="456"/>
      <point x="72" y="499" type="curve" smooth="yes"/>
      <point x="70" y="556"/>
      <point x="72" y="618"/>
      <point x="67" y="660" type="curve"/>
      <point x="108" y="660"/>
      <point x="149" y="668"/>
      <point x="186" y="673" type="curve"/>
      <point x="187" y="641"/>
      <point x="187" y="533"/>
      <point x="187" y="418" type="curve"/>
      <point x="253" y="450" type="line"/>
      <point x="288" y="354" type="line"/>
      <point x="186" y="316" type="line"/>
      <point x="186" y="219"/>
      <point x="186" y="128"/>
      <point x="185" y="93" type="curve"/>
      <point x="223" y="94"/>
      <point x="314" y="92"/>
    </contour>
  </outline>
</glyph>
<glyph name="lslash" format="1">
  <advance width="240"/>
  <unicode hex="0142"/>
  <outline>
    <contour>
      <point x="243" y="335" type="line"/>
      <point x="170" y="309" type="line"/>
      <point x="170" y="250"/>
      <point x="169" y="191"/>
      <point x="166" y="185" type="curve"/>
      <point x="164" y="174"/>
      <point x="164" y="35"/>
      <point x="162" y="-24" type="curve"/>
      <point x="127" y="-11"/>
      <point x="90" y="-5"/>
      <point x="69" y="1" type="curve"/>
      <point x="69" y="24"/>
      <point x="70" y="177"/>
      <point x="71" y="273" type="curve"/>
      <point x="42" y="263" type="line"/>
      <point x="0" y="328" type="line"/>
      <point x="71" y="363" type="line"/>
      <point x="71" y="392"/>
      <point x="70" y="500"/>
      <point x="70" y="512" type="curve" smooth="yes"/>
      <point x="70" y="519"/>
      <point x="77" y="591"/>
      <point x="79" y="610" type="curve" smooth="yes"/>
      <point x="80" y="621"/>
      <point x="81" y="648"/>
      <point x="81" y="686" type="curve"/>
      <point x="109" y="676"/>
      <point x="149" y="666"/>
      <point x="171" y="656" type="curve"/>
      <point x="171" y="619"/>
      <point x="171" y="468"/>
      <point x="171" y="436" type="curve" smooth="yes"/>
      <point x="171" y="432"/>
      <point x="171" y="422"/>
      <point x="171" y="412" type="curve"/>
      <point x="208" y="431" type="line"/>
    </contour>
  </outline>
</glyph>
<glyph name="OE" format="1">
  <advance width="638"/>
  <unicode hex="0152"/>
  <outline>
    <contour>
      <point x="618" y="97" type="curve"/>
      <point x="615" y="70"/>
      <point x="608" y="32"/>
      <point x="602" y="-5" type="curve"/>
      <point x="577" y="-2"/>
      <point x="525" y="-1"/>
      <point x="486" y="0" type="curve" smooth="yes"/>
      <point x="419" y="3"/>
      <point x="371" y="7"/>
      <point x="324" y="9" type="curve"/>
      <point x="324" y="30"/>
      <point x="324" y="48"/>
      <point x="323" y="63" type="curve"/>
      <point x="301" y="24"/>
      <point x="254" y="-6"/>
      <point x="212" y="-6" type="curve" smooth="yes"/>
      <point x="124" y="-6"/>
      <point x="26" y="111"/>
      <point x="26" y="347" type="curve" smooth="yes"/>
      <point x="26" y="558"/>
      <point x="76" y="670"/>
      <point x="215" y="670" type="curve" smooth="yes"/>
      <point x="258" y="670"/>
      <point x="305" y="646"/>
      <point x="324" y="616" type="curve"/>
      <point x="324" y="623"/>
      <point x="324" y="652"/>
      <point x="324" y="661" type="curve"/>
      <point x="359" y="665"/>
      <point x="407" y="666"/>
      <point x="430" y="666" type="curve" smooth="yes"/>
      <point x="463" y="666"/>
      <point x="574" y="663"/>
      <point x="615" y="663" type="curve"/>
      <point x="606" y="631"/>
      <point x="600" y="595"/>
      <point x="597" y="560" type="curve"/>
      <point x="563" y="566"/>
      <point x="496" y="568"/>
      <point x="461" y="571" type="curve" smooth="yes"/>
      <point x="446" y="573"/>
      <point x="424" y="571"/>
      <point x="415" y="572" type="curve"/>
      <point x="414" y="510"/>
      <point x="415" y="462"/>
      <point x="415" y="402" type="curve"/>
      <point x="434" y="401"/>
      <point x="466" y="401"/>
      <point x="477" y="402" type="curve" smooth="yes"/>
      <point x="489" y="402"/>
      <point x="549" y="405"/>
      <point x="582" y="409" type="curve"/>
      <point x="582" y="381"/>
      <point x="580" y="343"/>
      <point x="580" y="308" type="curve"/>
      <point x="541" y="308"/>
      <point x="491" y="312"/>
      <point x="485" y="312" type="curve"/>
      <point x="475" y="314"/>
      <point x="430" y="316"/>
      <point x="416" y="317" type="curve"/>
      <point x="412" y="260"/>
      <point x="416" y="166"/>
      <point x="416" y="102" type="curve"/>
      <point x="431" y="99"/>
      <point x="459" y="100"/>
      <point x="465" y="100" type="curve" smooth="yes"/>
      <point x="474" y="100"/>
      <point x="573" y="95"/>
    </contour>
    <contour>
      <point x="322" y="343" type="curve" smooth="yes"/>
      <point x="322" y="542"/>
      <point x="264" y="573"/>
      <point x="209" y="573" type="curve" smooth="yes"/>
      <point x="159" y="573"/>
      <point x="140" y="494"/>
      <point x="140" y="350" type="curve" smooth="yes"/>
      <point x="140" y="185"/>
      <point x="173" y="94"/>
      <point x="230" y="94" type="curve" smooth="yes"/>
      <point x="275" y="94"/>
      <point x="322" y="212"/>
    </contour>
  </outline>
</glyph>
<glyph name="oe" format="1">
  <advance width="603"/>
  <unicode hex="0153"/>
  <outline>
    <contour>
      <point x="589" y="55" type="curve"/>
      <point x="568" y="24"/>
      <point x="476" y="-1"/>
      <point x="439" y="-1" type="curve" smooth="yes"/>
      <point x="387" y="-1"/>
      <point x="330" y="41"/>
      <point x="309" y="81" type="curve"/>
      <point x="280" y="35"/>
      <point x="239" y="5"/>
      <point x="195" y="5" type="curve" smooth="yes"/>
      <point x="137" y="5"/>
      <point x="88" y="34"/>
      <point x="55" y="90" type="curve" smooth="yes"/>
      <point x="37" y="120"/>
      <point x="21" y="165"/>
      <point x="21" y="225" type="curve" smooth="yes"/>
      <point x="21" y="392"/>
      <point x="100" y="459"/>
      <point x="195" y="459" type="curve" smooth="yes"/>
      <point x="241" y="459"/>
      <point x="291" y="434"/>
      <point x="316" y="393" type="curve"/>
      <point x="338" y="426"/>
      <point x="383" y="454"/>
      <point x="438" y="454" type="curve" smooth="yes"/>
      <point x="527" y="454"/>
      <point x="571" y="353"/>
      <point x="578" y="211" type="curve"/>
      <point x="490" y="204"/>
      <point x="385" y="201"/>
      <point x="364" y="200" type="curve"/>
      <point x="362" y="148"/>
      <point x="391" y="88"/>
      <point x="452" y="88" type="curve" smooth="yes"/>
      <point x="473" y="88"/>
      <point x="518" y="96"/>
      <point x="561" y="117" type="curve"/>
      <point x="568" y="92"/>
      <point x="575" y="75"/>
    </contour>
    <contour>
      <point x="476" y="279" type="curve"/>
      <point x="472" y="340"/>
      <point x="454" y="374"/>
      <point x="423" y="374" type="curve" smooth="yes"/>
      <point x="392" y="374"/>
      <point x="359" y="338"/>
      <point x="362" y="274" type="curve"/>
      <point x="368" y="274"/>
      <point x="410" y="272"/>
      <point x="420" y="273" type="curve" smooth="yes"/>
      <point x="439" y="274"/>
      <point x="469" y="278"/>
    </contour>
    <contour>
      <point x="269" y="234" type="curve" smooth="yes"/>
      <point x="269" y="334"/>
      <point x="222" y="368"/>
      <point x="183" y="368" type="curve" smooth="yes"/>
      <point x="146" y="368"/>
      <point x="120" y="336"/>
      <point x="120" y="244" type="curve" smooth="yes"/>
      <point x="120" y="158"/>
      <point x="150" y="99"/>
      <point x="200" y="99" type="curve" smooth="yes"/>
      <point x="237" y="99"/>
      <point x="269" y="143"/>
    </contour>
  </outline>
</glyph>
<glyph name="florin" format="1">
  <advance width="263"/>
  <unicode hex="0192"/>
  <outline>
    <contour>
      <point x="252" y="598" type="curve"/>
      <point x="190" y="591"/>
      <point x="186" y="583"/>
      <point x="170" y="569" type="curve" smooth="yes"/>
      <point x="160" y="560"/>
      <point x="159" y="548"/>
      <point x="161" y="510" type="curve" smooth="yes"/>
      <point x="161" y="501"/>
      <point x="162" y="447"/>
      <point x="162" y="438" type="curve"/>
      <point x="170" y="438"/>
      <point x="206" y="436"/>
      <point x="228" y="439" type="curve"/>
      <point x="230" y="354" type="line"/>
      <point x="230" y="354"/>
      <point x="186" y="356"/>
      <point x="167" y="355" type="curve"/>
      <point x="165" y="240" type="line" smooth="yes"/>
      <point x="164" y="176"/>
      <point x="162" y="97"/>
      <point x="162" y="76" type="curve" smooth="yes"/>
      <point x="162" y="-76"/>
      <point x="108" y="-133"/>
      <point x="49" y="-178" type="curve"/>
      <point x="25" y="-152"/>
      <point x="10" y="-137"/>
      <point x="-18" y="-117" type="curve"/>
      <point x="27" y="-85"/>
      <point x="60" y="-18"/>
      <point x="60" y="45" type="curve" smooth="yes"/>
      <point x="60" y="65"/>
      <point x="61" y="99"/>
      <point x="61" y="134" type="curve" smooth="yes"/>
      <point x="61" y="168"/>
      <point x="63" y="210"/>
      <point x="63" y="220" type="curve" smooth="yes"/>
      <point x="63" y="355" type="line"/>
      <point x="54" y="356"/>
      <point x="16" y="363"/>
      <point x="16" y="363" type="curve"/>
      <point x="3" y="446" type="line"/>
      <point x="63" y="445" type="line"/>
      <point x="64" y="478"/>
      <point x="60" y="557"/>
      <point x="60" y="570" type="curve" smooth="yes"/>
      <point x="60" y="607"/>
      <point x="72" y="662"/>
      <point x="230" y="684" type="curve"/>
      <point x="235" y="653"/>
      <point x="239" y="634"/>
    </contour>
  </outline>
</glyph>
<glyph name="circumflex" format="1">
  <advance width="315"/>
  <unicode hex="02C6"/>
  <outline>
    <contour>
      <point x="295" y="550" type="line"/>
      <point x="248" y="495" type="line"/>
      <point x="155" y="562" type="line"/>
      <point x="66" y="480" type="line"/>
      <point x="17" y="534" type="line"/>
      <point x="133" y="645" type="line"/>
      <point x="185" y="643" type="line"/>
    </contour>
  </outline>
</glyph>
<glyph name="caron" format="1">
  <advance width="315"/>
  <unicode hex="02C7"/>
  <outline>
    <contour>
      <point x="290" y="606" type="line"/>
      <point x="176" y="497" type="line"/>
      <point x="120" y="499" type="line"/>
      <point x="14" y="591" type="line"/>
      <point x="60" y="645" type="line"/>
      <point x="153" y="577" type="line"/>
      <point x="242" y="661" type="line"/>
    </contour>
  </outline>
</glyph>
<glyph name="breve" format="1">
  <advance width="315"/>
  <unicode hex="02D8"/>
  <outline>
    <contour>
      <point x="296" y="628" type="line"/>
      <point x="285" y="563"/>
      <point x="231" y="500"/>
      <point x="152" y="500" type="curve" smooth="yes"/>
      <point x="80" y="500"/>
      <point x="31" y="544"/>
      <point x="12" y="602" type="curve"/>
      <point x="83" y="632" type="line"/>
      <point x="96" y="597"/>
      <point x="120" y="577"/>
      <point x="146" y="577" type="curve" smooth="yes"/>
      <point x="186" y="577"/>
      <point x="210" y="607"/>
      <point x="216" y="642" type="curve"/>
    </contour>
  </outline>
</glyph>
<glyph name="dotaccent" format="1">
  <advance width="315"/>
  <unicode hex="02D9"/>
  <outline>
    <contour>
      <point x="209" y="586" type="curve" smooth="yes"/>
      <point x="209" y="556"/>
      <point x="186" y="528"/>
      <point x="152" y="528" type="curve" smooth="yes"/>
      <point x="122" y="528"/>
      <point x="96" y="552"/>
      <point x="96" y="585" type="curve" smooth="yes"/>
      <point x="96" y="611"/>
      <point x="117" y="636"/>
      <point x="149" y="636" type="curve" smooth="yes"/>
      <point x="181" y="636"/>
      <point x="209" y="616"/>
    </contour>
  </outline>
</glyph>
<glyph name="ring" format="1">
  <advance width="315"/>
  <unicode hex="02DA"/>
  <outline>
    <contour>
      <point x="253" y="588" type="curve" smooth="yes"/>
      <point x="253" y="531"/>
      <point x="196" y="493"/>
      <point x="151" y="493" type="curve" smooth="yes"/>
      <point x="104" y="493"/>
      <point x="47" y="533"/>
      <point x="47" y="597" type="curve" smooth="yes"/>
      <point x="47" y="653"/>
      <point x="94" y="683"/>
      <point x="155" y="683" type="curve" smooth="yes"/>
      <point x="224" y="683"/>
      <point x="253" y="634"/>
    </contour>
    <contour>
      <point x="192" y="599" type="curve" smooth="yes"/>
      <point x="192" y="616"/>
      <point x="175" y="630"/>
      <point x="151" y="630" type="curve" smooth="yes"/>
      <point x="118" y="630"/>
      <point x="106" y="615"/>
      <point x="106" y="587" type="curve" smooth="yes"/>
      <point x="106" y="568"/>
      <point x="124" y="549"/>
      <point x="144" y="549" type="curve" smooth="yes"/>
      <point x="175" y="549"/>
      <point x="192" y="568"/>
    </contour>
  </outline>
</glyph>
<glyph name="ogonek" format="1">
  <advance width="315"/>
  <unicode hex="02DB"/>
  <outline>
    <contour>
      <point x="223" y="-125" type="curve"/>
      <point x="201" y="-186" type="line"/>
      <point x="103" y="-157"/>
      <point x="77" y="-127"/>
      <point x="77" y="-64" type="curve" smooth="yes"/>
      <point x="77" y="-37"/>
      <point x="100" y="2"/>
      <point x="144" y="28" type="curve"/>
      <point x="216" y="21" type="line"/>
      <point x="172" y="-21"/>
      <point x="159" y="-42"/>
      <point x="159" y="-67" type="curve" smooth="yes"/>
      <point x="159" y="-102"/>
      <point x="189" y="-116"/>
    </contour>
  </outline>
</glyph>
<glyph name="tilde" format="1">
  <advance width="315"/>
  <unicode hex="02DC"/>
  <outline>
    <contour>
      <point x="293" y="587" type="line"/>
      <point x="276" y="543"/>
      <point x="234" y="515"/>
      <point x="188" y="515" type="curve" smooth="yes"/>
      <point x="175" y="515"/>
      <point x="164" y="522"/>
      <point x="154" y="529" type="curve" smooth="yes"/>
      <point x="143" y="536"/>
      <point x="132" y="543"/>
      <point x="119" y="543" type="curve" smooth="yes"/>
      <point x="105" y="543"/>
      <point x="86" y="528"/>
      <point x="70" y="514" type="curve"/>
      <point x="14" y="569" type="line"/>
      <point x="37" y="595"/>
      <point x="77" y="626"/>
      <point x="108" y="626" type="curve" smooth="yes"/>
      <point x="127" y="626"/>
      <point x="140" y="618"/>
      <point x="152" y="610" type="curve" smooth="yes"/>
      <point x="164" y="603"/>
      <point x="175" y="595"/>
      <point x="190" y="595" type="curve" smooth="yes"/>
      <point x="213" y="595"/>
      <point x="236" y="614"/>
      <point x="250" y="635" type="curve"/>
    </contour>
  </outline>
</glyph>
